<?xml version="1.0" encoding="UTF-8"?>
<svg version="1.1" xmlns="http://www.w3.org/2000/svg" width="512" height="512">
<path d="M0 0 C1.12220345 -0.00352835 1.12220345 -0.00352835 2.26707768 -0.00712797 C4.78207282 -0.01380201 7.29701611 -0.01336023 9.81201935 -0.01294994 C11.63023218 -0.01624956 13.44844428 -0.01997534 15.26665545 -0.02409142 C20.26975745 -0.03410842 25.27284745 -0.03782774 30.27595806 -0.04048073 C35.66949409 -0.04438468 41.06302063 -0.05396297 46.4565506 -0.0626936 C59.48541646 -0.08245558 72.5142831 -0.09252395 85.5431602 -0.10142139 C91.67905017 -0.10580478 97.81493927 -0.11117146 103.95082855 -0.11641026 C124.3486259 -0.13342237 144.74642272 -0.14791645 165.14422607 -0.155159 C170.43750255 -0.15706888 175.73077902 -0.15898922 181.02405548 -0.16094494 C182.33966967 -0.16142868 183.65528385 -0.16191242 185.01076514 -0.16241082 C206.32183397 -0.17071074 227.63283123 -0.19604711 248.94387764 -0.22852562 C270.82452995 -0.26160028 292.70515373 -0.27960814 314.58583117 -0.28280324 C326.87056745 -0.28496796 339.15522186 -0.29371126 351.43993378 -0.31926441 C361.90241374 -0.34097693 372.36479196 -0.34901907 382.82729191 -0.33929763 C388.16356888 -0.33475456 393.49963594 -0.33663978 398.83588409 -0.35605907 C403.72653546 -0.37370273 408.61682396 -0.37268311 413.50747925 -0.35716178 C415.27134927 -0.35478756 417.03524449 -0.35909958 418.79907602 -0.37099043 C431.08298559 -0.44863462 443.50367877 0.02723086 453.51819611 8.13422108 C454.35737579 8.7452367 454.35737579 8.7452367 455.21350861 9.36859608 C462.47726732 14.96577812 467.11662672 23.34632483 469.51819611 32.13422108 C469.93729648 35.84020998 469.93884974 39.51412019 469.92224884 43.24091053 C469.93254372 44.86938923 469.93254372 44.86938923 469.94304657 46.53076649 C469.96127807 50.10314658 469.95748147 53.67508589 469.95178986 57.24750233 C469.95635396 59.74320588 469.96166022 62.23890817 469.96767426 64.73460865 C469.97773962 70.62867533 469.97165495 76.52258634 469.96042067 82.41664618 C469.95324643 87.09954972 469.96401366 91.78217337 469.98474884 96.46503162 C470.01309379 102.94527028 470.02168722 109.42521772 470.01452065 115.90551281 C470.01436784 118.36654051 470.02037831 120.82757697 470.03281212 123.28857327 C470.04778814 126.7391633 470.0369948 130.18878699 470.01990509 133.63934803 C470.02957306 134.64386509 470.03924103 135.64838215 470.04920197 136.68333912 C469.92880541 148.36729142 465.85852783 157.83262865 457.60022736 166.04047108 C449.33155859 173.5894298 441.07726935 177.45862123 429.69100571 177.39148998 C428.92983295 177.39499606 428.16866019 177.39850213 427.38442159 177.40211445 C424.83708178 177.41140889 422.28997157 177.40651021 419.74262238 177.40164661 C417.89650815 177.40538386 416.05039551 177.40998568 414.20428538 177.41537726 C409.13341436 177.42761348 404.06260929 177.42734605 398.99172688 177.42498851 C393.52191208 177.4245805 388.05211847 177.43561797 382.58231354 177.44510365 C371.86665609 177.46171804 361.15102065 177.46721339 350.4353514 177.4683284 C341.72517778 177.46927867 333.01501142 177.47338789 324.30484009 177.47972965 C299.61070365 177.49734326 274.91658236 177.50658049 250.22243991 177.5050687 C249.55702249 177.50502881 248.89160507 177.50498892 248.20602349 177.50494782 C246.86038734 177.50486695 245.51475118 177.50478335 244.16911503 177.50469704 C223.23596844 177.50347169 202.30288666 177.51848238 181.36975861 177.54584217 C157.84491631 177.57657678 134.3201063 177.5937485 110.79524112 177.59191573 C98.34181191 177.59125167 85.88845579 177.59675099 73.43504333 177.61827183 C62.83201391 177.63647755 52.2290907 177.64083591 41.62605241 177.62725298 C36.21710493 177.62072032 30.80836126 177.6206171 25.39943314 177.63795948 C20.44481305 177.65368174 15.49055853 177.65083501 10.53594741 177.63339122 C8.74660372 177.63031949 6.9572328 177.63396022 5.16792122 177.64511137 C-8.08408631 177.72220839 -19.34468709 176.47669101 -29.48180389 167.13422108 C-39.31144115 157.24415572 -42.77915398 147.93891393 -42.78820038 134.15692616 C-42.7965239 133.07302601 -42.80484741 131.98912586 -42.81342316 130.87238026 C-42.83745999 127.2994674 -42.84628828 123.7267374 -42.85289764 120.15375233 C-42.86186971 117.65901607 -42.87099166 115.16428036 -42.88025665 112.66954517 C-42.89673274 107.44185551 -42.9044441 102.21422977 -42.907341 96.986516 C-42.91136892 90.30980564 -42.95038208 83.63378983 -42.99608517 76.95722389 C-43.02592806 71.80370902 -43.03306617 66.65033885 -43.03406715 61.49674511 C-43.03825608 59.03652326 -43.05063656 56.57630044 -43.0715847 54.11616421 C-43.20467877 37.13207956 -42.80296249 24.04576853 -30.48180389 11.13422108 C-21.88388783 3.12741175 -11.56696132 -0.0247895 0 0 Z " fill="#D0E2ED" transform="translate(42.48180389404297,3.865778923034668)"/>
<path d="M0 0 C0.72858355 -0.00551417 1.4571671 -0.01102833 2.20782894 -0.0167096 C4.65656237 -0.03033757 7.10428646 -0.01539057 9.5530014 -0.00063419 C11.32329712 -0.00452589 13.09358972 -0.01016528 14.86387491 -0.01740509 C19.73431102 -0.03219662 24.60442503 -0.02195657 29.47485089 -0.00766838 C34.7250945 0.00341654 39.97529199 -0.00849295 45.22553253 -0.01751041 C55.51303195 -0.03146182 65.80040882 -0.02387266 76.08790243 -0.00883483 C88.06157651 0.00800328 100.03521987 0.00481778 112.00890213 0.00107109 C133.36928913 -0.00481098 154.72961723 0.00937767 176.08998871 0.03401852 C196.82926898 0.05794029 217.56847055 0.06502321 238.30776215 0.05452633 C260.87740268 0.04312356 283.44700678 0.04117914 306.01664686 0.05562443 C308.42213153 0.05715031 310.82761621 0.05867066 313.23310089 0.06018543 C315.0085381 0.06132215 315.0085381 0.06132215 316.81984273 0.06248184 C325.17123416 0.06722962 333.52260936 0.06536973 341.87400055 0.06112003 C352.04795588 0.05619932 362.22183671 0.06215114 372.39577496 0.08201433 C377.58924832 0.09190317 382.78260811 0.09697429 387.97608757 0.08912182 C392.72688873 0.0820855 397.47746033 0.08882149 402.22823113 0.10672545 C403.95022755 0.11078328 405.67224475 0.10974783 407.39423352 0.10320658 C409.72901628 0.09509414 412.06301843 0.10532189 414.39775085 0.12025452 C415.69634206 0.12128365 416.99493327 0.12231278 418.33287573 0.12337309 C422.2341501 0.5605548 424.90416909 1.70586492 427.69887543 4.50057125 C427.93715668 6.4263525 427.93715668 6.4263525 428.01137543 8.81307125 C428.04875824 9.59295406 428.08614105 10.37283688 428.12465668 11.1763525 C427.52317405 14.45967509 426.32134485 15.46088238 423.69887543 17.50057125 C420.43668747 18.00196791 420.43668747 18.00196791 416.47115326 18.00393581 C415.73835884 18.00974958 415.00556441 18.01556334 414.2505641 18.02155328 C411.78150687 18.03621535 409.31343413 18.02223983 406.84438324 18.00850582 C405.06186284 18.0131123 403.27934623 18.01946351 401.49683762 18.0274148 C396.58801482 18.04416607 391.67950171 18.0358355 386.77067757 18.02346992 C381.48089335 18.01444541 376.19116359 18.02837622 370.90139008 18.03938961 C360.53455181 18.05720725 350.16782915 18.05332041 339.80098629 18.04173905 C331.37814571 18.03271775 322.95533761 18.03147507 314.53249359 18.03583431 C313.33523439 18.03644724 312.13797518 18.03706018 310.9044354 18.03769168 C308.47248045 18.03897054 306.04052551 18.04026739 303.60857058 18.04158205 C280.78621519 18.05299735 257.96392401 18.03985923 235.14157915 18.01838058 C215.54476033 18.00050876 195.94803628 18.0036126 176.35121918 18.02205563 C153.6123918 18.04344555 130.87362073 18.05189863 108.1347847 18.03960657 C105.7116089 18.03833233 103.28843308 18.03707485 100.86525726 18.03583431 C99.67290443 18.03521721 98.48055159 18.03460011 97.25206685 18.03396431 C88.83608862 18.03050577 80.420146 18.03635059 72.00417328 18.04575253 C61.75256275 18.05695304 51.50107477 18.05397354 41.24947834 18.03262955 C36.01559768 18.02209288 30.7819216 18.01804175 25.5480423 18.03122616 C20.7614216 18.04310183 15.97519609 18.03666762 11.18861151 18.01531595 C9.4524708 18.01082933 7.71629705 18.013162 5.9801774 18.0228191 C3.62850274 18.03490179 1.27819942 18.02259269 -1.0734024 18.00393581 C-2.38202869 18.0032864 -3.69065498 18.002637 -5.03893661 18.00196791 C-8.8394484 17.41783115 -10.02004004 16.53575824 -12.30112457 13.50057125 C-12.86753082 11.28182125 -12.86753082 11.28182125 -12.86362457 9.00057125 C-12.88553864 8.24775875 -12.9074527 7.49494625 -12.93003082 6.71932125 C-11.17360414 0.52273519 -5.59885935 0.00046278 0 0 Z " fill="#7D8F9F" transform="translate(48.301124572753906,136.49942874908447)"/>
<path d="M0 0 C0.73279442 -0.00581376 1.46558885 -0.01162753 2.22058916 -0.01761746 C4.68964639 -0.03227953 7.15771913 -0.01830402 9.62677002 -0.00457001 C11.40929042 -0.00917649 13.19180703 -0.01552769 14.97431564 -0.02347898 C19.88313844 -0.04023025 24.79165155 -0.03189968 29.70047569 -0.01953411 C34.99025991 -0.01050959 40.27998967 -0.0244404 45.56976318 -0.0354538 C55.93660145 -0.05327144 66.30332411 -0.0493846 76.67016697 -0.03780323 C85.09300755 -0.02878193 93.51581565 -0.02753926 101.93865967 -0.0318985 C103.73454847 -0.0328179 103.73454847 -0.0328179 105.56671786 -0.03375587 C107.99867281 -0.03503473 110.43062775 -0.03633158 112.86258268 -0.03764623 C135.68493806 -0.04906154 158.50722925 -0.03592342 181.32957411 -0.01444477 C200.92639292 0.00342706 220.52311698 0.00032322 240.11993408 -0.01811981 C262.85876146 -0.03950974 285.59753253 -0.04796282 308.33636856 -0.03567076 C310.75954436 -0.03439652 313.18272018 -0.03313903 315.605896 -0.0318985 C317.39442525 -0.03097285 317.39442525 -0.03097285 319.21908641 -0.03002849 C327.63506464 -0.02656996 336.05100726 -0.03241477 344.46697998 -0.04181671 C354.71859051 -0.05301723 364.97007849 -0.05003772 375.22167492 -0.02869374 C380.45555558 -0.01815707 385.68923166 -0.01410594 390.92311096 -0.02729034 C395.70973166 -0.03916602 400.49595717 -0.0327318 405.28254175 -0.01138014 C407.01868246 -0.00689351 408.75485621 -0.00922618 410.49097586 -0.01888329 C412.84265052 -0.03096597 415.19295384 -0.01865688 417.54455566 0 C419.5074951 0.00097411 419.5074951 0.00097411 421.51008987 0.00196791 C425.30979213 0.58598024 426.49652061 1.46367366 428.77227783 4.50336456 C429.26837158 6.75727081 429.26837158 6.75727081 429.20977783 9.06586456 C429.20784424 10.21248566 429.20784424 10.21248566 429.20587158 11.38227081 C428.6698477 14.00444167 427.86947426 14.8798878 425.77227783 16.50336456 C422.23834122 17.68134343 419.44927386 17.63244847 415.71724892 17.63758564 C414.99097306 17.63993787 414.26469719 17.6422901 413.51641297 17.64471361 C411.06381412 17.65141178 408.61126814 17.65094514 406.15866089 17.65053558 C404.39009501 17.65383368 402.62152988 17.65755913 400.85296571 17.66167706 C395.97812053 17.67171101 391.10328766 17.67541608 386.22843361 17.67806637 C380.97680257 17.68196519 375.72518132 17.69154369 370.47355652 17.70027924 C357.78502084 17.72005367 345.09648435 17.73011025 332.40793711 17.73900703 C326.4373768 17.74338757 320.46681738 17.74875491 314.49625778 17.7539959 C294.65783434 17.77100773 274.81941145 17.78550356 254.98098183 17.79274464 C249.8313357 17.79465462 244.68168957 17.79657494 239.53204346 17.79853058 C238.25207778 17.79901432 236.9721121 17.79949806 235.65335958 17.79999646 C214.90258391 17.80830297 194.15186578 17.83365057 173.40111525 17.86611126 C152.11269135 17.89914252 130.82429674 17.91718976 109.53584707 17.92038888 C97.57662284 17.92255742 85.61748255 17.93135653 73.65828323 17.95685005 C63.47696242 17.97850321 53.29574592 17.98663402 43.11440469 17.97688327 C37.91684895 17.97232316 32.7195087 17.97432382 27.52198219 17.99364471 C22.76736333 18.01116713 18.01311892 18.01036816 13.25849669 17.99474742 C11.53508572 17.99235467 9.81164956 17.99678045 8.0882773 18.00857607 C5.75138773 18.02358489 3.41584399 18.0141005 1.07898903 17.99834919 C-0.870524 17.9998144 -0.870524 17.9998144 -2.85942113 18.00130922 C-6.79415175 17.41962781 -8.45724029 16.3072339 -11.22772217 13.50336456 C-11.85662842 11.28461456 -11.85662842 11.28461456 -11.79022217 9.00336456 C-11.79151123 8.25055206 -11.79280029 7.49773956 -11.79412842 6.72211456 C-10.1989182 0.47329108 -5.74689203 0.00285191 0 0 Z " fill="#7D8F9F" transform="translate(47.22772216796875,101.49663543701172)"/>
<path d="M0 0 C5.43740203 0.40959714 8.50816498 4.14830628 12.1875 7.8125 C13.34254599 8.80534804 14.50793438 9.78641118 15.6875 10.75 C16.5125 11.430625 17.3375 12.11125 18.1875 12.8125 C18.87457031 12.11382812 19.56164062 11.41515625 20.26953125 10.6953125 C21.17058594 9.78523438 22.07164062 8.87515625 23 7.9375 C23.89332031 7.03257812 24.78664063 6.12765625 25.70703125 5.1953125 C29.01319165 2.01931589 31.06764966 0.51435245 35.625 0.4375 C38.76026656 0.5241659 39.97145358 0.67747099 42.6875 2.375 C44.68883412 5.62716794 45.12061096 7.99982499 45.1875 11.8125 C42.59423362 17.47141215 37.63473098 21.35144192 33.10546875 25.46484375 C30.03951429 28.38939151 27.87493003 30.45531242 27.2578125 34.7578125 C27.23460937 35.76585937 27.21140625 36.77390625 27.1875 37.8125 C27.868125 37.85375 28.54875 37.895 29.25 37.9375 C34.88747592 39.61674815 38.7406794 43.65528108 41.625 48.6875 C42.140625 49.71875 42.65625 50.75 43.1875 51.8125 C46.57671765 52.29046659 49.12760763 52.54925445 52.02929688 50.53222656 C53.91906123 48.73377004 55.68797083 46.87258529 57.4375 44.9375 C58.64912395 43.64663482 59.86259506 42.35750032 61.078125 41.0703125 C61.60438477 40.4942627 62.13064453 39.91821289 62.67285156 39.32470703 C65.25957615 36.74215189 66.91146262 35.84317082 70.5625 35.4375 C74.7509385 35.87078674 76.24990039 36.87490039 79.1875 39.8125 C80.76175266 42.96100532 81.15902421 45.46410209 80.1875 48.8125 C77.49626264 52.45976213 74.40778884 55.63114384 71.1875 58.8125 C70.59582031 59.40546875 70.00414062 59.9984375 69.39453125 60.609375 C68.99621094 61.00640625 68.59789062 61.4034375 68.1875 61.8125 C69.7130906 65.46391356 71.91230909 67.71368112 74.75 70.4375 C80.06945252 75.56119666 80.06945252 75.56119666 80.5 80.125 C80.13094069 84.4798999 79.46671697 85.95369546 76.1875 88.8125 C72.57424613 89.8636284 70.36440808 90.35383762 66.89453125 88.7578125 C62.56216571 85.64451085 59.1125141 81.66949354 55.53515625 77.73046875 C52.61060849 74.66451429 50.54468758 72.49993003 46.2421875 71.8828125 C45.23414063 71.85960937 44.22609375 71.83640625 43.1875 71.8125 C43.0225 72.6375 42.8575 73.4625 42.6875 74.3125 C40.11455177 80.31604588 35.69104588 84.73955177 29.6875 87.3125 C28.8625 87.4775 28.0375 87.6425 27.1875 87.8125 C28.40463432 94.42221552 31.30915735 97.48037971 36.1875 101.9375 C44.07285377 109.23699415 44.07285377 109.23699415 45.1875 113.8125 C45.11395349 118.00465118 44.84065664 120.06329092 42.0625 123.25 C38.26960214 125.31135753 36.4575097 125.6086035 32.1875 124.8125 C29.20684422 122.77997663 26.71738628 120.37414217 24.1875 117.8125 C23.65382813 117.29171875 23.12015625 116.7709375 22.5703125 116.234375 C21.42652756 115.10997625 20.30405294 113.96394522 19.1875 112.8125 C15.79334384 114.26713835 13.70725838 116.13525672 11.1875 118.8125 C5.63322233 124.71392002 5.63322233 124.71392002 1.15234375 124.89453125 C-1.74476891 124.50936598 -4.17008806 124.16479042 -6.75 122.75 C-8.4742894 119.60570757 -9.25185543 116.34590775 -8.8125 112.8125 C-5.65428396 107.09800514 -1.08743017 103.02082379 3.67382812 98.66796875 C7.27863492 95.22346693 8.97510409 93.03586617 9.1875 87.8125 C8.32125 87.585625 7.455 87.35875 6.5625 87.125 C-0.36960616 84.42918094 -3.63783758 80.28392725 -6.8125 73.8125 C-6.8125 73.1525 -6.8125 72.4925 -6.8125 71.8125 C-10.57512629 71.8125 -12.79034336 71.99761966 -15.77734375 74.37890625 C-17.8491714 76.47534968 -19.84448377 78.61827501 -21.8125 80.8125 C-28.70728438 88.49978833 -28.70728438 88.49978833 -33.63671875 89.89453125 C-38.28706662 89.77441156 -40.60214166 88.02285834 -43.8125 84.8125 C-44.70310112 81.65800443 -44.61770088 78.98058205 -43.8125 75.8125 C-41.16806649 72.10053903 -38.02689197 69.02689197 -34.8125 65.8125 C-33.78586243 64.49956699 -32.77473869 63.17333595 -31.8125 61.8125 C-32.59496094 61.04164063 -33.37742187 60.27078125 -34.18359375 59.4765625 C-35.20586057 58.46367427 -36.22798881 57.45064616 -37.25 56.4375 C-38.0244043 55.67566406 -38.0244043 55.67566406 -38.81445312 54.8984375 C-42.37215791 51.36398569 -43.71548177 50.01552604 -44.125 44.9375 C-44.09595157 41.73636325 -43.97402336 41.02248037 -41.9375 38.375 C-38.3835117 35.76177331 -36.23777679 35.38699262 -31.8125 35.8125 C-26.38369349 38.94248775 -22.51994108 43.03276147 -18.40039062 47.65429688 C-14.78192212 51.48143198 -12.26924985 52.5734684 -6.8125 52.8125 C-6.60625 52.131875 -6.4 51.45125 -6.1875 50.75 C-3.56832351 45.15448658 0.50725073 40.42234426 6.1875 37.8125 C7.1775 37.8125 8.1675 37.8125 9.1875 37.8125 C9.1875 32.72568931 8.17727727 30.37923202 4.625 26.69921875 C3.16075862 25.28387352 1.68099865 23.88443732 0.1875 22.5 C-1.29340858 21.08906563 -2.77266129 19.67639057 -4.25 18.26171875 C-4.90871094 17.64643311 -5.56742187 17.03114746 -6.24609375 16.3972168 C-8.36177179 14.25680748 -8.77769782 13.06771601 -9.1875 10.0625 C-8.5036593 4.13588062 -5.78492531 1.23285294 0 0 Z M11.75 56.375 C9.55728113 59.79564143 9.55742307 61.82201279 10.1875 65.8125 C12.63348887 69.19371991 14.08046559 70.58186783 18.1875 71.4375 C22.2618356 70.58868008 23.73155875 69.13524404 26.1875 65.8125 C27.02083333 62.8125 27.02083333 62.8125 26.1875 59.8125 C24.25057631 56.79216263 24.25057631 56.79216263 21.1875 54.8125 C17.19701279 54.18242307 15.17064143 54.18228113 11.75 56.375 Z " fill="#88D0EF" transform="translate(396.8125,383.1875)"/>
<path d="M0 0 C5.27947561 1.07379165 7.97929816 3.99525169 11.6875 7.75 C12.22117188 8.27078125 12.75484375 8.7915625 13.3046875 9.328125 C14.44847244 10.45252375 15.57094706 11.59855478 16.6875 12.75 C20.08215355 11.29189378 22.21001713 9.41233272 24.75 6.75 C30.35447143 0.89811429 30.35447143 0.89811429 35.0625 0.375 C39.37970137 0.82160704 40.88100176 1.44823737 43.6875 4.75 C44.68512864 7.49202023 45.14507363 9.86060247 44.6875 12.75 C41.51140792 18.46070744 36.96685708 22.53762903 32.20117188 26.89453125 C28.59636508 30.33903307 26.89989591 32.52663383 26.6875 37.75 C27.55375 37.976875 28.42 38.20375 29.3125 38.4375 C36.24460616 41.13331906 39.51283758 45.27857275 42.6875 51.75 C42.6875 52.41 42.6875 53.07 42.6875 53.75 C46.45012629 53.75 48.66534336 53.56488034 51.65234375 51.18359375 C53.7241714 49.08715032 55.71948377 46.94422499 57.6875 44.75 C64.58363959 37.06120069 64.58363959 37.06120069 69.51171875 35.671875 C73.20237144 35.76266596 74.8232146 36.45857168 77.6875 38.75 C80.24955842 42.59308764 80.36116765 44.1840304 79.6875 48.75 C77.66810454 51.73938598 75.24871292 54.22053765 72.6875 56.75 C72.16671875 57.28367187 71.6459375 57.81734375 71.109375 58.3671875 C69.98497625 59.51097244 68.83894522 60.63344706 67.6875 61.75 C69.2130906 65.40141356 71.41230909 67.65118112 74.25 70.375 C79.58803162 75.51659205 79.58803162 75.51659205 80 80.625 C79.97095157 83.82613675 79.84902336 84.54001963 77.8125 87.1875 C74.2585117 89.80072669 72.11277679 90.17550738 67.6875 89.75 C62.00900206 86.49834615 57.92686589 82.05888478 53.54296875 77.26367188 C50.09846693 73.65886508 47.91086617 71.96239591 42.6875 71.75 C42.58953125 72.48992187 42.4915625 73.22984375 42.390625 73.9921875 C40.98950282 79.48770004 36.41478634 83.49379175 31.9375 86.75 C29.6875 87.75 29.6875 87.75 26.6875 87.75 C27.91621156 94.09432765 30.42005388 97.07627327 35.125 101.375 C44.41072337 110.03758902 44.41072337 110.03758902 45 115.8125 C44.69185109 118.70909977 44.31120447 120.35717236 42.6875 122.75 C39.56702306 124.83031796 37.60656585 125.34793895 33.875 125.265625 C29.51901633 124.23885742 26.71444894 120.87375967 23.6875 117.75 C23.15511719 117.22921875 22.62273437 116.7084375 22.07421875 116.171875 C20.92819543 115.04844932 19.80469038 113.90210258 18.6875 112.75 C15.03608644 114.2755906 12.78631888 116.47480909 10.0625 119.3125 C4.92090795 124.65053162 4.92090795 124.65053162 -0.1875 125.0625 C-3.17338441 125.00830972 -4.15838384 124.84879241 -6.75 123.1875 C-8.83108903 119.94100111 -9.24499957 117.59752461 -9.3125 113.75 C-6.71923362 108.09108785 -1.75973098 104.21105808 2.76953125 100.09765625 C5.83548571 97.17310849 8.00006997 95.10718758 8.6171875 90.8046875 C8.64039063 89.79664063 8.66359375 88.78859375 8.6875 87.75 C8.11 87.63914062 7.5325 87.52828125 6.9375 87.4140625 C1.53423391 85.81934855 -2.99349258 81.81244837 -5.8125 77 C-7.3125 73.75 -7.3125 73.75 -7.3125 71.75 C-13.92289113 72.96881731 -17.02224176 75.88648069 -21.5 80.75 C-22.69714174 82.02524403 -23.89882028 83.2962476 -25.10546875 84.5625 C-25.88700317 85.40748047 -25.88700317 85.40748047 -26.68432617 86.26953125 C-29.42957323 88.7657343 -31.61884253 89.69219521 -35.3125 90 C-38.27825126 89.75285406 -39.87260719 89.40564155 -42.3125 87.75 C-44.39281796 84.62952306 -44.91043895 82.66906585 -44.828125 78.9375 C-43.80135742 74.58151633 -40.43625967 71.77694894 -37.3125 68.75 C-36.79171875 68.21761719 -36.2709375 67.68523437 -35.734375 67.13671875 C-34.61094932 65.99069543 -33.46460258 64.86719038 -32.3125 63.75 C-33.8380906 60.09858644 -36.03730909 57.84881888 -38.875 55.125 C-44.16795353 50.02682716 -44.16795353 50.02682716 -44.6875 45.4375 C-44.3125 41.75 -44.3125 41.75 -42.1875 38.875 C-38.92421917 36.46300982 -37.36662923 35.66891742 -33.3125 35.75 C-26.93938847 38.82667453 -22.82272337 43.04830453 -18.11914062 48.23632812 C-14.69206069 51.85311405 -12.53660142 53.53789363 -7.3125 53.75 C-7.065 52.863125 -6.8175 51.97625 -6.5625 51.0625 C-4.04024541 44.37852533 0.47033523 40.91241065 6.6875 37.75 C7.3475 37.75 8.0075 37.75 8.6875 37.75 C7.47036568 31.14028448 4.56584265 28.08212029 -0.3125 23.625 C-8.17534196 16.3463451 -8.17534196 16.3463451 -9.3125 11.75 C-9.23017236 7.79827334 -8.55006022 6.071405 -6.1875 2.875 C-3.3125 0.75 -3.3125 0.75 0 0 Z M9.6875 59.75 C8.85416667 62.75 8.85416667 62.75 9.6875 65.75 C12.31961465 69.41900829 13.77604326 70.59009531 18.25 71.375 C21.77883323 71.03624468 21.77883323 71.03624468 24.125 68.625 C25.97805839 65.21537255 26.40338388 63.56804737 25.6875 59.75 C23.23155875 56.42725596 21.7618356 54.97381992 17.6875 54.125 C13.6131644 54.97381992 12.14344125 56.42725596 9.6875 59.75 Z " fill="#88D0EF" transform="translate(132.3125,365.25)"/>
<path d="M0 0 C2.81005071 2.27841949 3.84898818 3.54696453 5 7 C5.0942399 8.44472336 5.135289 9.89328555 5.1418457 11.34106445 C5.14888016 12.21660477 5.15591461 13.09214508 5.16316223 13.99421692 C5.16732651 14.94100815 5.17149078 15.88779938 5.17578125 16.86328125 C5.19900917 18.88607777 5.22312764 20.90886423 5.24804688 22.93164062 C5.28291144 26.10626674 5.31236341 29.28052954 5.32592773 32.45532227 C5.40781765 48.49944563 5.68066407 62.83297847 16 76 C16.61875 76.9075 17.2375 77.815 17.875 78.75 C23.62182977 84.83487858 30.91937008 87.91629746 39.25 88.375 C46.08506884 88.19974182 53.01675352 85.79653335 58.5 81.6875 C61.78516758 78.15594485 63.86396469 74.92475925 64.09375 69.984375 C63.7215534 65.10859952 62.23294492 61.75720625 59 58 C54.61132572 55.07421715 51.22608581 54.36926551 46 55 C42.27425243 56.42598969 38.98238151 58.16646417 35.9375 60.75 C32.84516921 62.74505212 30.57970576 62.50241484 27 62 C24.00173979 59.71871506 22.38755345 58.03347588 21.0625 54.5 C20.96195166 50.47806625 21.84546386 48.27546012 24.56640625 45.26953125 C31.98729312 38.23842834 40.77451289 34.87238082 51 35 C58.26316659 35.62671391 63.92327188 38.06586327 70 42 C70.886875 42.556875 71.77375 43.11375 72.6875 43.6875 C79.11910484 50.11910484 83.17349641 58.59491245 83.38085938 67.70874023 C83.34855644 78.96227665 81.22208154 86.61261418 73.3359375 94.89453125 C62.60447126 104.56720735 50.65501792 108.53147346 36.3125 107.875 C26.47102069 107.28606648 17.87059028 104.04022045 10 98 C9.21109375 97.443125 9.21109375 97.443125 8.40625 96.875 C-4.28339622 87.18472471 -11.22459885 70.60330623 -13.72039795 55.29049683 C-14.63605934 47.78940907 -14.43759008 40.16365877 -14.39111328 32.62011719 C-14.37488682 29.47808375 -14.39111088 26.3373094 -14.41015625 23.1953125 C-14.40817611 21.18228885 -14.40433719 19.16926598 -14.3984375 17.15625 C-14.40451019 16.22494263 -14.41058289 15.29363525 -14.4168396 14.33410645 C-14.36089975 9.15618565 -13.94047339 5.45725059 -11 1 C-7.17488966 -1.37777129 -4.26298003 -1.26982384 0 0 Z " fill="#88D0EF" transform="translate(429,206)"/>
<path d="M0 0 C2.81005071 2.27841949 3.84898818 3.54696453 5 7 C5.10078486 8.4445063 5.1482645 9.89310366 5.16113281 11.34106445 C5.17074036 12.21660477 5.1803479 13.09214508 5.19024658 13.99421692 C5.19449646 14.94100815 5.19874634 15.88779938 5.203125 16.86328125 C5.20882507 17.84685104 5.21452515 18.83042084 5.22039795 19.84379578 C5.2298534 21.93271815 5.23638409 24.02165548 5.24023438 26.1105957 C5.24984646 29.26215968 5.28082507 32.41304486 5.3125 35.56445312 C5.41903308 55.67187397 2.61295468 72.67046702 -10 89 C-10.42152344 89.57492187 -10.84304687 90.14984375 -11.27734375 90.7421875 C-18.8021342 100.52188148 -30.45669929 105.9396472 -42.4453125 107.72265625 C-57.45342918 109.35197779 -69.9085098 104.52306747 -81.5625 95.25 C-87.86767502 89.72599711 -91.58334425 82.63166156 -92.3359375 74.265625 C-92.58472367 63.20967718 -90.79842364 54.61087666 -83.76953125 45.8203125 C-76.3875656 38.22650237 -67.41614114 35.16533557 -57 35 C-47.6294428 35.60153363 -39.47830244 39.08621154 -32.875 45.875 C-30.33266799 50.11222001 -30.29124688 52.11747848 -31 57 C-33.47951971 60.22337562 -35.55025553 61.75248265 -39.5625 62.4375 C-43.96752975 61.87685985 -46.41392245 59.99293749 -49.94921875 57.41015625 C-53.8834791 54.70488389 -57.33730215 54.61144185 -62 55 C-67.34051095 57.17241123 -70.10761921 59.45066674 -72.40234375 64.78515625 C-73.46805183 68.73454501 -73.21361072 72.11355616 -72 76 C-67.98465479 82.73541777 -61.26397989 85.57867337 -54 88 C-45.00350662 89.02385466 -37.20436192 86.77646542 -29.6875 81.8125 C-26.22532092 78.18928933 -23.6070546 74.26476158 -21 70 C-20.51039795 69.2280127 -20.0207959 68.45602539 -19.51635742 67.66064453 C-12.60573967 55.53507502 -14.53623758 39.88023648 -14.48876953 26.44677734 C-14.47306591 23.37314961 -14.4400939 20.30003539 -14.40625 17.2265625 C-14.40927124 16.28898102 -14.41229248 15.35139954 -14.41540527 14.38540649 C-14.35582446 9.18947322 -13.95482457 5.4723355 -11 1 C-7.17488966 -1.37777129 -4.26298003 -1.26982384 0 0 Z " fill="#88D0EF" transform="translate(92,206)"/>
<path d="M0 0 C0.639375 -0.01289063 1.27875 -0.02578125 1.9375 -0.0390625 C5.39300726 1.07350613 6.78102872 2.75739597 9 5.625 C9.73885917 9.12506789 9.67699425 12.56255945 9.62890625 16.12890625 C9.63131821 17.16200424 9.63373016 18.19510223 9.63621521 19.25950623 C9.63523594 21.45258406 9.62182348 23.64568635 9.59692383 25.83862305 C9.56314821 29.1244394 9.5761281 32.4074803 9.59570312 35.69335938 C9.57352424 68.26136432 0.24165017 98.53419175 -21 123.625 C-22.02867188 124.8625 -22.02867188 124.8625 -23.078125 126.125 C-29.28891615 133.43181311 -29.28891615 133.43181311 -34.875 134.0625 C-38.32496921 133.97355052 -38.9910696 133.6316503 -41.9375 131.4375 C-44.04021316 128.57016387 -44.91190146 127.14894176 -45 123.625 C-43.73813598 119.59496308 -41.93862914 117.24110466 -39 114.25 C-18.57913694 92.08909555 -10.07408778 64.32915855 -9.76171875 34.609375 C-9.75277084 33.76962128 -9.74382294 32.92986755 -9.73460388 32.06466675 C-9.70530605 28.6199582 -9.68535567 25.17579599 -9.69458008 21.73095703 C-9.69719294 19.168926 -9.66921017 16.60866811 -9.63671875 14.046875 C-9.64692551 13.27293396 -9.65713226 12.49899292 -9.66764832 11.70159912 C-9.59389464 7.64382345 -9.1723343 5.83836296 -6.58911133 2.64013672 C-4.08043727 0.6876053 -3.10571218 -0.06261517 0 0 Z " fill="#88D0EF" transform="translate(150,215.375)"/>
<path d="M0 0 C0.639375 -0.01289063 1.27875 -0.02578125 1.9375 -0.0390625 C5.29877124 1.04316498 6.79630278 2.90220767 9 5.625 C9.47372813 8.57852284 9.65377455 10.96216453 9.6015625 13.90625 C9.60825455 14.70835403 9.61494659 15.51045807 9.62184143 16.33686829 C9.63504412 18.04814964 9.63804007 19.75953523 9.63168335 21.47085571 C9.62049918 25.91240057 9.70020309 30.35221529 9.77734375 34.79296875 C9.79116592 35.65927414 9.8049881 36.52557953 9.81922913 37.4181366 C10.3670507 66.77985836 19.79010007 90.82811208 38.3125 113.44921875 C39.034375 114.33222656 39.75625 115.21523438 40.5 116.125 C41.47453125 117.28515625 41.47453125 117.28515625 42.46875 118.46875 C44.01372643 120.64432906 44.72445354 121.98611271 45 124.625 C42.76119403 131.11753731 42.76119403 131.11753731 39 133.625 C35.99112055 133.9647122 33.90284527 134.17465117 31 133.625 C28.4375 131.5625 28.4375 131.5625 26 128.625 C24.91992219 127.62148466 23.83628294 126.6217951 22.75 125.625 C-0.4745256 102.14966959 -9.57265874 67.75371023 -9.59570312 35.69335938 C-9.58615601 34.09077271 -9.58615601 34.09077271 -9.57641602 32.45581055 C-9.56229003 29.13818768 -9.5970983 25.82325693 -9.63476562 22.50585938 C-9.63571479 20.38020765 -9.63386896 18.2545524 -9.62890625 16.12890625 C-9.64216446 15.14563858 -9.65542267 14.16237091 -9.66908264 13.14930725 C-9.6048137 8.45168434 -9.54075007 6.323818 -6.58959961 2.51000977 C-4.09240969 0.69226645 -3.02859127 -0.06106031 0 0 Z " fill="#88D0EF" transform="translate(362,215.375)"/>
<path d="M0 0 C0.87818893 -0.00960754 1.75637787 -0.01921509 2.66117859 -0.02911377 C3.61321671 -0.03336365 4.56525482 -0.03761353 5.54614258 -0.04199219 C6.52553299 -0.04769226 7.5049234 -0.05339233 8.51399231 -0.05926514 C10.59118568 -0.06872443 12.66839412 -0.0752528 14.74560547 -0.07910156 C17.91050817 -0.08877499 21.07475265 -0.11977646 24.23950195 -0.15136719 C26.25837831 -0.15790048 28.27725931 -0.16314967 30.29614258 -0.16699219 C31.23805954 -0.17933899 32.1799765 -0.19168579 33.1504364 -0.20440674 C39.38901324 -0.18346307 44.62166411 0.40175317 49.49536133 4.69628906 C54.14698186 10.96795674 54.45913183 15.39559475 53.75317383 23.16113281 C52.08625855 28.54288784 48.60389589 31.47775465 43.75317383 34.16113281 C41.0087078 35.07595482 39.31764083 35.30114101 36.48461914 35.33813477 C35.19748016 35.35738762 35.19748016 35.35738762 33.88433838 35.37702942 C32.4968338 35.38810982 32.4968338 35.38810982 31.08129883 35.39941406 C30.12551941 35.40748581 29.16973999 35.41555756 28.18499756 35.4238739 C26.16086639 35.43770602 24.13671197 35.44843208 22.11254883 35.45629883 C19.02876117 35.47349017 15.94605175 35.5173818 12.86254883 35.56152344 C10.89380669 35.57165269 8.92505546 35.58016807 6.95629883 35.58691406 C6.0393927 35.60442215 5.12248657 35.62193024 4.17779541 35.63996887 C-1.83748683 35.61975745 -5.31196646 34.64991355 -10.24682617 31.16113281 C-14.35706133 26.82872279 -16.04804452 23.21520987 -16.62182617 17.28613281 C-16.46434905 12.05986077 -14.40505383 8.29183206 -10.71557617 4.64941406 C-7.03739766 1.50312901 -4.77417986 0.04212375 0 0 Z " fill="#FEBF42" transform="translate(422.246826171875,39.8388671875)"/>
<path d="M0 0 C3.34265205 1.20706879 3.94704566 1.92056849 6 5 C6.25726891 6.87285519 6.25726891 6.87285519 6.26742554 9.01634216 C6.27595551 9.83085846 6.28448547 10.64537476 6.29327393 11.48457336 C6.29236755 12.37452499 6.29146118 13.26447662 6.29052734 14.18139648 C6.30060318 15.59156036 6.30060318 15.59156036 6.31088257 17.0302124 C6.32991068 20.14389299 6.33378907 23.25735861 6.3359375 26.37109375 C6.34236163 28.53198842 6.34908969 30.69288221 6.35610962 32.85377502 C6.36809412 37.3856915 6.37178919 41.91753168 6.37060547 46.44946289 C6.37040211 52.26158401 6.39771655 58.07321707 6.43214989 63.88522243 C6.45436678 68.34872188 6.45844462 72.81210285 6.45738602 77.27565193 C6.45974937 79.41870876 6.46861394 81.5617685 6.48405075 83.70477104 C6.50360694 86.69993343 6.49791356 89.6940301 6.48583984 92.68920898 C6.49707886 93.57713638 6.50831787 94.46506378 6.51989746 95.37989807 C6.45849055 101.36275972 6.45849055 101.36275972 4.18447876 104.52333069 C1.08330505 106.6196697 -1.27797363 106.93470129 -5 107 C-8.57387602 105.41161066 -9.81089572 104.28365642 -12 101 C-12.20558515 97.97595338 -12.29368016 95.04324376 -12.29052734 92.01806641 C-12.29724457 91.09907059 -12.30396179 90.18007477 -12.31088257 89.23323059 C-12.32991089 86.18928652 -12.33378924 83.14556238 -12.3359375 80.1015625 C-12.34236218 77.98790394 -12.34909029 75.87424627 -12.35610962 73.7605896 C-12.36809457 69.32702574 -12.3717892 64.89353986 -12.37060547 60.45996094 C-12.37040224 54.77796984 -12.39770336 49.09647869 -12.43214989 43.41460609 C-12.45438456 39.04800112 -12.45844406 34.68151709 -12.45738602 30.3148613 C-12.45974719 28.22007906 -12.46859965 26.12529375 -12.48405075 24.03056717 C-12.50364055 21.10026271 -12.49790003 18.1710445 -12.48583984 15.24072266 C-12.49707886 14.37509201 -12.50831787 13.50946136 -12.51989746 12.61759949 C-12.47728897 8.54475502 -12.32064521 6.50738824 -10.09463501 2.98495483 C-6.71928922 -0.21364966 -4.58748066 -0.27524884 0 0 Z " fill="#88D0EF" transform="translate(303,260)"/>
<path d="M0 0 C2.69990662 1.79993774 4.5418865 3.083773 6 6 C6.11437038 8.96351495 6.16787439 11.90405386 6.17700195 14.8684082 C6.18357315 15.787258 6.19014435 16.70610779 6.19691467 17.65280151 C6.21667105 20.70212886 6.22831518 23.75140692 6.23828125 26.80078125 C6.24235678 27.84079977 6.2464323 28.88081829 6.25063133 29.95235252 C6.27150158 35.45643288 6.28579944 40.96048822 6.29516602 46.46459961 C6.30623534 52.15443656 6.34063875 57.84388295 6.38033772 63.53358173 C6.40646186 67.90446203 6.4148541 72.27524867 6.41844749 76.64620018 C6.42332394 78.74378282 6.43496789 80.841361 6.45348549 82.93886757 C6.47778837 85.87403079 6.47692805 88.80817554 6.4699707 91.7434082 C6.48278076 92.61060989 6.49559082 93.47781158 6.50878906 94.37129211 C6.47406938 98.38799907 6.2987048 100.50350503 4.18547058 104.01603699 C1.15414124 106.7678678 -0.94757583 107 -5 107 C-7.92346557 105.63571607 -9.72750909 104.27249091 -12 102 C-12.20948777 98.94800007 -12.29362509 95.98603986 -12.29052734 92.93212891 C-12.29724457 91.99216568 -12.30396179 91.05220245 -12.31088257 90.08375549 C-12.32993963 86.96463795 -12.33379072 83.8457347 -12.3359375 80.7265625 C-12.34236033 78.56423859 -12.3490883 76.40191556 -12.35610962 74.23959351 C-12.36810187 69.70170069 -12.37178847 65.16388411 -12.37060547 60.62597656 C-12.37040223 54.8059797 -12.3977009 48.98647089 -12.43214989 43.16658974 C-12.45436881 38.69879911 -12.45844454 34.23112682 -12.45738602 29.76328659 C-12.45974967 27.61743869 -12.46861592 25.47158791 -12.48405075 23.32579422 C-12.50360821 20.32573372 -12.49791272 17.32673714 -12.48583984 14.32666016 C-12.49707886 13.43716171 -12.50831787 12.54766327 -12.51989746 11.63121033 C-12.45816567 5.60606141 -12.45816567 5.60606141 -10.09463501 2.47958374 C-6.54458049 -0.02806219 -4.36764641 -0.42820063 0 0 Z " fill="#88D0EF" transform="translate(215,260)"/>
<path d="M0 0 C3.34265205 1.20706879 3.94704566 1.92056849 6 5 C6.49475024 9.27574594 6.41657492 13.57373268 6.4375 17.875 C6.48680664 19.65197266 6.48680664 19.65197266 6.53710938 21.46484375 C6.59095416 30.14853946 6.59095416 30.14853946 3.72265625 34.28125 C-0.08321123 36.68380623 -0.08321123 36.68380623 -3 36.625 C-3.639375 36.63789063 -4.27875 36.65078125 -4.9375 36.6640625 C-8.54199383 35.50352471 -9.80233036 34.11806119 -12 31 C-12.72121104 26.82155506 -12.651925 22.72956072 -12.5625 18.5 C-12.57345703 17.37207031 -12.58441406 16.24414062 -12.59570312 15.08203125 C-12.52291422 6.88114789 -12.52291422 6.88114789 -10.08984375 2.78125 C-6.64472047 -0.15515415 -4.48850127 -0.26931008 0 0 Z " fill="#87D0EE" transform="translate(303,207)"/>
<path d="M0 0 C2.69990662 1.79993774 4.5418865 3.083773 6 6 C6.32354067 10.0974993 6.32447392 14.20381123 6.375 18.3125 C6.41238281 19.45396484 6.44976562 20.59542969 6.48828125 21.77148438 C6.5766835 30.17460935 6.5766835 30.17460935 3.7265625 34.25390625 C-0.068249 36.68410788 -0.068249 36.68410788 -3 36.625 C-3.639375 36.63789063 -4.27875 36.65078125 -4.9375 36.6640625 C-8.57049325 35.49434876 -9.79486138 34.16258342 -12 31 C-12.72365339 26.63510654 -12.65169837 22.35161388 -12.5625 17.9375 C-12.57345703 16.75349609 -12.58441406 15.56949219 -12.59570312 14.34960938 C-12.52159638 5.62971514 -12.52159638 5.62971514 -10.08959961 2.69360352 C-6.63112108 -0.10946525 -4.44351739 -0.43563896 0 0 Z " fill="#87D0EE" transform="translate(215,207)"/>
<path d="M0 0 C1.18013672 -0.03222656 2.36027344 -0.06445312 3.57617188 -0.09765625 C11.93549519 -0.10711785 11.93549519 -0.10711785 14.99047852 1.87744141 C17.49675334 4.70147529 18.05994046 6.47654691 18.125 10.25 C16.95772981 13.95779941 16.06396505 15.23247218 13.0625 17.625 C8.95611524 18.4455259 4.80423603 18.22779893 0.625 18.1875 C-0.50744141 18.21134766 -1.63988281 18.23519531 -2.80664062 18.25976562 C-11.05394759 18.24518582 -11.05394759 18.24518582 -15.1875 15.34375 C-17.84874777 11.20931149 -17.62978742 9.47101196 -16.9375 4.625 C-12.53119527 -1.2152099 -6.73431019 -0.03665928 0 0 Z " fill="#50B86B" transform="translate(352.9375,48.375)"/>
<path d="M0 0 C1.18013672 -0.03222656 2.36027344 -0.06445312 3.57617188 -0.09765625 C11.93549519 -0.10711785 11.93549519 -0.10711785 14.99047852 1.87744141 C17.49675334 4.70147529 18.05994046 6.47654691 18.125 10.25 C16.95772981 13.95779941 16.06396505 15.23247218 13.0625 17.625 C8.95611524 18.4455259 4.80423603 18.22779893 0.625 18.1875 C-0.50744141 18.21134766 -1.63988281 18.23519531 -2.80664062 18.25976562 C-11.05394759 18.24518582 -11.05394759 18.24518582 -15.1875 15.34375 C-17.84874777 11.20931149 -17.62978742 9.47101196 -16.9375 4.625 C-12.53119527 -1.2152099 -6.73431019 -0.03665928 0 0 Z " fill="#2DB3CE" transform="translate(299.9375,48.375)"/>
</svg>
