<?xml version="1.0" encoding="UTF-8"?>
<svg version="1.1" xmlns="http://www.w3.org/2000/svg" width="512" height="512">
<path d="M0 0 C22.54086815 19.8643416 33.03499598 41.63441003 40.73046875 70.40625 C40.9423584 71.17340332 41.15424805 71.94055664 41.37255859 72.73095703 C42.35287665 76.40049112 42.81370127 79.62180953 42.73046875 83.40625 C38.482695 84.58112815 34.23191201 85.744727 29.98046875 86.90625 C28.77390625 87.24011719 27.56734375 87.57398437 26.32421875 87.91796875 C25.1640625 88.23378906 24.00390625 88.54960938 22.80859375 88.875 C21.20612793 89.31489258 21.20612793 89.31489258 19.57128906 89.76367188 C16.73046875 90.40625 16.73046875 90.40625 12.73046875 90.40625 C12.97476624 91.28803673 12.97476624 91.28803673 13.22399902 92.18763733 C14.94621109 98.42667573 16.62632713 104.67606313 18.28466797 110.93237305 C18.90492996 113.2515509 19.53513111 115.56809825 20.17626953 117.8815918 C26.42807745 140.48918919 29.87828685 162.42524992 19.04296875 184.15625 C15.667048 189.93263701 11.43842571 194.68254737 6.73046875 199.40625 C6.04210937 200.1178125 5.35375 200.829375 4.64453125 201.5625 C-5.43991126 211.30954481 -22.90195673 219.40625 -37.26953125 219.40625 C-36.90859375 220.58960938 -36.54765625 221.77296875 -36.17578125 222.9921875 C-32.5764645 235.10270911 -30.01687572 245.3152316 -35.26953125 257.40625 C-41.48948125 268.2960067 -51.0528786 272.8517132 -62.75 276.09375 C-64.58256269 276.56081023 -66.4250719 276.98863656 -68.26953125 277.40625 C-67.50769531 277.61378906 -66.74585938 277.82132812 -65.9609375 278.03515625 C-55.98256745 281.01247266 -48.62179295 285.19614325 -43.2421875 294.31640625 C-39.411832 302.54628654 -38.75649692 312.3283223 -40.95703125 321.16796875 C-41.89636452 323.41062694 -42.95381728 325.36321589 -44.26953125 327.40625 C-44.70523437 328.11265625 -45.1409375 328.8190625 -45.58984375 329.546875 C-49.5834402 335.43906648 -54.51448664 339.15456846 -61.26953125 341.40625 C-59.8014502 341.42026855 -59.8014502 341.42026855 -58.30371094 341.43457031 C-54.66539334 341.47450458 -51.02791834 341.54027134 -47.39013672 341.61376953 C-45.81700481 341.64195954 -44.24373178 341.66318398 -42.67041016 341.67724609 C-40.40584169 341.69870442 -38.14296621 341.74536348 -35.87890625 341.796875 C-35.17771667 341.79810364 -34.4765271 341.79933228 -33.75408936 341.80059814 C-30.55890335 341.89600447 -28.52525374 342.24082904 -25.82275391 343.98901367 C-23.67475671 347.33188074 -23.78359039 349.73425747 -23.80859375 353.69140625 C-23.80951019 354.38890488 -23.81042664 355.0864035 -23.81137085 355.80503845 C-23.8173971 357.27512443 -23.83311413 358.74519869 -23.85791016 360.21508789 C-23.89446732 362.46481545 -23.89892903 364.71289674 -23.8984375 366.96289062 C-23.97403651 377.96300788 -23.97403651 377.96300788 -26.26953125 381.40625 C-22.12383425 381.4942068 -17.97838113 381.54696153 -13.83203125 381.59375 C-12.66736328 381.61888672 -11.50269531 381.64402344 -10.30273438 381.66992188 C-2.48920579 381.73595169 5.16496844 381.69748105 11.16796875 376.15625 C14.99738398 369.41647919 15.03330923 362.90429227 15.04931641 355.33032227 C15.05936203 354.23690018 15.06940765 353.14347809 15.07975769 352.016922 C15.11053845 348.41883854 15.12761087 344.82082933 15.14453125 341.22265625 C15.16324697 338.72158675 15.18282069 336.22052353 15.20321655 333.71946716 C15.24926491 327.81943018 15.28668843 321.91938828 15.31988943 316.01926607 C15.36195485 308.6384285 15.41749037 301.25770239 15.47265625 293.87695312 C15.56937182 280.72010582 15.65277195 267.56322338 15.73046875 254.40625 C26.29046875 254.40625 36.85046875 254.40625 47.73046875 254.40625 C47.73046875 325.68625 47.73046875 396.96625 47.73046875 470.40625 C31.89046875 470.40625 16.05046875 470.40625 -0.26953125 470.40625 C-0.26953125 457.20625 -0.26953125 444.00625 -0.26953125 430.40625 C-5.35101563 430.45265625 -10.4325 430.4990625 -15.66796875 430.546875 C-18.9036665 430.56733381 -22.13928353 430.58659092 -25.375 430.6015625 C-30.5013096 430.62539495 -35.6273311 430.65346713 -40.75341797 430.70800781 C-44.89019536 430.75174267 -49.02666343 430.77544487 -53.16365433 430.78575897 C-54.73519377 430.79310112 -56.30671792 430.80743766 -57.87812424 430.82917023 C-69.20069452 430.97941193 -79.06562541 430.20930829 -87.73828125 422.109375 C-95.42319271 413.56187144 -96.56553207 405.19891923 -96.39453125 394.03125 C-96.38550781 392.91363281 -96.37648438 391.79601562 -96.3671875 390.64453125 C-96.34371471 387.89821538 -96.31087853 385.15234528 -96.26953125 382.40625 C-96.85444336 382.42719727 -97.43935547 382.44814453 -98.04199219 382.46972656 C-100.7009959 382.55305115 -103.3597248 382.60495897 -106.01953125 382.65625 C-106.93992187 382.68976563 -107.8603125 382.72328125 -108.80859375 382.7578125 C-109.69804687 382.77070313 -110.5875 382.78359375 -111.50390625 382.796875 C-112.32084961 382.81782227 -113.13779297 382.83876953 -113.97949219 382.86035156 C-117.25002712 382.21182331 -118.33907534 381.10801919 -120.26953125 378.40625 C-120.78710938 375.078125 -120.78710938 375.078125 -120.80078125 371.15625 C-120.80460815 370.46112305 -120.80843506 369.76599609 -120.81237793 369.04980469 C-120.81509305 367.58396959 -120.8077596 366.11808572 -120.79101562 364.65234375 C-120.76959544 362.41296025 -120.79082568 360.17678413 -120.81640625 357.9375 C-120.8137629 356.51040961 -120.80863775 355.08332121 -120.80078125 353.65625 C-120.79626953 352.36203125 -120.79175781 351.0678125 -120.78710938 349.734375 C-120.26953125 346.40625 -120.26953125 346.40625 -118.71191406 343.99121094 C-115.41437859 341.85130687 -112.47172167 341.8035537 -108.66015625 341.796875 C-107.93334656 341.78033875 -107.20653687 341.76380249 -106.45770264 341.74676514 C-104.14489256 341.69832639 -101.83273968 341.67692511 -99.51953125 341.65625 C-97.94788368 341.62808659 -96.37626666 341.59815863 -94.8046875 341.56640625 C-90.95968956 341.49256953 -87.11505553 341.44297052 -83.26953125 341.40625 C-84.08031128 341.01228027 -84.08031128 341.01228027 -84.9074707 340.61035156 C-85.6212085 340.2594043 -86.33494629 339.90845703 -87.0703125 339.546875 C-87.77583252 339.20172852 -88.48135254 338.85658203 -89.20825195 338.50097656 C-96.32350515 334.72213073 -100.43726292 328.9420751 -103.38671875 321.640625 C-105.63679428 313.39698543 -105.65012574 302.98806834 -101.55078125 295.375 C-95.44600184 285.99448529 -95.44600184 285.99448529 -92.26953125 284.40625 C-92.87796875 284.550625 -93.48640625 284.695 -94.11328125 284.84375 C-107.0792065 287.58947535 -119.9752811 288.40739353 -131.44140625 281.00390625 C-140.61335098 273.95254273 -144.37243663 262.45599408 -146.26953125 251.40625 C-146.26953125 250.08625 -146.26953125 248.76625 -146.26953125 247.40625 C-146.7940944 247.55924623 -147.31865755 247.71224247 -147.85911655 247.86987495 C-161.37233385 251.79967622 -174.93560312 255.44720735 -188.578125 258.8984375 C-190.57812084 259.40701964 -192.57803736 259.91591379 -194.57788086 260.4250946 C-199.86589269 261.77073217 -205.15479253 263.11284233 -210.44398117 264.45384598 C-220.33464328 266.96179817 -230.22408691 269.47454869 -240.11328125 271.98828125 C-241.19880217 272.26407202 -242.28432308 272.53986279 -243.40273857 272.82401085 C-256.56455604 276.16909455 -269.71650399 279.54755449 -282.84829521 283.0087204 C-285.07260862 283.59475287 -287.29734217 284.17916081 -289.52223206 284.76300049 C-290.93222804 285.13314983 -292.34221661 285.50332742 -293.75219727 285.87353516 C-294.426624 286.05059998 -295.10105074 286.22766479 -295.79591465 286.41009521 C-300.27770825 287.58842822 -304.75421609 288.78568225 -309.23022461 289.98583984 C-311.51268997 290.5862514 -313.79531272 291.18606506 -316.078125 291.78515625 C-317.06635254 292.05575363 -318.05458008 292.32635101 -319.07275391 292.60514832 C-328.47699898 295.04363183 -337.10401325 296.00091187 -345.8046875 291.06640625 C-383.29235104 265.81718754 -398.96220355 207.06581182 -407.1890564 165.55233765 C-410.58313538 148.09643419 -412.71108709 131.19113814 -412.26953125 113.40625 C-413.32269531 113.28507813 -414.37585938 113.16390625 -415.4609375 113.0390625 C-424.98361345 111.45683327 -432.91841482 105.77571283 -438.921875 98.3671875 C-444.740568 89.75019177 -448.36929958 77.81141679 -448.26953125 67.40625 C-427.15441793 61.9586939 -406.03695111 56.52030686 -384.91801453 51.08759308 C-382.21017301 50.39097963 -379.50236232 49.6942465 -376.79455566 48.99749756 C-366.46661479 46.34018361 -356.1381213 43.68503706 -345.80853462 41.03412724 C-341.20815084 39.85349375 -336.60798742 38.67201801 -332.00836182 37.48843384 C-327.64604833 36.36596971 -323.28311569 35.24594495 -318.91970444 34.12775612 C-317.30635167 33.71387294 -315.69321993 33.29912707 -314.08032608 32.88345909 C-311.86436847 32.31252887 -309.64762578 31.74475106 -307.43066406 31.17773438 C-306.18633606 30.85816772 -304.94200806 30.53860107 -303.65997314 30.20935059 C-300.5584673 29.47469085 -297.41349278 28.93024359 -294.26953125 28.40625 C-296.90953125 18.17625 -299.54953125 7.94625 -302.26953125 -2.59375 C-292.13924337 -5.97051263 -292.13924337 -5.97051263 -287.73730469 -7.12768555 C-286.75308533 -7.38772873 -285.76886597 -7.64777191 -284.75482178 -7.91569519 C-283.72326965 -8.18457047 -282.69171753 -8.45344574 -281.62890625 -8.73046875 C-280.5436969 -9.01477249 -279.45848755 -9.29907623 -278.34039307 -9.59199524 C-276.06166026 -10.1877013 -273.78249809 -10.78176712 -271.50292969 -11.37426758 C-268.01449498 -12.28256131 -264.5287269 -13.200636 -261.04296875 -14.11914062 C-258.82177065 -14.6985153 -256.60042158 -15.27731162 -254.37890625 -15.85546875 C-253.3392572 -16.13041672 -252.29960815 -16.40536469 -251.22845459 -16.68864441 C-250.25684387 -16.93923111 -249.28523315 -17.18981781 -248.28417969 -17.44799805 C-247.0091861 -17.78084053 -247.0091861 -17.78084053 -245.70843506 -18.1204071 C-243.26953125 -18.59375 -243.26953125 -18.59375 -238.26953125 -18.59375 C-235.62953125 -8.69375 -232.98953125 1.20625 -230.26953125 11.40625 C-227.02882812 10.56199463 -227.02882812 10.56199463 -223.72265625 9.70068359 C-198.91266154 3.23938455 -174.09607327 -3.19630827 -149.26953125 -9.59375 C-148.48159935 -9.79678993 -147.69366745 -9.99982986 -146.88185883 -10.20902252 C-138.161752 -12.45515765 -129.4384333 -14.68777092 -120.70825195 -16.89447021 C-118.4014148 -17.47873974 -116.09539991 -18.06626687 -113.7902832 -18.6572876 C-73.16689221 -29.06049159 -33.74667309 -27.89868046 0 0 Z " fill="#B5EAFE" transform="translate(456.26953125,33.59375)"/>
<path d="M0 0 C8.08372864 -0.91860553 15.27130541 2.34337048 21.78515625 6.984375 C29.42625373 13.48449412 33.85441146 20.50194411 37.08789062 29.90063477 C41.04566399 41.36724296 46.83271447 48.73375419 57.54296875 54.84375 C77.50442783 64.2373778 102.50452406 53.61705831 122.34765625 47.88671875 C127.94972348 46.27435657 133.56736716 44.8572771 139.25 43.5625 C145.87972872 42.02003422 152.45449782 40.36784138 159 38.5 C166.43226183 36.3791106 173.91260174 34.55453113 181.44287109 32.81567383 C186.57663233 31.61881386 191.59145847 30.2515326 196.625 28.6875 C206.77868544 25.75048355 215.50393327 26.07931088 225 31 C241.05978662 42.3711912 243.51477765 60.51138586 246.92578125 78.6953125 C248.05748007 87.24784553 248.05748007 87.24784553 245.53125 91.43359375 C243.17982427 93.75431056 240.84914711 95.32742376 238 97 C236.99324219 97.61230469 235.98648438 98.22460938 234.94921875 98.85546875 C225.89950782 103.84291226 213.50114396 109 203 109 C203.3609375 110.18335938 203.721875 111.36671875 204.09375 112.5859375 C207.69306675 124.69645911 210.25265553 134.9089816 205 147 C198.78005 157.8897567 189.21665265 162.4454632 177.51953125 165.6875 C175.68696856 166.15456023 173.84445935 166.58238656 172 167 C172.76183594 167.20753906 173.52367187 167.41507813 174.30859375 167.62890625 C184.2869638 170.60622266 191.6477383 174.78989325 197.02734375 183.91015625 C200.85769925 192.14003654 201.51303433 201.9220723 199.3125 210.76171875 C198.37316673 213.00437694 197.31571397 214.95696589 196 217 C195.56429687 217.70640625 195.12859375 218.4128125 194.6796875 219.140625 C190.68609105 225.03281648 185.75504461 228.74831846 179 231 C180.46808105 231.01401855 180.46808105 231.01401855 181.96582031 231.02832031 C185.60413791 231.06825458 189.24161291 231.13402134 192.87939453 231.20751953 C194.45252644 231.23570954 196.02579947 231.25693398 197.59912109 231.27099609 C199.86368956 231.29245442 202.12656504 231.33911348 204.390625 231.390625 C205.09181458 231.39185364 205.79300415 231.39308228 206.51544189 231.39434814 C209.7106279 231.48975447 211.74427751 231.83457904 214.44677734 233.58276367 C216.59477454 236.92563074 216.48594086 239.32800747 216.4609375 243.28515625 C216.46002106 243.98265488 216.45910461 244.6801535 216.4581604 245.39878845 C216.45213415 246.86887443 216.43641712 248.33894869 216.41162109 249.80883789 C216.37506393 252.05856545 216.37060222 254.30664674 216.37109375 256.55664062 C216.29549474 267.55675788 216.29549474 267.55675788 214 271 C218.145697 271.0879568 222.29115012 271.14071153 226.4375 271.1875 C227.60216797 271.21263672 228.76683594 271.23777344 229.96679688 271.26367188 C237.78032546 271.32970169 245.43449969 271.29123105 251.4375 265.75 C255.26691523 259.01022919 255.30284048 252.49804227 255.31884766 244.92407227 C255.32889328 243.83065018 255.3389389 242.73722809 255.34928894 241.610672 C255.3800697 238.01258854 255.39714212 234.41457933 255.4140625 230.81640625 C255.43277822 228.31533675 255.45235194 225.81427353 255.4727478 223.31321716 C255.51879616 217.41318018 255.55621968 211.51313828 255.58942068 205.61301607 C255.6314861 198.2321785 255.68702162 190.85145239 255.7421875 183.47070312 C255.83890307 170.31385582 255.9223032 157.15697338 256 144 C266.56 144 277.12 144 288 144 C288 215.28 288 286.56 288 360 C272.16 360 256.32 360 240 360 C240 346.8 240 333.6 240 320 C234.91851562 320.04640625 229.83703125 320.0928125 224.6015625 320.140625 C221.36586475 320.16108381 218.13024772 320.18034092 214.89453125 320.1953125 C209.76822165 320.21914495 204.64220015 320.24721713 199.51611328 320.30175781 C195.37933589 320.34549267 191.24286782 320.36919487 187.10587692 320.37950897 C185.53433748 320.38685112 183.96281333 320.40118766 182.39140701 320.42292023 C171.06883673 320.57316193 161.20390584 319.80305829 152.53125 311.703125 C144.84633854 303.15562144 143.70399918 294.79266923 143.875 283.625 C143.88402344 282.50738281 143.89304687 281.38976562 143.90234375 280.23828125 C143.92581654 277.49196538 143.95865272 274.74609528 144 272 C143.41508789 272.02094727 142.83017578 272.04189453 142.22753906 272.06347656 C139.56853535 272.14680115 136.90980645 272.19870897 134.25 272.25 C133.32960938 272.28351563 132.40921875 272.31703125 131.4609375 272.3515625 C130.57148438 272.36445313 129.68203125 272.37734375 128.765625 272.390625 C127.94868164 272.41157227 127.13173828 272.43251953 126.29003906 272.45410156 C123.01950413 271.80557331 121.93045591 270.70176919 120 268 C119.48242188 264.671875 119.48242188 264.671875 119.46875 260.75 C119.46300964 259.70730957 119.46300964 259.70730957 119.45715332 258.64355469 C119.4544382 257.17771959 119.46177165 255.71183572 119.47851562 254.24609375 C119.49993581 252.00671025 119.47870557 249.77053413 119.453125 247.53125 C119.45576835 246.10415961 119.4608935 244.67707121 119.46875 243.25 C119.47326172 241.95578125 119.47777344 240.6615625 119.48242188 239.328125 C120 236 120 236 121.55761719 233.58496094 C124.85515266 231.44505687 127.79780958 231.3973037 131.609375 231.390625 C132.33618469 231.37408875 133.06299438 231.35755249 133.81182861 231.34051514 C136.12463869 231.29207639 138.43679157 231.27067511 140.75 231.25 C142.32164757 231.22183659 143.89326459 231.19190863 145.46484375 231.16015625 C149.30984169 231.08631953 153.15447572 231.03672052 157 231 C156.45947998 230.73735352 155.91895996 230.47470703 155.36206055 230.20410156 C154.64832275 229.8531543 153.93458496 229.50220703 153.19921875 229.140625 C152.49369873 228.79547852 151.78817871 228.45033203 151.0612793 228.09472656 C143.9460261 224.31588073 139.83226833 218.5358251 136.8828125 211.234375 C134.63273697 202.99073543 134.61940551 192.58181834 138.71875 184.96875 C144.82352941 175.58823529 144.82352941 175.58823529 148 174 C147.3915625 174.144375 146.783125 174.28875 146.15625 174.4375 C133.19032475 177.18322535 120.29425015 178.00114353 108.828125 170.59765625 C99.65618027 163.54629273 95.89709462 152.04974408 94 141 C94 139.68 94 138.36 94 137 C92.35475342 137.48545288 92.35475342 137.48545288 90.67626953 137.98071289 C74.43004699 142.72182214 58.05964024 146.97348196 41.67333984 151.19799805 C37.62653053 152.24179248 33.58249663 153.29597056 29.53893852 154.35227871 C26.40061606 155.1701941 23.26042623 155.98074445 20.11966324 156.78923225 C18.6253974 157.17523231 17.13184195 157.56399359 15.63903427 157.95559502 C13.57231555 158.49701582 11.50318299 159.02798728 9.43310547 159.55639648 C8.25956512 159.86028793 7.08602478 160.16417938 5.87692261 160.47727966 C3 161 3 161 0 160 C1.5778125 158.824375 1.5778125 158.824375 3.1875 157.625 C14.86088284 147.5049302 16.79185277 128.8930133 17.85498047 114.30908203 C20.13524501 78.00143552 13.08347184 39.23750799 0.6640625 5.109375 C0 3 0 3 0 0 Z " fill="#DDE1E7" transform="translate(216,144)"/>
<path d="M0 0 C7.63445794 25.03011568 7.63445794 25.03011568 2 38 C-4.21995 48.8897567 -13.78334735 53.4454632 -25.48046875 56.6875 C-27.31303144 57.15456023 -29.15554065 57.58238656 -31 58 C-30.23816406 58.20753906 -29.47632813 58.41507812 -28.69140625 58.62890625 C-18.7130362 61.60622266 -11.3522617 65.78989325 -5.97265625 74.91015625 C-2.14230075 83.14003654 -1.48696567 92.9220723 -3.6875 101.76171875 C-4.62683327 104.00437694 -5.68428603 105.95696589 -7 108 C-7.65355469 109.05960938 -7.65355469 109.05960938 -8.3203125 110.140625 C-12.31390895 116.03281648 -17.24495539 119.74831846 -24 122 C-23.0212793 122.0093457 -22.04255859 122.01869141 -21.03417969 122.02832031 C-17.39586209 122.06825458 -13.75838709 122.13402134 -10.12060547 122.20751953 C-8.54747356 122.23570954 -6.97420053 122.25693398 -5.40087891 122.27099609 C-3.13631044 122.29245442 -0.87343496 122.33911348 1.390625 122.390625 C2.09181458 122.39185364 2.79300415 122.39308228 3.51544189 122.39434814 C6.7106279 122.48975447 8.74427751 122.83457904 11.44677734 124.58276367 C13.59477454 127.92563074 13.48594086 130.32800747 13.4609375 134.28515625 C13.46002106 134.98265488 13.45910461 135.6801535 13.4581604 136.39878845 C13.45213415 137.86887443 13.43641712 139.33894869 13.41162109 140.80883789 C13.37506393 143.05856545 13.37060222 145.30664674 13.37109375 147.55664062 C13.29549474 158.55675788 13.29549474 158.55675788 11 162 C15.145697 162.0879568 19.29115012 162.14071153 23.4375 162.1875 C24.60216797 162.21263672 25.76683594 162.23777344 26.96679688 162.26367188 C34.78032546 162.32970169 42.43449969 162.29123105 48.4375 156.75 C52.26691523 150.01022919 52.30284048 143.49804227 52.31884766 135.92407227 C52.32889328 134.83065018 52.3389389 133.73722809 52.34928894 132.610672 C52.3800697 129.01258854 52.39714212 125.41457933 52.4140625 121.81640625 C52.43277822 119.31533675 52.45235194 116.81427353 52.4727478 114.31321716 C52.51879616 108.41318018 52.55621968 102.51313828 52.58942068 96.61301607 C52.6314861 89.2321785 52.68702162 81.85145239 52.7421875 74.47070312 C52.83890307 61.31385582 52.9223032 48.15697338 53 35 C63.56 35 74.12 35 85 35 C85 106.28 85 177.56 85 251 C69.16 251 53.32 251 37 251 C37 237.8 37 224.6 37 211 C31.91851562 211.04640625 26.83703125 211.0928125 21.6015625 211.140625 C18.36586475 211.16108381 15.13024772 211.18034092 11.89453125 211.1953125 C6.76822165 211.21914495 1.64220015 211.24721713 -3.48388672 211.30175781 C-7.62066411 211.34549267 -11.75713218 211.36919487 -15.89412308 211.37950897 C-17.46566252 211.38685112 -19.03718667 211.40118766 -20.60859299 211.42292023 C-31.93116327 211.57316193 -41.79609416 210.80305829 -50.46875 202.703125 C-58.15366146 194.15562144 -59.29600082 185.79266923 -59.125 174.625 C-59.11597656 173.50738281 -59.10695313 172.38976562 -59.09765625 171.23828125 C-59.07418346 168.49196538 -59.04134728 165.74609528 -59 163 C-59.58491211 163.02094727 -60.16982422 163.04189453 -60.77246094 163.06347656 C-63.43146465 163.14680115 -66.09019355 163.19870897 -68.75 163.25 C-69.67039062 163.28351563 -70.59078125 163.31703125 -71.5390625 163.3515625 C-72.42851562 163.36445313 -73.31796875 163.37734375 -74.234375 163.390625 C-75.05131836 163.41157227 -75.86826172 163.43251953 -76.70996094 163.45410156 C-79.98049587 162.80557331 -81.06954409 161.70176919 -83 159 C-83.51757812 155.671875 -83.51757812 155.671875 -83.53125 151.75 C-83.5350769 151.05487305 -83.53890381 150.35974609 -83.54284668 149.64355469 C-83.5455618 148.17771959 -83.53822835 146.71183572 -83.52148438 145.24609375 C-83.50006419 143.00671025 -83.52129443 140.77053413 -83.546875 138.53125 C-83.54423165 137.10415961 -83.5391065 135.67707121 -83.53125 134.25 C-83.52673828 132.95578125 -83.52222656 131.6615625 -83.51757812 130.328125 C-83 127 -83 127 -81.44238281 124.58496094 C-78.14484734 122.44505687 -75.20219042 122.3973037 -71.390625 122.390625 C-70.66381531 122.37408875 -69.93700562 122.35755249 -69.18817139 122.34051514 C-66.87536131 122.29207639 -64.56320843 122.27067511 -62.25 122.25 C-60.67835243 122.22183659 -59.10673541 122.19190863 -57.53515625 122.16015625 C-53.69015831 122.08631953 -49.84552428 122.03672052 -46 122 C-46.54052002 121.73735352 -47.08104004 121.47470703 -47.63793945 121.20410156 C-48.35167725 120.8531543 -49.06541504 120.50220703 -49.80078125 120.140625 C-50.50630127 119.79547852 -51.21182129 119.45033203 -51.9387207 119.09472656 C-59.0539739 115.31588073 -63.16773167 109.5358251 -66.1171875 102.234375 C-68.36726303 93.99073543 -68.38059449 83.58181834 -64.28125 75.96875 C-58.17647059 66.58823529 -58.17647059 66.58823529 -55 65 C-55.99966797 65.2165625 -55.99966797 65.2165625 -57.01953125 65.4375 C-63.76981758 66.79699823 -70.12328495 67.23942141 -77 67 C-74.27847441 65.18564961 -72.93265591 64.60369748 -69.8671875 63.921875 C-57.90246243 61.11844991 -48.794591 58.55921743 -41.2890625 48.22265625 C-36.1566745 39.37317511 -35.44344031 29.79612675 -37.71484375 19.87890625 C-38.24274393 18.24168587 -38.81170977 16.61645339 -39.44140625 15.015625 C-40.1041481 12.62419286 -39.67026881 11.34823523 -39 9 C-38.15574463 8.80422363 -38.15574463 8.80422363 -37.29443359 8.60449219 C-27.01982467 6.21329525 -16.80433782 3.79333026 -6.71484375 0.69921875 C-4 0 -4 0 0 0 Z " fill="#A0A0A0" transform="translate(419,253)"/>
<path d="M0 0 C19.10570686 35.32954732 28.56973203 74.32632922 33 114 C33.13277344 115.13308594 33.26554687 116.26617187 33.40234375 117.43359375 C35.62145887 139.35115539 36.03553083 168.24887082 22.8203125 187.04296875 C17.6357524 192.61692714 13.15031708 195.84767271 5.7097168 197.60888672 C4.91211441 197.81458786 4.11451202 198.020289 3.29273987 198.23222351 C0.68262628 198.90035017 -1.93351242 199.5402229 -4.55078125 200.1796875 C-6.37486592 200.64027583 -8.19852512 201.10255213 -10.02177429 201.56643677 C-14.80226202 202.77760448 -19.58845363 203.9645301 -24.37615967 205.14678955 C-28.29501322 206.11866263 -32.20957088 207.10719517 -36.12400532 208.09669304 C-44.1972601 210.13743539 -52.2732696 212.16735533 -60.35668945 214.16748047 C-61.47954849 214.44788933 -61.47954849 214.44788933 -62.62509155 214.73396301 C-67.76826959 216 -67.76826959 216 -70 216 C-70 215.34 -70 214.68 -70 214 C-68.97267747 213.12366724 -67.90132698 212.29862789 -66.8125 211.5 C-57.80630916 203.89194766 -56.26871483 191.97657618 -54 181 C-53.82202881 180.24372314 -53.64405762 179.48744629 -53.46069336 178.70825195 C-52.89425446 175.37835969 -52.85204771 172.19076247 -52.83203125 168.8125 C-52.82770584 168.12219193 -52.82338043 167.43188385 -52.81892395 166.72065735 C-52.80881158 164.48036823 -52.80874694 162.24030742 -52.8125 160 C-52.81376892 159.23102386 -52.81503784 158.46204773 -52.81634521 157.66976929 C-52.95166095 114.70702294 -62.20186115 70.04943167 -81.29418945 31.38037109 C-81.6624585 30.61289551 -82.03072754 29.84541992 -82.41015625 29.0546875 C-82.90721069 28.05671143 -82.90721069 28.05671143 -83.41430664 27.03857422 C-84.16752654 24.41690428 -83.69437586 22.60270741 -83 20 C-82.43862335 19.86076614 -81.8772467 19.72153229 -81.29885864 19.57807922 C-75.35880989 18.1042869 -69.41965143 16.62694509 -63.48095703 15.14770508 C-61.27609704 14.59897628 -59.07102507 14.05109843 -56.86572266 13.50415039 C-44.77237042 10.50418511 -32.70775278 7.44697072 -20.71948242 4.04882812 C-5.67458116 -0.1935674 -5.67458116 -0.1935674 0 0 Z " fill="#686868" transform="translate(201,111)"/>
<path d="M0 0 C9.31973198 6.80596941 13.61569821 15.11629892 17.5 25.6875 C22.15031941 37.89988896 28.59583192 44.77394042 40.265625 50.48828125 C52.72923598 55.5941723 67.73988978 51.7380969 80.125 48.25 C81.61584541 47.83709509 83.1067313 47.42433636 84.59765625 47.01171875 C86.86173861 46.38244027 89.12475596 45.75006921 91.38549805 45.10888672 C97.22732473 43.46075417 103.10430257 42.04950855 109.02050781 40.69702148 C113.34932835 39.69717442 117.611623 38.5693918 121.875 37.3125 C127.74952274 35.58668975 133.66284454 34.14116961 139.625 32.75 C145.41906348 31.39750704 151.16885857 30.00607153 156.875 28.3125 C164.39274106 26.09297645 172.01199618 24.33826415 179.64086914 22.54467773 C186.97922867 20.80566967 194.24869782 18.90710417 201.46777344 16.72290039 C205.49598282 15.5418982 208.94611291 15.16682708 213.125 15.25 C214.49520726 20.44179793 215.86438455 25.63386607 217.23266602 30.82617188 C217.69691095 32.58731165 218.16142246 34.34838117 218.6262207 36.109375 C219.73713971 40.31866984 220.8441365 44.52888779 221.94165039 48.74169922 C222.64064979 51.4225281 223.35981804 54.09304775 224.10327148 56.76220703 C225.92525128 63.46435399 226.63736873 69.68241047 226.5625 76.625 C226.55114014 78.12208496 226.55114014 78.12208496 226.53955078 79.64941406 C226.18407549 95.66915434 220.60368477 108.77843216 209.859375 120.66796875 C208.125 122.25 208.125 122.25 206.125 122.25 C206.12242187 121.52941406 206.11984375 120.80882812 206.1171875 120.06640625 C205.81242579 111.60418946 204.29982872 103.6678646 202.375 95.4375 C202.01510986 93.84627319 202.01510986 93.84627319 201.64794922 92.22290039 C199.27383385 82.4501476 195.43984673 73.3943685 187.125 67.25 C183.87432191 65.62218707 180.57903433 64.37316501 177.125 63.25 C176.135 62.92 175.145 62.59 174.125 62.25 C165.19309457 61.3246045 157.2714168 63.48259325 148.75 65.9375 C146.08234026 66.68292377 143.41209719 67.41893259 140.7421875 68.15625 C140.08617554 68.33894943 139.43016357 68.52164886 138.75427246 68.70988464 C133.15873724 70.26241145 127.53335579 71.63619657 121.875 72.9375 C114.7408382 74.58998377 107.69218294 76.44121986 100.64941406 78.44604492 C95.66879626 79.8528646 90.67030351 81.09806963 85.625 82.25 C79.72320017 83.59825895 73.88903065 85.10674748 68.0625 86.75 C66.55208922 87.17059405 65.0416726 87.59116715 63.53125 88.01171875 C61.36700886 88.61579219 59.20595624 89.22612096 57.05078125 89.86181641 C43.76935935 93.77623935 29.79898047 96.23647197 16.83984375 89.92578125 C4.84091319 82.51924714 -1.05414589 72.94657931 -5.62817383 60.06665039 C-7.58203554 54.69813736 -9.86988311 50.3970704 -13.875 46.25 C-14.37386719 45.71246094 -14.87273437 45.17492187 -15.38671875 44.62109375 C-21.17011825 39.03374169 -29.16506514 35.12787054 -37.25390625 35.1171875 C-38.44886719 35.16101563 -39.64382812 35.20484375 -40.875 35.25 C-41.15698242 34.53457031 -41.43896484 33.81914062 -41.72949219 33.08203125 C-43.02426909 29.80320227 -44.32458868 26.52659818 -45.625 23.25 C-46.29015625 21.56197266 -46.29015625 21.56197266 -46.96875 19.83984375 C-50.6933279 9.30665749 -50.6933279 9.30665749 -56.875 0.25 C-53.09321654 -0.76433344 -49.30707505 -1.76029072 -45.51635742 -2.74072266 C-43.60677419 -3.23845983 -41.70078751 -3.74993109 -39.79492188 -4.26171875 C-25.54660073 -7.92664125 -12.89374333 -8.02569738 0 0 Z " fill="#A2ADB3" transform="translate(255.875,109.75)"/>
<path d="M0 0 C0.4021875 1.07701172 0.4021875 1.07701172 0.8125 2.17578125 C2.72734851 7.2337528 4.65660343 12.26328496 6.83203125 17.21484375 C17.87030456 42.38674993 24.68468396 68.70217534 29.3125 95.75 C29.47202148 96.6769165 29.63154297 97.60383301 29.79589844 98.55883789 C31.88883085 111.51261105 32.26783667 124.58869647 32.3125 137.6875 C32.31511841 138.4302417 32.31773682 139.1729834 32.32043457 139.93823242 C32.32486264 151.70550356 31.46880232 162.70230356 28 174 C27.71125 175.00289062 27.4225 176.00578125 27.125 177.0390625 C24.95335378 183.45705266 21.0347929 188.48830247 16 193 C15.34 193 14.68 193 14 193 C14 193.66 14 194.32 14 195 C9.35238177 197.32380911 3.24348239 196.69159984 -1.59765625 195.19921875 C-27.98563186 183.02980369 -42.85285764 147.65082237 -52.47290039 122.03515625 C-64.8929278 87.96759218 -73.90519923 51.45941342 -73 15 C-71.72125 15.0825 -70.4425 15.165 -69.125 15.25 C-62.9522959 15.28547531 -57.20890677 13.86967313 -51.24658203 12.42285156 C-50.49747559 12.24206055 -49.74836914 12.06126953 -48.9765625 11.875 C-48.30705566 11.70742187 -47.63754883 11.53984375 -46.94775391 11.3671875 C-45 11 -45 11 -41 11 C-40.93530518 11.79245117 -40.87061035 12.58490234 -40.80395508 13.40136719 C-37.36716032 54.43050154 -29.44615167 93.76487644 -11.875 131.25 C-11.47941895 132.095625 -11.08383789 132.94125 -10.67626953 133.8125 C-7.90726873 139.54918455 -4.65777453 144.78802346 -1 150 C-0.52182251 129.59653438 -0.84159527 110.08291296 -5 90 C-5.30550781 88.48913818 -5.30550781 88.48913818 -5.6171875 86.94775391 C-10.81850374 61.85220571 -18.78587073 36.45548433 -30.72265625 13.71875 C-32 11 -32 11 -32 8 C-27.57610631 6.76870726 -23.15183922 5.53881301 -18.7265625 4.3125 C-15.96937245 3.54826094 -13.21430321 2.77799296 -10.4609375 2 C-9.50445312 1.731875 -8.54796875 1.46375 -7.5625 1.1875 C-6.73878906 0.95417969 -5.91507812 0.72085938 -5.06640625 0.48046875 C-3 0 -3 0 0 0 Z " fill="#9FA0A0" transform="translate(117,132)"/>
<path d="M0 0 C5.44760629 -0.2414845 9.86868816 0.52090519 15.0625 2.125 C16.17069092 2.46168701 16.17069092 2.46168701 17.30126953 2.80517578 C46.75047926 12.01003081 69.9563398 31.66987607 84.921875 58.4375 C90.60472658 69.70262171 93.75128892 81.85371633 97 94 C97.21188965 94.76715332 97.4237793 95.53430664 97.64208984 96.32470703 C98.6224079 99.99424112 99.08323252 103.21555953 99 107 C84.70317988 110.96407008 70.38790482 114.67472475 55.91479492 117.93994141 C49.45917205 119.40509609 43.1342431 121.04296263 36.79296875 122.94140625 C31.48046196 124.42409352 26.11762136 125.67130005 20.75 126.9375 C12.55580813 128.87162347 4.42753231 130.9337077 -3.66821289 133.24365234 C-9.35091815 134.85315581 -15.06941475 136.23143553 -20.82495117 137.5534668 C-26.58224671 138.88176523 -32.28172579 140.38659849 -37.984375 141.93359375 C-42.66025312 143.19002915 -47.36194126 144.3400932 -52.0625 145.5 C-59.14285719 147.24958893 -66.15898625 149.1297602 -73.15234375 151.203125 C-83.39332894 154.06891509 -96.0099172 155.02466683 -105.80078125 150.25390625 C-106.88939453 149.63322266 -106.88939453 149.63322266 -108 149 C-108.77730469 148.57589844 -109.55460937 148.15179688 -110.35546875 147.71484375 C-117.89213697 143.18274343 -123.84846674 136.27277481 -127 128 C-126.67 127.01 -126.34 126.02 -126 125 C-124.24438477 124.27978516 -124.24438477 124.27978516 -121.94140625 123.7890625 C-120.66426758 123.50385742 -120.66426758 123.50385742 -119.36132812 123.21289062 C-118.43771484 123.01888672 -117.51410156 122.82488281 -116.5625 122.625 C-114.62565714 122.19298556 -112.68946579 121.75804077 -110.75390625 121.3203125 C-109.7808252 121.10149414 -108.80774414 120.88267578 -107.80517578 120.65722656 C-103.83347782 119.72669472 -99.91900699 118.62917528 -96 117.5 C-88.56045568 115.37477323 -81.06946263 113.56088553 -73.53515625 111.8046875 C-67.53524721 110.39555081 -61.63028335 108.77655984 -55.71875 107.03125 C-50.09791828 105.47253196 -44.41781116 104.18096017 -38.73828125 102.85546875 C-32.66262207 101.4264176 -26.68149096 99.79240277 -20.6953125 98.0234375 C-16.117099 96.75547562 -11.50294209 95.69402141 -6.875 94.625 C0.45195526 92.91282029 7.71473323 91.04844037 14.9375 88.9375 C15.75943848 88.70434082 16.58137695 88.47118164 17.42822266 88.23095703 C25.43083768 85.83399834 30.78420202 82.25435425 35 75 C39.09262268 66.03520746 36.84913646 57.85795788 33.60546875 49.03125 C26.37881849 30.42387001 15.35638811 13.84922271 0 1 C0 0.67 0 0.34 0 0 Z " fill="#34CCFE" transform="translate(400,10)"/>
<path d="M0 0 C0.99357873 48.34397446 0.99357873 48.34397446 -13.25390625 63.4140625 C-17.52166751 67.29037362 -21.36591543 68.88525317 -26.94970703 70.26831055 C-27.74687134 70.47357361 -28.54403564 70.67883667 -29.36535645 70.89031982 C-31.99398023 71.56473629 -34.62574991 72.22586226 -37.2578125 72.88671875 C-39.08595343 73.3525156 -40.91390313 73.81906359 -42.7416687 74.28633118 C-46.56840453 75.26266036 -50.39659516 76.23297389 -54.22607422 77.19848633 C-59.14230496 78.43804181 -64.05588859 79.6877112 -68.9685688 80.94125652 C-73.64746599 82.13476258 -78.3275642 83.32352397 -83.0078125 84.51171875 C-83.90439701 84.73970343 -84.80098152 84.9676881 -85.72473526 85.20258141 C-88.25219914 85.84429152 -90.78048273 86.4826537 -93.30908203 87.11987305 C-94.43901077 87.40735161 -94.43901077 87.40735161 -95.59176636 87.70063782 C-100.77023521 89 -100.77023521 89 -103 89 C-103 88.34 -103 87.68 -103 87 C-101.97267747 86.12366724 -100.90132698 85.29862789 -99.8125 84.5 C-90.80630916 76.89194766 -89.26871483 64.97657618 -87 54 C-86.82509033 53.27248535 -86.65018066 52.5449707 -86.4699707 51.79541016 C-85.83378621 48.01135173 -85.76522759 44.24516692 -85.68359375 40.41796875 C-85.66281265 39.60378983 -85.64203156 38.7896109 -85.62062073 37.95075989 C-85.55550537 35.36308821 -85.49641792 32.77531947 -85.4375 30.1875 C-85.39427858 28.42772455 -85.35066315 26.66795872 -85.30664062 24.90820312 C-85.1998632 20.60556691 -85.09848982 16.30283357 -85 12 C-70.57377393 8.82255219 -56.12912948 6.31467306 -41.5 4.3125 C-40.75584839 4.21031158 -40.01169678 4.10812317 -39.24499512 4.00283813 C-34.16655423 3.30942648 -29.08477636 2.64521659 -24 2 C-22.85990479 1.85446686 -22.85990479 1.85446686 -21.69677734 1.70599365 C-19.41308424 1.41693602 -17.12863374 1.1349448 -14.84375 0.85546875 C-14.15913696 0.76896561 -13.47452393 0.68246246 -12.76916504 0.59333801 C-8.48982331 0.08134958 -4.30771483 -0.07652414 0 0 Z " fill="#4F565A" transform="translate(234,238)"/>
<path d="M0 0 C7.63445794 25.03011568 7.63445794 25.03011568 2 38 C-4.21995 48.8897567 -13.78334735 53.4454632 -25.48046875 56.6875 C-27.31303144 57.15456023 -29.15554065 57.58238656 -31 58 C-30.23816406 58.20753906 -29.47632813 58.41507812 -28.69140625 58.62890625 C-18.7130362 61.60622266 -11.3522617 65.78989325 -5.97265625 74.91015625 C-2.14230075 83.14003654 -1.48696567 92.9220723 -3.6875 101.76171875 C-4.62683327 104.00437694 -5.68428603 105.95696589 -7 108 C-7.65355469 109.05960938 -7.65355469 109.05960938 -8.3203125 110.140625 C-13.00094135 117.04647084 -19.00021351 120.79716024 -27 123 C-38.09977272 123.99851512 -47.7344866 123.34947202 -56.8125 116.25 C-62.8830598 110.58032622 -66.59651899 103.52743223 -67.3359375 95.23046875 C-67.60351606 83.24530144 -65.08062017 75.05029459 -57 66 C-56.01 65.505 -56.01 65.505 -55 65 C-55.99966797 65.2165625 -55.99966797 65.2165625 -57.01953125 65.4375 C-63.76981758 66.79699823 -70.12328495 67.23942141 -77 67 C-74.27847441 65.18564961 -72.93265591 64.60369748 -69.8671875 63.921875 C-57.90246243 61.11844991 -48.794591 58.55921743 -41.2890625 48.22265625 C-36.1566745 39.37317511 -35.44344031 29.79612675 -37.71484375 19.87890625 C-38.24274393 18.24168587 -38.81170977 16.61645339 -39.44140625 15.015625 C-40.1041481 12.62419286 -39.67026881 11.34823523 -39 9 C-38.15574463 8.80422363 -38.15574463 8.80422363 -37.29443359 8.60449219 C-27.01982467 6.21329525 -16.80433782 3.79333026 -6.71484375 0.69921875 C-4 0 -4 0 0 0 Z " fill="#76848C" transform="translate(419,253)"/>
<path d="M0 0 C0.85247314 -0.00700928 1.70494629 -0.01401855 2.58325195 -0.02124023 C5.3995832 -0.03883756 8.21490864 -0.02719147 11.03125 -0.01367188 C12.98893425 -0.01636629 14.9466172 -0.02024829 16.90429688 -0.02526855 C21.00664007 -0.03116595 25.10863482 -0.02259281 29.2109375 -0.00390625 C34.47045628 0.01888337 39.72915864 0.00576159 44.98864746 -0.01819611 C49.0309871 -0.03264751 53.07313305 -0.0280511 57.11547852 -0.01768494 C59.05476986 -0.01501583 60.99407877 -0.01829385 62.93334961 -0.02760315 C65.6435405 -0.03775789 68.35240775 -0.02228315 71.0625 0 C71.86469971 -0.00809692 72.66689941 -0.01619385 73.4934082 -0.02453613 C77.03727117 0.02946853 79.12947361 0.22442144 82.03018188 2.34092712 C84.21873673 5.5144807 84.01635039 7.97860246 83.9921875 11.80273438 C83.99127106 12.500233 83.99035461 13.19773163 83.9894104 13.91636658 C83.98338415 15.38645256 83.96766712 16.85652681 83.94287109 18.32641602 C83.90631393 20.57614357 83.90185222 22.82422486 83.90234375 25.07421875 C83.82674474 36.07433601 83.82674474 36.07433601 81.53125 39.51757812 C77.56769285 40.93813225 73.40746903 40.68029857 69.24609375 40.69458008 C68.41312775 40.70115128 67.58016174 40.70772247 66.72195435 40.7144928 C63.97088528 40.7341738 61.21987052 40.74587365 58.46875 40.75585938 C57.52861053 40.7599349 56.58847107 40.76401043 55.61984253 40.76820946 C50.64858216 40.78904292 45.67734922 40.80335928 40.70605469 40.81274414 C35.56769217 40.82383355 30.42975973 40.8582702 25.29154968 40.89791584 C21.3419106 40.92402283 17.39237525 40.93243044 13.44265747 40.93602562 C11.54799478 40.94090293 9.65333706 40.95254932 7.75875854 40.97106361 C5.11095652 40.99534088 2.46428485 40.99451179 -0.18359375 40.98754883 C-0.96709198 41.00035889 -1.75059021 41.01316895 -2.55783081 41.02636719 C-6.06677738 40.99268228 -8.08687275 40.79741935 -10.95422363 38.69621277 C-13.1497981 35.53789562 -12.98669115 33.08531758 -13 29.26757812 C-13.0038269 28.57245117 -13.00765381 27.87732422 -13.01159668 27.16113281 C-13.0143118 25.69529772 -13.00697835 24.22941385 -12.99023438 22.76367188 C-12.96881419 20.52428838 -12.99004443 18.28811226 -13.015625 16.04882812 C-13.01298165 14.62173774 -13.0078565 13.19464934 -13 11.76757812 C-12.99548828 10.47335937 -12.99097656 9.17914063 -12.98632812 7.84570312 C-12.46875 4.51757812 -12.46875 4.51757812 -10.96569824 2.34191895 C-7.44517654 -0.23027352 -4.19625448 -0.04235448 0 0 Z " fill="#77848C" transform="translate(348.46875,375.482421875)"/>
<path d="M0 0 C4.0534605 10.56795059 6.33964569 21.31007021 2.96484375 32.40234375 C-1.03562756 41.23903943 -7.00362701 47.72614119 -16.125 51.25 C-18.07496229 51.86073257 -20.03441338 52.44159471 -22 53 C-23.2271875 53.38285156 -24.454375 53.76570313 -25.71875 54.16015625 C-33.868783 56.62266779 -40.60200803 58.47614311 -48.5546875 54.828125 C-58.67572341 49.24203396 -63.66461251 41.86815098 -66.91015625 30.93359375 C-68.16951791 26.15973445 -69.06852155 21.94393373 -69 17 C-60.44758148 14.77921175 -51.89416463 12.56232277 -43.33944225 10.35042572 C-39.36731376 9.32326663 -35.39554428 8.29476026 -31.42456055 7.26318359 C-27.59340376 6.26798368 -23.76134985 5.27631153 -19.92864418 4.28709412 C-18.46547145 3.90878691 -17.00262825 3.5292028 -15.54012108 3.14833069 C-13.49399119 2.61570032 -11.44674401 2.08759365 -9.39916992 1.56054688 C-8.23334885 1.2585437 -7.06752777 0.95654053 -5.86637878 0.64538574 C-3 0 -3 0 0 0 Z " fill="#B1B1B1" transform="translate(379,263)"/>
<path d="M0 0 C0.23436768 0.53004639 0.46873535 1.06009277 0.71020508 1.60620117 C2.53547589 5.72479535 4.38007287 9.83261673 6.26171875 13.92578125 C16.93002195 37.42760614 24.11921537 61.68092974 29 87 C29.17789063 87.87543457 29.35578125 88.75086914 29.5390625 89.65283203 C33.03519885 107.24103386 32.29498634 125.15710827 32 143 C27.41046099 138.60956916 24.69737728 134.40106605 21.8125 128.8125 C21.3383667 127.8946875 20.8642334 126.976875 20.37573242 126.03125 C5.83072525 97.149056 -2.18630491 65.84246429 -7 34 C-7.19698486 32.7003833 -7.19698486 32.7003833 -7.39794922 31.37451172 C-8.83591953 21.55073419 -9.25973261 11.91312778 -9 2 C-2.25 0 -2.25 0 0 0 Z " fill="#1EE8B5" transform="translate(85,140)"/>
<path d="M0 0 C14 27.04060914 14 27.04060914 14 33 C13.02353516 33.11069824 12.04707031 33.22139648 11.04101562 33.33544922 C7.3356705 33.75575857 3.63046384 34.17727859 -0.07470703 34.59912109 C-1.66288702 34.77977777 -3.2511019 34.96012802 -4.83935547 35.14013672 C-7.15341837 35.40246557 -9.46734675 35.66595445 -11.78125 35.9296875 C-12.94769043 36.06176102 -12.94769043 36.06176102 -14.13769531 36.19650269 C-17.75976746 36.6106196 -21.37664772 37.04203675 -24.98828125 37.53955078 C-35.97839849 39.03023158 -46.92684083 39.6349487 -58 40.125 C-59.85419329 40.21167185 -61.70836028 40.29890826 -63.5625 40.38671875 C-68.04139128 40.5976314 -72.52056495 40.8009851 -77 41 C-78.20429601 38.44424962 -79.38840747 35.88208536 -80.5625 33.3125 C-80.90474609 32.59126953 -81.24699219 31.87003906 -81.59960938 31.12695312 C-83.43575214 27.06518276 -84.59592878 24.42150761 -83 20 C-82.43862335 19.86076614 -81.8772467 19.72153229 -81.29885864 19.57807922 C-75.35880989 18.1042869 -69.41965143 16.62694509 -63.48095703 15.14770508 C-61.27609704 14.59897628 -59.07102507 14.05109843 -56.86572266 13.50415039 C-44.77237042 10.50418511 -32.70775278 7.44697072 -20.71948242 4.04882812 C-5.67458116 -0.1935674 -5.67458116 -0.1935674 0 0 Z " fill="#4F565B" transform="translate(201,111)"/>
<path d="M0 0 C1.17460695 4.41459421 2.33831024 8.83199067 3.5 13.25 C3.83386719 14.50425781 4.16773438 15.75851563 4.51171875 17.05078125 C4.82753906 18.25605469 5.14335937 19.46132813 5.46875 20.703125 C5.76201172 21.81333008 6.05527344 22.92353516 6.35742188 24.06738281 C7 27 7 27 7 31 C-6.79258822 35.11269903 -20.68855648 38.78686503 -34.625 42.375 C-35.94916428 42.71782013 -35.94916428 42.71782013 -37.30007935 43.06756592 C-39.83706078 43.72354527 -42.37531074 44.37434764 -44.9140625 45.0234375 C-46.07066124 45.32302368 -46.07066124 45.32302368 -47.25062561 45.62866211 C-50.24627847 46.38878627 -52.89589425 47 -56 47 C-58.64 36.77 -61.28 26.54 -64 16 C-53.86971212 12.62323737 -53.86971212 12.62323737 -49.46777344 11.46606445 C-48.48355408 11.20602127 -47.49933472 10.94597809 -46.48529053 10.67805481 C-44.93796234 10.2747419 -44.93796234 10.2747419 -43.359375 9.86328125 C-41.73156097 9.43682564 -41.73156097 9.43682564 -40.07086182 9.00175476 C-37.79212901 8.4060487 -35.51296684 7.81198288 -33.23339844 7.21948242 C-29.74496373 6.31118869 -26.25919565 5.393114 -22.7734375 4.47460938 C-20.5522394 3.8952347 -18.33089033 3.31643838 -16.109375 2.73828125 C-14.54990143 2.3258593 -14.54990143 2.3258593 -12.95892334 1.90510559 C-11.98731262 1.65451889 -11.0157019 1.40393219 -10.01464844 1.14575195 C-9.16465271 0.92385696 -8.31465698 0.70196198 -7.43890381 0.4733429 C-4.900822 -0.01924848 -2.57889516 -0.08445747 0 0 Z " fill="#59636A" transform="translate(218,15)"/>
<path d="M0 0 C7.63445794 25.03011568 7.63445794 25.03011568 2 38 C-3.7608359 48.08594946 -12.23973801 52.61117586 -23 56 C-27.61969451 57.21328703 -32.26792649 58.24809917 -36.9375 59.25 C-38.14212891 59.518125 -39.34675781 59.78625 -40.58789062 60.0625 C-49.44997608 62 -49.44997608 62 -54 62 C-54 62.66 -54 63.32 -54 64 C-61.82316305 66.29370226 -68.84524526 67.433422 -77 67 C-74.27847441 65.18564961 -72.93265591 64.60369748 -69.8671875 63.921875 C-57.90246243 61.11844991 -48.794591 58.55921743 -41.2890625 48.22265625 C-36.1566745 39.37317511 -35.44344031 29.79612675 -37.71484375 19.87890625 C-38.24274393 18.24168587 -38.81170977 16.61645339 -39.44140625 15.015625 C-40.1041481 12.62419286 -39.67026881 11.34823523 -39 9 C-38.15574463 8.80422363 -38.15574463 8.80422363 -37.29443359 8.60449219 C-27.01982467 6.21329525 -16.80433782 3.79333026 -6.71484375 0.69921875 C-4 0 -4 0 0 0 Z " fill="#797979" transform="translate(419,253)"/>
<path d="M0 0 C1.20094299 0.00030212 2.40188599 0.00060425 3.63922119 0.00091553 C4.93100281 0.02156067 6.22278442 0.04220581 7.55371094 0.06347656 C8.89320022 0.07094085 10.23270046 0.0766329 11.57220459 0.08062744 C15.0906003 0.09586943 18.60833109 0.13513739 22.12646484 0.17944336 C25.71930955 0.22042792 29.31226214 0.23864516 32.90527344 0.25878906 C39.9498156 0.30163411 46.99390726 0.3698671 54.03808594 0.45410156 C54.11929345 3.35050274 54.17868015 6.24461068 54.22558594 9.14160156 C54.25072266 9.95822266 54.27585937 10.77484375 54.30175781 11.61621094 C54.35940054 16.36212857 54.24625197 19.66263262 51.03808594 23.45410156 C47.88473767 24.50521765 45.6829631 24.57480629 42.37329102 24.56762695 C41.212314 24.56755142 40.05133698 24.56747589 38.85517883 24.56739807 C37.60198349 24.56223679 36.34878815 24.5570755 35.05761719 24.55175781 C33.77449142 24.55034286 32.49136566 24.54892792 31.1693573 24.54747009 C27.76138353 24.54365562 24.35345251 24.53383447 20.94549561 24.52276611 C17.46659931 24.512529 13.98769609 24.50796754 10.50878906 24.50292969 C3.68520381 24.49221123 -3.13835307 24.47514765 -9.96191406 24.45410156 C-10.07829442 21.20440387 -10.14921987 17.95524326 -10.21191406 14.70410156 C-10.24542969 13.78371094 -10.27894531 12.86332031 -10.31347656 11.91503906 C-10.32636719 11.02558594 -10.33925781 10.13613281 -10.35253906 9.21972656 C-10.37348633 8.4027832 -10.39443359 7.58583984 -10.41601562 6.74414062 C-9.26831441 0.95627105 -5.31860791 -0.04469418 0 0 Z " fill="#B3D2DF" transform="translate(345.9619140625,375.5458984375)"/>
<path d="M0 0 C1.33599316 3.89664672 1.1571047 7.91527771 1 12 C-0.7604694 13.7604694 -3.32264074 13.56342216 -5.71875 13.89208984 C-6.94513184 14.06251801 -8.17151367 14.23294617 -9.43505859 14.40853882 C-10.09624695 14.49838421 -10.7574353 14.5882296 -11.43865967 14.68079758 C-13.51905872 14.96352762 -15.59870034 15.25133237 -17.67822266 15.54043579 C-22.11817137 16.15666785 -26.55905667 16.76598451 -31 17.375 C-36.79224649 18.1703167 -42.58395164 18.96944272 -48.375 19.7734375 C-49.07274536 19.87002403 -49.77049072 19.96661057 -50.48937988 20.06612396 C-59.68529222 21.34235292 -68.83741119 22.74065889 -77.953125 24.50634766 C-80.70558551 24.95229919 -83.21958086 25.10126057 -86 25 C-86.50838564 22.96040523 -87.00633886 20.91820862 -87.5 18.875 C-87.91765625 17.16957031 -87.91765625 17.16957031 -88.34375 15.4296875 C-89 12 -89 12 -89 6 C-74.645 5.01 -74.645 5.01 -60 4 C-59.01 5.485 -59.01 5.485 -58 7 C-56.35 6.67 -54.7 6.34 -53 6 C-52.67 5.01 -52.34 4.02 -52 3 C-45.23910182 2.23450038 -38.47632649 1.48769921 -31.71191406 0.75390625 C-29.41065673 0.5020338 -27.10986455 0.24587311 -24.80957031 -0.01464844 C-21.50438338 -0.38822867 -18.19783423 -0.74639029 -14.890625 -1.1015625 C-13.86132874 -1.22125397 -12.83203247 -1.34094543 -11.77154541 -1.46426392 C-10.81085144 -1.56451874 -9.85015747 -1.66477356 -8.86035156 -1.76806641 C-8.01651917 -1.86133209 -7.17268677 -1.95459778 -6.30328369 -2.0506897 C-3.65124916 -1.99232484 -2.20395398 -1.4555789 0 0 Z " fill="#586267" transform="translate(228,185)"/>
<path d="M0 0 C7.92 0 15.84 0 24 0 C24 13.2 24 26.4 24 40 C16.08 40 8.16 40 0 40 C0 26.8 0 13.6 0 0 Z " fill="#77848C" transform="translate(480,464)"/>
<path d="M0 0 C7.92 0 15.84 0 24 0 C24 13.2 24 26.4 24 40 C16.08 40 8.16 40 0 40 C0 26.8 0 13.6 0 0 Z " fill="#B4D3E0" transform="translate(456,464)"/>
<path d="M0 0 C1.98934693 4.97336732 2.67021634 8.72204633 2 14 C-2.24022064 19.45171225 -7.38115492 19.87409722 -13.92578125 21.1875 C-19.32558222 22.61463927 -21.91821197 25.37731796 -25 30 C-25.45601261 32.50896686 -25.45601261 32.50896686 -25.625 35.1875 C-25.69976562 36.08855469 -25.77453125 36.98960938 -25.8515625 37.91796875 C-25.92503906 38.94857422 -25.92503906 38.94857422 -26 40 C-28.15528184 36.76707724 -28.80814801 34.3407276 -29.7265625 30.58203125 C-30.190625 28.70161133 -30.190625 28.70161133 -30.6640625 26.78320312 C-30.98450289 25.45966637 -31.30481374 24.13609825 -31.625 22.8125 C-31.95258321 21.47708052 -32.28070213 20.14179233 -32.609375 18.80664062 C-33.41153575 15.53901521 -34.20817783 12.27014329 -35 9 C-28.1120195 6.61569906 -21.17984331 4.6393616 -14.125 2.8125 C-13.09375 2.53986328 -12.0625 2.26722656 -11 1.98632812 C-10.01257813 1.72916016 -9.02515625 1.47199219 -8.0078125 1.20703125 C-6.67194092 0.85862183 -6.67194092 0.85862183 -5.30908203 0.50317383 C-3 0 -3 0 0 0 Z " fill="#76838B" transform="translate(189,22)"/>
<path d="M0 0 C4.0743356 0.84881992 5.54405875 2.30225596 8 5.625 C8.625 8.625 8.625 8.625 8 11.625 C5.54405875 14.94774404 4.0743356 16.40118008 0 17.25 C-4.0743356 16.40118008 -5.54405875 14.94774404 -8 11.625 C-8.625 8.625 -8.625 8.625 -8 5.625 C-5.54405875 2.30225596 -4.0743356 0.84881992 0 0 Z " fill="#343434" transform="translate(384,335.375)"/>
<path d="M0 0 C3.5 1.0625 3.5 1.0625 6 3.1875 C7.97798094 6.97863014 7.63111674 8.99047973 6.5 13.0625 C5.4375 15 5.4375 15 3.5 16.0625 C0.40437069 16.45559578 -1.54336605 16.68588668 -4.5 16.0625 C-7.0625 14 -7.0625 14 -8.5 11.0625 C-8.5 7.12427557 -8.02220018 4.86588489 -5.875 1.5625 C-3.5 0.0625 -3.5 0.0625 0 0 Z " fill="#F8F8F8" transform="translate(160.5,164.9375)"/>
<path d="M0 0 C0.33 0.66 0.66 1.32 1 2 C-6.49701701 4.436168 -13.12309743 5.41136629 -21 5 C-17.47112083 2.64741389 -13.99496906 1.80623911 -9.9375 0.8125 C-8.83825195 0.52729492 -8.83825195 0.52729492 -7.71679688 0.23632812 C-2.24879292 -1.12439646 -2.24879292 -1.12439646 0 0 Z " fill="#838383" transform="translate(363,315)"/>
<path d="M0 0 C1.4540625 0.0309375 1.4540625 0.0309375 2.9375 0.0625 C3.5625 2.4375 3.5625 2.4375 3.9375 5.0625 C3.2775 5.7225 2.6175 6.3825 1.9375 7.0625 C-0.6875 6.6875 -0.6875 6.6875 -3.0625 6.0625 C-3.44468767 4.40635343 -3.77645102 2.73792976 -4.0625 1.0625 C-3.0625 0.0625 -3.0625 0.0625 0 0 Z " fill="#F4F4F4" transform="translate(172.0625,185.9375)"/>
</svg>
