<?xml version="1.0" encoding="UTF-8"?>
<svg version="1.1" xmlns="http://www.w3.org/2000/svg" width="512" height="512">
<path d="M0 0 C0.86222168 0.00215515 1.72444336 0.0043103 2.61279297 0.00653076 C15.58994419 0.0585669 28.22768608 0.46212798 40.9375 3.3125 C41.85837402 3.51649414 42.77924805 3.72048828 43.72802734 3.93066406 C56.91483977 6.93991174 69.54096233 10.90860152 81.9375 16.3125 C82.7104541 16.64620605 83.4834082 16.97991211 84.27978516 17.32373047 C133.24016622 38.72581267 172.61251746 79.98724037 192.78808594 129.34082031 C212.49622844 180.29398738 212.66046719 238.26096315 191.10742188 288.70507812 C180.72108749 311.85325242 166.93477684 332.49379421 149.40039062 350.78222656 C148.03040909 352.21531139 146.67856166 353.66567025 145.328125 355.1171875 C138.15246143 362.61901759 130.17412918 368.79183261 121.82324219 374.92626953 C120.29223893 376.05172739 118.77315969 377.19339303 117.2578125 378.33984375 C99.79720017 391.17852928 79.28406421 399.9532381 58.6875 406.3125 C57.74753174 406.60342529 56.80756348 406.89435059 55.83911133 407.1940918 C50.01798601 408.91268 45.17818834 409.61909018 38.9375 410.3125 C38.9375 424.8325 38.9375 439.3525 38.9375 454.3125 C52.92266515 454.19430675 52.92266515 454.19430675 66.9074707 454.04223633 C81.681909 453.93373635 94.39560961 454.83081965 105.94140625 465.09375 C114.76708262 474.39597477 117.13032879 484.96243079 117.25 497.3125 C117.27900391 498.31023437 117.30800781 499.30796875 117.33789062 500.3359375 C117.34626953 501.29757812 117.35464844 502.25921875 117.36328125 503.25 C117.37786377 504.12527344 117.39244629 505.00054687 117.4074707 505.90234375 C116.74582167 509.29548625 115.7199047 510.2480026 112.9375 512.3125 C109.9303067 512.91233492 106.96155161 512.85198009 103.90356445 512.82043457 C102.98008618 512.82667453 102.05660791 512.8329145 101.10514545 512.83934355 C98.00343281 512.85532836 94.90250005 512.84264767 91.80078125 512.83007812 C89.58010397 512.83549679 87.35943028 512.84261801 85.13876343 512.85131836 C79.10164486 512.86958487 73.06479909 512.86247032 67.02767563 512.84980202 C60.71676638 512.83969164 54.40588085 512.84906223 48.0949707 512.85534668 C36.81651416 512.86309556 25.53819644 512.85064643 14.25976765 512.83030933 C4.03216629 512.81243808 -6.19525348 512.81554212 -16.42285156 512.83398438 C-28.29772233 512.85538692 -40.17248274 512.86336042 -52.04737949 512.85153532 C-58.33415145 512.84529154 -64.62079828 512.84448912 -70.90756226 512.85768127 C-76.81734068 512.86921559 -82.72677537 512.86125803 -88.63651657 512.83810425 C-90.80856123 512.83280425 -92.98063471 512.83435286 -95.152668 512.84315491 C-98.11169389 512.85404281 -101.0696098 512.84042829 -104.02856445 512.82043457 C-104.89353892 512.82935746 -105.75851339 512.83828034 -106.64969921 512.84747362 C-112.44730367 512.77118835 -112.44730367 512.77118835 -115.59477234 510.42444611 C-117.34119855 507.91147443 -117.57722975 506.5378857 -117.59375 503.49609375 C-117.60196777 502.57207764 -117.61018555 501.64806152 -117.61865234 500.69604492 C-117.60012207 499.7238501 -117.5815918 498.75165527 -117.5625 497.75 C-117.55041504 496.75653564 -117.53833008 495.76307129 -117.52587891 494.73950195 C-117.33340866 487.63501696 -116.57359813 481.60185024 -113.0625 475.3125 C-112.42634766 474.12333984 -112.42634766 474.12333984 -111.77734375 472.91015625 C-105.91170521 463.09052181 -96.9258531 457.68429249 -86.04711914 454.77319336 C-81.67936905 454.09900568 -77.36188324 454.19042402 -72.94921875 454.21484375 C-72.08929321 454.21585083 -71.22936768 454.21685791 -70.34338379 454.21789551 C-67.14557554 454.22310894 -63.94778636 454.23707017 -60.75 454.25 C-53.593125 454.270625 -46.43625 454.29125 -39.0625 454.3125 C-39.0625 439.7925 -39.0625 425.2725 -39.0625 410.3125 C-43.3525 409.6525 -47.6425 408.9925 -52.0625 408.3125 C-54.22670597 407.77786875 -56.38047802 407.19082894 -58.5 406.5 C-59.56863281 406.15219482 -60.63726562 405.80438965 -61.73828125 405.44604492 C-62.83527344 405.0719751 -63.93226563 404.69790527 -65.0625 404.3125 C-66.23167969 403.91587158 -67.40085938 403.51924316 -68.60546875 403.1105957 C-97.81884827 392.93807962 -122.78909913 376.58450818 -145.0625 355.3125 C-146.45082031 354.00345703 -146.45082031 354.00345703 -147.8671875 352.66796875 C-155.01749956 345.75059886 -161.13068273 338.28140906 -167.0625 330.3125 C-167.69929688 329.45914062 -168.33609375 328.60578125 -168.9921875 327.7265625 C-194.29726384 292.62597274 -207.59305392 250.50868297 -207.375 207.3125 C-207.37317719 206.55547791 -207.37135437 205.79845581 -207.36947632 205.01849365 C-207.1364356 147.12267791 -185.03453137 98.19618446 -144.33935547 57.59326172 C-106.50029309 20.39110571 -52.78874042 -0.23729554 0 0 Z M-70.0625 29.3125 C-68.64337336 33.06390439 -66.9433969 36.53085569 -65.0234375 40.05078125 C-64.44335938 41.11748047 -63.86328125 42.18417969 -63.265625 43.28320312 C-62.66234375 44.38599609 -62.0590625 45.48878906 -61.4375 46.625 C-60.52097656 48.30819336 -60.52097656 48.30819336 -59.5859375 50.02539062 C-58.08058908 52.78911624 -56.57269759 55.55142206 -55.0625 58.3125 C-54.50079102 58.14645264 -53.93908203 57.98040527 -53.36035156 57.80932617 C-40.00234463 53.90353165 -26.87521028 51.02036223 -13.0625 49.3125 C-12.90042454 38.27336055 -13.40485269 27.32809238 -14.0625 16.3125 C-32.6962935 16.3125 -52.83418329 22.51983768 -70.0625 29.3125 Z M44.9375 21.3125 C48.17807544 24.65798616 51.49825607 27.60044984 55.1875 30.4375 C66.94910388 40.00465698 75.05833406 52.60385029 81 66.4375 C84.54463314 73.74527106 89.43875779 77.21716679 96.078125 81.65625 C101.93447873 85.5759942 106.87619277 90.43920567 111.9375 95.3125 C112.97583984 96.25609375 112.97583984 96.25609375 114.03515625 97.21875 C125.50974736 107.96292566 133.59455072 121.52542084 140.86328125 135.30517578 C142.49032145 138.34552226 144.21154056 141.32737469 145.9375 144.3125 C149.08640661 142.92353023 152.23100321 141.52504373 155.375 140.125 C156.25349609 139.73763672 157.13199219 139.35027344 158.03710938 138.95117188 C163.84964779 136.35590565 169.42814674 133.50123923 174.9375 130.3125 C163.44405108 104.37197841 147.04214007 80.44749771 124.9375 62.3125 C124.14214844 61.62929688 123.34679687 60.94609375 122.52734375 60.2421875 C103.51312327 44.16831039 70.92050872 21.3125 44.9375 21.3125 Z M-129.0625 66.3125 C-130.32996029 67.37902146 -131.60073264 68.44162091 -132.875 69.5 C-144.75628777 79.94980731 -154.19230572 92.28603893 -163.0625 105.3125 C-163.45808105 105.88291016 -163.85366211 106.45332031 -164.26123047 107.04101562 C-175.87521859 123.92835371 -184.66797071 145.90457996 -187.0625 166.3125 C-184.4011039 163.04995522 -181.94747877 159.7176336 -179.5625 156.25 C-169.88813717 142.99451944 -157.51174247 132.01848289 -142.17602539 125.84423828 C-133.93314051 122.49860292 -130.19016978 118.38861562 -125.4609375 110.94921875 C-121.73936696 105.10347119 -116.85550209 100.27979307 -112.0625 95.3125 C-111.39734375 94.59578125 -110.7321875 93.8790625 -110.046875 93.140625 C-101.1406514 83.78534811 -90.590165 76.74830904 -79.47265625 70.3203125 C-76.24422645 68.41949587 -73.15721141 66.41973861 -70.0625 64.3125 C-76.98605046 49.99603097 -76.98605046 49.99603097 -85.0625 36.3125 C-98.40241446 36.3125 -120.06550266 57.81533585 -129.0625 66.3125 Z M-28.4375 67.125 C-29.23671875 67.29064453 -30.0359375 67.45628906 -30.859375 67.62695312 C-36.40448634 68.81583217 -41.72022241 70.4141435 -47.0625 72.3125 C-40.99839221 84.77048579 -34.44577799 96.94021117 -27.80761719 109.10009766 C-26.01675365 112.39670963 -24.24438743 115.70270077 -22.4765625 119.01171875 C-21.89414795 120.09839844 -21.3117334 121.18507812 -20.71166992 122.3046875 C-19.59605642 124.38729333 -18.48405843 126.47184122 -17.3762207 128.55859375 C-16.86921631 129.5021875 -16.36221191 130.44578125 -15.83984375 131.41796875 C-15.39890381 132.24449951 -14.95796387 133.07103027 -14.50366211 133.92260742 C-12.89768313 136.58581736 -11.05026567 138.92457725 -9.0625 141.3125 C-8.94285127 128.23001973 -9.21087266 115.21279368 -9.86206055 102.14624023 C-10.0011311 99.352276 -10.13294841 96.55803798 -10.26367188 93.76367188 C-10.71613077 84.26580813 -11.24536749 74.78705802 -12.0625 65.3125 C-17.77222597 65.09054014 -22.86926959 65.9019462 -28.4375 67.125 Z M-102.0625 107.3125 C-104.10643286 109.60999903 -106.0979255 111.94692168 -108.0625 114.3125 C-106.93158936 114.32651855 -106.93158936 114.32651855 -105.77783203 114.34082031 C-81.01921343 114.72525921 -60.45304601 117.50911848 -38.7421875 129.95703125 C-36.1168322 131.53818563 -36.1168322 131.53818563 -33.0625 131.3125 C-37.40432604 123.23112619 -41.75328023 115.1536221 -46.10919189 107.07983398 C-47.0248865 105.38223151 -47.93994709 103.6842871 -48.85498047 101.98632812 C-50.48308512 98.96810489 -52.1157543 95.95240154 -53.75 92.9375 C-54.24209961 92.02403809 -54.73419922 91.11057617 -55.24121094 90.16943359 C-55.70172852 89.32203613 -56.16224609 88.47463867 -56.63671875 87.6015625 C-57.03463623 86.86631348 -57.43255371 86.13106445 -57.8425293 85.37353516 C-59.12370825 83.20909394 -60.43169049 81.22947807 -62.0625 79.3125 C-75.54680314 79.3125 -93.13722141 98.43722297 -102.0625 107.3125 Z M90.9375 98.3125 C90.92291748 98.98603516 90.90833496 99.65957031 90.89331055 100.35351562 C90.19160139 129.45336967 85.45531481 156.56379307 65.8203125 179.140625 C63.80960949 181.36795482 63.80960949 181.36795482 61.9375 184.3125 C66.97771604 182.78421483 71.54175416 180.6734732 76.24609375 178.34765625 C77.04208481 177.95806732 77.83807587 177.56847839 78.65818787 177.16708374 C81.23217798 175.90652816 83.80363421 174.64089902 86.375 173.375 C89.89633317 171.64679897 93.41876814 169.92085182 96.94140625 168.1953125 C98.23769958 167.55972664 98.23769958 167.55972664 99.56018066 166.91130066 C107.54937736 162.99975257 115.5782748 159.17414474 123.65014648 155.43579102 C124.90226929 154.84689087 124.90226929 154.84689087 126.1796875 154.24609375 C127.24485596 153.7519397 127.24485596 153.7519397 128.33154297 153.24780273 C130.12102097 152.40198714 130.12102097 152.40198714 130.9375 150.3125 C129.89806448 147.79293261 128.79925727 145.42164419 127.5625 143 C127.19745361 142.28158936 126.83240723 141.56317871 126.45629883 140.82299805 C119.88593878 128.19521608 105.29522049 103.09840683 90.9375 98.3125 Z M173.75390625 148.55078125 C172.23893555 149.28651367 172.23893555 149.28651367 170.69335938 150.03710938 C169.63955078 150.56111328 168.58574219 151.08511719 167.5 151.625 C165.92508789 152.39360352 165.92508789 152.39360352 164.31835938 153.17773438 C160.18033019 155.20059504 156.05588908 157.24998953 151.9375 159.3125 C152.53016656 163.80547697 153.32748913 168.15535583 154.375 172.5625 C156.32552794 181.41636704 157.08739493 190.28830772 157.9375 199.3125 C168.8275 199.3125 179.7175 199.3125 190.9375 199.3125 C189.98853409 184.12904545 188.09904663 170.4325326 184.4375 155.8125 C184.23608398 154.98065186 184.03466797 154.14880371 183.82714844 153.29174805 C183.29756956 151.26970029 182.62876482 149.28513374 181.9375 147.3125 C178.11634974 146.03878325 177.29736604 146.80922756 173.75390625 148.55078125 Z M129.20703125 169.98828125 C127.43005859 170.85163086 127.43005859 170.85163086 125.6171875 171.73242188 C124.98651367 172.04107178 124.35583984 172.34972168 123.70605469 172.66772461 C121.73929102 173.63024088 119.77039214 174.5882468 117.80078125 175.54492188 C115.12781611 176.84333134 112.45554159 178.14314558 109.78369141 179.44384766 C104.34550066 182.08871741 98.89334196 184.70426506 93.4375 187.3125 C92.50454102 187.75867676 91.57158203 188.20485352 90.61035156 188.66455078 C83.74659752 191.94048965 76.86047492 195.16327724 69.9375 198.3125 C69.9375 198.6425 69.9375 198.9725 69.9375 199.3125 C93.6975 199.3125 117.4575 199.3125 141.9375 199.3125 C142.01202745 191.91973959 142.01202745 191.91973959 141.09765625 184.91015625 C140.92169922 184.00072266 140.74574219 183.09128906 140.56445312 182.15429688 C140.37818359 181.23712891 140.19191406 180.31996094 140 179.375 C139.72639648 177.95864258 139.72639648 177.95864258 139.44726562 176.51367188 C138.61002489 171.77685736 138.61002489 171.77685736 136.9375 167.3125 C133.94852534 167.3125 131.88632194 168.68035978 129.20703125 169.98828125 Z M-115.125 215.3125 C-117.74543223 215.40913867 -120.36587489 215.50549501 -122.98632812 215.6015625 C-129.3451759 215.83528874 -135.70388637 216.07249225 -142.0625 216.3125 C-142.07152344 217.56224609 -142.08054687 218.81199219 -142.08984375 220.09960938 C-142.09491943 220.80259155 -142.09999512 221.50557373 -142.10522461 222.2298584 C-142.04530199 225.15082922 -141.58449704 227.94151631 -141.0625 230.8125 C-140.72916667 232.64583333 -140.39583333 234.47916667 -140.0625 236.3125 C-124.98755987 232.88852024 -110.30877949 228.16798454 -95.5625 223.5625 C-92.9859571 222.76081685 -90.40899959 221.96047066 -87.83203125 221.16015625 C-81.57407642 219.21555511 -75.3176779 217.26601407 -69.0625 215.3125 C-69.0625 214.9825 -69.0625 214.6525 -69.0625 214.3125 C-84.43303595 214.11214179 -99.76786801 214.73272863 -115.125 215.3125 Z M-191.0625 218.3125 C-189.70699213 234.50887041 -189.70699213 234.50887041 -186.0625 250.3125 C-179.04084307 248.87476673 -172.31161037 246.90504216 -165.5 244.6875 C-160.3334375 243.016875 -160.3334375 243.016875 -155.0625 241.3125 C-156.0525 233.3925 -157.0425 225.4725 -158.0625 217.3125 C-161.836875 217.291875 -165.61125 217.27125 -169.5 217.25 C-171.25654907 217.23634399 -171.25654907 217.23634399 -173.04858398 217.22241211 C-179.14208968 217.20642678 -185.0217134 217.50579138 -191.0625 218.3125 Z M-75.24047852 232.98730469 C-76.18948029 233.27246445 -76.18948029 233.27246445 -77.15765381 233.56338501 C-79.25466894 234.1959892 -81.34809783 234.83961929 -83.44140625 235.484375 C-84.89337897 235.92731497 -86.34544216 236.36995849 -87.79759216 236.81231689 C-90.84313779 237.74215755 -93.88681572 238.67784488 -96.92944336 239.6171875 C-100.83528698 240.82216233 -104.74635443 242.0090913 -108.65915012 243.19126511 C-111.65997869 244.10070202 -114.65727605 245.02135565 -117.65366936 245.94528961 C-119.09462904 246.38774762 -120.5368038 246.82626779 -121.98016548 247.26082611 C-123.995217 247.86897048 -126.00487844 248.49243726 -128.01391602 249.12011719 C-129.16038101 249.47176941 -130.30684601 249.82342163 -131.48805237 250.18572998 C-132.33762009 250.55756409 -133.18718781 250.92939819 -134.0625 251.3125 C-135.42571333 255.40213998 -133.88502846 257.7716587 -132.1875 261.5 C-131.86942383 262.20688965 -131.55134766 262.9137793 -131.22363281 263.64208984 C-125.0346623 277.12115436 -117.63814095 288.98851819 -108.0625 300.3125 C-107.33804688 301.17875 -106.61359375 302.045 -105.8671875 302.9375 C-101.63161981 307.85408054 -97.06105314 312.17805844 -92.0625 316.3125 C-90.76221692 313.71193385 -90.99788509 311.90031582 -91.0703125 308.9921875 C-91.59227804 279.45946488 -85.32215301 255.97890741 -67.0625 232.3125 C-70.10902196 230.78923902 -72.02361929 232.0102133 -75.24047852 232.98730469 Z M182.9375 256.3125 C182.22787109 257.23869141 182.22787109 257.23869141 181.50390625 258.18359375 C169.12922628 274.0318681 153.4715677 286.73842597 134.19140625 293.23828125 C131.22541893 294.65188006 130.18024466 296.33242083 128.375 299.0625 C109.90834313 325.54757366 85.49353652 341.3682536 56.9375 355.3125 C62.11990572 370.43115682 62.11990572 370.43115682 67.9375 385.3125 C102.38359513 374.83044031 132.78783024 348.87481234 153.9375 320.3125 C154.56011719 319.48492187 155.18273437 318.65734375 155.82421875 317.8046875 C167.83889147 301.28101174 179.84424524 280.53595358 183.9375 260.3125 C183.59872628 258.07962484 183.59872628 258.07962484 182.9375 256.3125 Z M-167.25 261.0625 C-168.46365234 261.41054688 -169.67730469 261.75859375 -170.92773438 262.1171875 C-172.07951172 262.46523438 -173.23128906 262.81328125 -174.41796875 263.171875 C-175.47653076 263.48608398 -176.53509277 263.80029297 -177.62573242 264.12402344 C-180.19135994 265.06008107 -180.19135994 265.06008107 -180.97363281 267.25195312 C-181.91915386 289.17557294 -155.34554784 320.40112373 -141.5 335.5625 C-139.70301705 337.49490038 -137.88573038 339.40446821 -136.0625 341.3125 C-134.7940625 342.6428125 -134.7940625 342.6428125 -133.5 344 C-112.38831257 365.63947962 -85.6749196 380.16865204 -57.25 389.8125 C-56.54020996 390.05556885 -55.83041992 390.2986377 -55.09912109 390.54907227 C-50.42364047 392.0718511 -45.95680968 392.83019401 -41.0625 393.3125 C-43.8513496 390.36871431 -46.71189753 388.08612311 -50.0625 385.8125 C-62.97454251 376.49861334 -73.36532747 364.68761141 -79.92041016 350.10668945 C-83.39993088 342.42771648 -86.50302289 338.41058263 -94.0390625 334.1015625 C-98.10401697 331.69620185 -101.32640443 328.67318676 -104.76171875 325.45703125 C-106.82687744 323.53212103 -108.94985149 321.73510794 -111.125 319.9375 C-116.08632845 315.60380948 -120.02959594 310.49667752 -124.0625 305.3125 C-125.17818359 303.9203125 -125.17818359 303.9203125 -126.31640625 302.5 C-137.11912108 288.67252502 -143.94829123 273.66416026 -150.0625 257.3125 C-156.11038636 257.3125 -161.4923127 259.32130127 -167.25 261.0625 Z M8.9375 272.3125 C8.91405553 279.69426449 8.89642481 287.07602062 8.88568783 294.45781517 C8.88052777 297.88758051 8.87355969 301.3173199 8.86206055 304.74707031 C8.81341528 319.63393424 8.81334798 334.4615266 9.9375 349.3125 C18.83642114 348.78545683 27.25937177 347.35365738 35.9375 345.3125 C33.87928961 338.12606517 31.48468712 331.11559508 28.8828125 324.109375 C28.4993869 323.0691217 28.1159613 322.02886841 27.72091675 320.95709229 C26.50427317 317.65784245 25.28356982 314.36011391 24.0625 311.0625 C22.45979647 306.72437919 20.85869174 302.3856693 19.2578125 298.046875 C18.87691467 297.01542358 18.49601685 295.98397217 18.10357666 294.92126465 C15.33024531 287.4028738 12.60203607 279.87015442 9.9375 272.3125 C9.6075 272.3125 9.2775 272.3125 8.9375 272.3125 Z M27.9375 276.3125 C32.95687488 290.77608131 38.1278065 305.18015384 43.375 319.5625 C44.11404713 321.591104 44.85297995 323.61974965 45.59179688 325.6484375 C47.37238745 330.53693694 49.15449948 335.42487907 50.9375 340.3125 C53.46697021 339.23000856 55.9938245 338.14199206 58.51953125 337.05078125 C59.22662231 336.74885864 59.93371338 336.44693604 60.66223145 336.13586426 C75.35881218 329.7660779 89.00691518 320.02170183 99.9375 308.3125 C100.865625 307.405 101.79375 306.4975 102.75 305.5625 C105.06627476 303.31681551 105.06627476 303.31681551 106.9375 300.3125 C105.65359375 300.28671875 104.3696875 300.2609375 103.046875 300.234375 C78.60777773 299.537447 51.86939442 295.07044375 32.6640625 278.56640625 C30.2701746 276.10012059 30.2701746 276.10012059 27.9375 276.3125 Z M29.359375 362.4609375 C22.96007846 363.81175544 16.42244105 364.49267379 9.9375 365.3125 C9.88811851 369.69073917 9.8517896 374.06883146 9.82763672 378.44726562 C9.81756957 379.9372032 9.80391482 381.42712097 9.78662109 382.91699219 C9.76240347 385.05669028 9.75102436 387.19612753 9.7421875 389.3359375 C9.73171387 390.62419434 9.72124023 391.91245117 9.71044922 393.23974609 C9.60912336 396.41950806 9.60912336 396.41950806 11.9375 398.3125 C14.09460125 398.37557536 14.09460125 398.37557536 16.56640625 397.9921875 C17.98457642 397.81006714 17.98457642 397.81006714 19.43139648 397.62426758 C20.95035522 397.40806763 20.95035522 397.40806763 22.5 397.1875 C23.52746338 397.04787842 24.55492676 396.90825684 25.61352539 396.7644043 C34.53510399 395.49325772 43.23070431 393.61483389 51.9375 391.3125 C51.3907325 384.38346458 48.87098067 378.31562392 46.375 371.875 C45.95025391 370.76189453 45.52550781 369.64878906 45.08789062 368.50195312 C44.04419884 365.76959149 42.99391767 363.03996098 41.9375 360.3125 C37.59475101 360.3125 33.57774439 361.48061222 29.359375 362.4609375 Z " fill="#D1D2D2" transform="translate(256.0625,-0.31250000000000006)"/>
<path d="M0 0 C5.94 0.66 11.88 1.32 18 2 C21.30185354 2.15829782 24.51232169 2.28415536 27.8046875 2.265625 C28.61962677 2.26753845 29.43456604 2.2694519 30.27420044 2.27142334 C31.96584388 2.2727595 33.65749851 2.26924774 35.34912109 2.26074219 C37.86710837 2.25003356 40.38437793 2.26071309 42.90234375 2.2734375 C44.5781265 2.27211491 46.25390882 2.26955046 47.9296875 2.265625 C48.64494598 2.26967346 49.36020447 2.27372192 50.09713745 2.27789307 C59.50015309 2.19791742 68.54989074 0.94501093 78 0 C78 14.52 78 29.04 78 44 C91.98516515 43.88180675 91.98516515 43.88180675 105.9699707 43.72973633 C120.744409 43.62123635 133.45810961 44.51831965 145.00390625 54.78125 C153.82958262 64.08347477 156.19282879 74.64993079 156.3125 87 C156.34150391 87.99773437 156.37050781 88.99546875 156.40039062 90.0234375 C156.40876953 90.98507812 156.41714844 91.94671875 156.42578125 92.9375 C156.44765503 94.25041016 156.44765503 94.25041016 156.4699707 95.58984375 C155.80832167 98.98298625 154.7824047 99.9355026 152 102 C148.9928067 102.59983492 146.02405161 102.53948009 142.96606445 102.50793457 C142.04258618 102.51417453 141.11910791 102.5204145 140.16764545 102.52684355 C137.06593281 102.54282836 133.96500005 102.53014767 130.86328125 102.51757812 C128.64260397 102.52299679 126.42193028 102.53011801 124.20126343 102.53881836 C118.16414486 102.55708487 112.12729909 102.54997032 106.09017563 102.53730202 C99.77926638 102.52719164 93.46838085 102.53656223 87.1574707 102.54284668 C75.87901416 102.55059556 64.60069644 102.53814643 53.32226765 102.51780933 C43.09466629 102.49993808 32.86724652 102.50304212 22.63964844 102.52148438 C10.76477767 102.54288692 -1.10998274 102.55086042 -12.98487949 102.53903532 C-19.27165145 102.53279154 -25.55829828 102.53198912 -31.84506226 102.54518127 C-37.75484068 102.55671559 -43.66427537 102.54875803 -49.57401657 102.52560425 C-51.74606123 102.52030425 -53.91813471 102.52185286 -56.090168 102.53065491 C-59.04919389 102.54154281 -62.0071098 102.52792829 -64.96606445 102.50793457 C-65.83103892 102.51685746 -66.69601339 102.52578034 -67.58719921 102.53497362 C-73.38480367 102.45868835 -73.38480367 102.45868835 -76.53227234 100.11194611 C-78.27869855 97.59897443 -78.51472975 96.2253857 -78.53125 93.18359375 C-78.54357666 91.79756958 -78.54357666 91.79756958 -78.55615234 90.38354492 C-78.53762207 89.4113501 -78.5190918 88.43915527 -78.5 87.4375 C-78.48791504 86.44403564 -78.47583008 85.45057129 -78.46337891 84.42700195 C-78.27090866 77.32251696 -77.51109813 71.28935024 -74 65 C-73.57589844 64.20722656 -73.15179688 63.41445313 -72.71484375 62.59765625 C-66.84920521 52.77802181 -57.8633531 47.37179249 -46.98461914 44.46069336 C-42.61686905 43.78650568 -38.29938324 43.87792402 -33.88671875 43.90234375 C-33.02679321 43.90335083 -32.16686768 43.90435791 -31.28088379 43.90539551 C-28.08307554 43.91060894 -24.88528636 43.92457017 -21.6875 43.9375 C-14.530625 43.958125 -7.37375 43.97875 0 44 C0 29.48 0 14.96 0 0 Z " fill="#FEA500" transform="translate(217,410)"/>
<path d="M0 0 C8.64938373 6.32521226 16.92604003 13.9620535 24 22 C24 22.66 24 23.32 24 24 C22.94941406 24.49628906 21.89882812 24.99257812 20.81640625 25.50390625 C3.88611677 33.62907318 -7.5713109 43.12516231 -14.0703125 61.3671875 C-15.88875603 68.47287018 -16.4059928 75.70905587 -17 83 C-39.23575918 84.50830689 -61.44018846 85.46174942 -83.71887207 86.00616455 C-88.27733261 86.11874172 -92.83560112 86.23883336 -97.39387512 86.35869408 C-101.1439287 86.45706742 -104.8940041 86.55276375 -108.64428711 86.64199829 C-116.22874369 86.82572331 -123.80683794 87.06348446 -131.38671875 87.38623047 C-133.65520523 87.47685564 -135.92373742 87.56622777 -138.19229126 87.65514946 C-139.63035506 87.71506753 -141.06819166 87.78075941 -142.50570679 87.85264778 C-144.49012128 87.95178311 -146.47555058 88.02992826 -148.4609375 88.10717773 C-149.58290527 88.15881577 -150.70487305 88.2104538 -151.86083984 88.26365662 C-155.56260807 87.95274681 -157.85324611 86.94715296 -161 85 C-164.93073924 79.10389113 -162.56185693 70.13759863 -161.3515625 63.37890625 C-157.43349321 46.9697445 -150.29198951 31.57441309 -139 19 C-138.54786133 18.49033691 -138.09572266 17.98067383 -137.62988281 17.45556641 C-130.09314727 9.07180039 -121.65303221 2.76758578 -112 -3 C-110.59041016 -3.86238281 -110.59041016 -3.86238281 -109.15234375 -4.7421875 C-76.0798559 -23.11050449 -31.43551759 -19.97700758 0 0 Z " fill="#B5E3EA" transform="translate(220,130)"/>
<path d="M0 0 C11.40485905 1.47692537 22.84175673 5.29277264 33.15673828 10.27929688 C34.23439453 10.79234375 35.31205078 11.30539063 36.42236328 11.83398438 C44.07053916 15.69364523 50.08938592 20.25773585 56.15673828 26.27929688 C57.02298828 27.10429688 57.88923828 27.92929687 58.78173828 28.77929688 C59.95736328 30.01679687 59.95736328 30.01679687 61.15673828 31.27929688 C61.74841797 31.88773438 62.34009766 32.49617188 62.94970703 33.12304688 C68.70528276 39.26826506 73.04576827 45.94806702 77.15673828 53.27929688 C77.69298828 54.21773437 78.22923828 55.15617187 78.78173828 56.12304688 C90.94968197 79.69843777 93.27813584 109.95137738 85.5546875 135.25146484 C79.63558191 153.62951178 70.43474534 170.08186889 55.15673828 182.27929688 C52.86623813 179.33730716 50.94270525 176.29058942 49.03173828 173.09179688 C41.1698503 160.76553827 30.13341486 152.61688616 16.15673828 148.27929688 C10.69484585 147.07933566 5.34091116 147.16564995 -0.21826172 147.21679688 C-1.93521904 147.22829671 -3.6521789 147.23942155 -5.36914062 147.25024414 C-6.21360748 147.25572769 -7.05807434 147.26121124 -7.9281311 147.26686096 C-8.87612076 147.27301674 -8.87612076 147.27301674 -9.84326172 147.27929688 C-11.34730825 125.03698222 -12.44090006 102.7968678 -13.31298828 80.52160645 C-13.56123274 74.18712639 -13.81375434 67.85282272 -14.0697155 61.51865005 C-14.15639559 59.35323397 -14.2402883 57.18772391 -14.3238678 55.02218628 C-14.62208174 47.48022812 -15.03938085 39.95893482 -15.62527466 32.43341064 C-16.00017702 27.00884691 -16.10604336 21.59017072 -16.15576172 16.15429688 C-16.18476563 15.05859375 -16.21376953 13.96289062 -16.24365234 12.83398438 C-16.25203125 11.78210937 -16.26041016 10.73023438 -16.26904297 9.64648438 C-16.28362549 8.7091748 -16.29820801 7.77186523 -16.31323242 6.80615234 C-14.763078 -1.52844415 -6.72445581 -0.57449155 0 0 Z " fill="#B5E3EA" transform="translate(257.84326171875,5.720703125)"/>
<path d="M0 0 C2.43625917 2.43625917 2.82578764 4.27485841 3.8125 7.5625 C9.0659572 23.64881603 18.97443913 33.81037308 33.921875 41.50390625 C43.39178853 45.72210378 52.80156165 45.88153873 63 46 C62.01 46.495 62.01 46.495 61 47 C61.16076523 47.54437714 61.32153046 48.08875427 61.48716736 48.64962769 C62.07668998 51.35147921 62.16189129 53.83990897 62.20532227 56.60595703 C62.2352401 58.30465691 62.2352401 58.30465691 62.26576233 60.03767395 C62.28247482 61.26531967 62.29918732 62.49296539 62.31640625 63.7578125 C62.33718735 65.03665817 62.35796844 66.31550385 62.37937927 67.63310242 C62.43497233 71.08352983 62.48432514 74.53402019 62.53222656 77.98456192 C62.56252097 80.12648294 62.59476031 82.26836571 62.62768555 84.4102478 C62.89010776 101.49844307 63.0962068 118.58280987 62.97192383 135.67333984 C62.93780203 142.51276548 63.06022953 149.32086241 63.359375 156.15234375 C63.39099731 156.91718582 63.42261963 157.68202789 63.4552002 158.470047 C63.60812188 162.14082655 63.78142171 165.80813881 63.99609375 169.47583008 C64.05410156 170.7677124 64.11210937 172.05959473 64.171875 173.390625 C64.2347168 174.52532227 64.29755859 175.66001953 64.36230469 176.82910156 C63.90769507 180.80785475 62.47499383 182.89854122 60 186 C51.99313908 190.00343046 39.0104882 185.42561434 31 183 C18.24617018 178.63654017 6.94981934 173.16988189 -3 164 C-3.54591797 163.50483887 -4.09183594 163.00967773 -4.65429688 162.49951172 C-21.64938042 146.89148396 -31.80501664 128.36600162 -37 106 C-37.18763916 105.23187988 -37.37527832 104.46375977 -37.56860352 103.67236328 C-39.09960756 96.89015844 -39.34827619 90.31251529 -39.3125 83.375 C-39.30686035 82.22854004 -39.3012207 81.08208008 -39.29541016 79.90087891 C-38.94176488 55.06517652 -30.06567178 30.89403001 -13.390625 12.1953125 C-12 11 -12 11 -10 11 C-9.63261719 10.12601563 -9.63261719 10.12601563 -9.2578125 9.234375 C-7.79564126 6.63697764 -6.15259586 5.16024169 -3.875 3.25 C-3.15054688 2.63640625 -2.42609375 2.0228125 -1.6796875 1.390625 C-1.12539062 0.93171875 -0.57109375 0.4728125 0 0 Z " fill="#B5E3EA" transform="translate(203,218)"/>
<path d="M0 0 C17.51545111 -0.04672138 35.03088278 -0.08198952 52.54638195 -0.10362434 C60.67913585 -0.11393678 68.81185103 -0.1279965 76.94458008 -0.15087891 C84.03308984 -0.17081377 91.12157156 -0.18371668 98.21010858 -0.18817699 C101.96340774 -0.19078421 105.71662668 -0.19691163 109.46990013 -0.21146011 C113.65990126 -0.2275697 117.84976292 -0.22797962 122.03979492 -0.22705078 C123.9063549 -0.23783661 123.9063549 -0.23783661 125.81062317 -0.24884033 C126.95340729 -0.246091 128.09619141 -0.24334167 129.27360535 -0.24050903 C130.75999653 -0.24327441 130.75999653 -0.24327441 132.27641582 -0.24609566 C135.24713339 0.0223303 137.35300836 0.63106478 140 2 C143.33866833 7.0080025 141.90023931 12.23846842 141 18 C138.82791898 27.75275751 135.56175455 37.10867601 131 46 C130.54882812 46.91136719 130.09765625 47.82273438 129.6328125 48.76171875 C118.57871848 70.1827604 98.45272504 86.87425315 75.70996094 94.79785156 C71.16275958 96.23650343 66.57449491 97.44957285 61.93310547 98.54345703 C60.34615089 98.91824928 58.76735957 99.3274469 57.19140625 99.74609375 C31.3860049 105.73294686 2.36049729 98.56739859 -19.875 85.00390625 C-28.89911638 79.21719162 -35.6370041 72.59194955 -42 64 C-41.26136719 63.72027344 -40.52273438 63.44054687 -39.76171875 63.15234375 C-23.23516729 56.621521 -12.00876817 47.793531 -4.44140625 31.5 C-1.1293567 23.45773333 0.17445458 16.25616468 0.06640625 7.6171875 C0.06161255 6.88169678 0.05681885 6.14620605 0.05187988 5.38842773 C0.03947732 3.59224473 0.02042551 1.79610969 0 0 Z " fill="#B5E3EA" transform="translate(315,199)"/>
<path d="M0 0 C0.78681152 0.00757324 1.57362305 0.01514648 2.38427734 0.02294922 C13.6347397 0.33950567 22.19837956 4.4115612 30.09375 12.35546875 C39.21166609 22.34267769 41.84877375 32.31754641 41.62890625 45.7734375 C40.45097502 55.5513091 35.69500853 65.01072686 28.1875 71.4375 C18.64667827 78.79033297 8.31397701 82.76468564 -3.8125 81.4375 C-11.42315699 80.16412159 -17.6352736 78.08433247 -23.8125 73.4375 C-24.84375 72.695 -25.875 71.9525 -26.9375 71.1875 C-30.65635445 67.63033487 -33.25728267 63.8875976 -35.8125 59.4375 C-36.43898437 58.36242187 -36.43898437 58.36242187 -37.078125 57.265625 C-41.41692471 48.40469601 -41.21021468 37.41810607 -39 27.9609375 C-34.79952585 16.67216321 -25.95226476 7.66851804 -15.06420898 2.62817383 C-9.98292846 0.51301164 -5.4773541 -0.0743212 0 0 Z " fill="#70C8F0" transform="translate(258.8125,167.5625)"/>
<path d="M0 0 C0.80759766 -0.00773438 1.61519531 -0.01546875 2.44726562 -0.0234375 C16.03177876 0.0203482 28.4893467 5.23320735 38.5625 14.25 C39.25085938 14.84554687 39.93921875 15.44109375 40.6484375 16.0546875 C50.56745443 25.21362651 56.81070508 38.02065925 57.80078125 51.4921875 C58.16884786 69.50807932 52.78842524 84.62857747 40.25390625 97.7421875 C36.03046734 101.67752536 31.69325024 104.61972191 26.5625 107.25 C25.58410156 107.75660156 24.60570312 108.26320313 23.59765625 108.78515625 C11.00046332 114.26684384 -5.78811092 114.85440026 -18.75 110.1875 C-20.67857264 109.2745055 -22.57776297 108.29610208 -24.4375 107.25 C-25.406875 106.71890625 -26.37625 106.1878125 -27.375 105.640625 C-40.81937066 97.67629673 -48.26719563 86.79148105 -53.4375 72.25 C-53.85 71.1775 -54.2625 70.105 -54.6875 69 C-58.08230957 52.02595213 -53.85943386 36.58645593 -44.5859375 22.421875 C-34.07644161 8.3227159 -17.51953647 -0.16698526 0 0 Z M-30.4375 30.25 C-38.56174843 40.36666454 -40.68321997 50.24352267 -39.73925781 62.984375 C-38.34869024 73.42488234 -32.42488544 82.52709849 -24.2734375 88.95703125 C-14.17991693 96.0849298 -2.97107075 98.75167516 9.265625 96.82421875 C21.12157408 94.06347632 30.06584763 87.49472104 36.5625 77.25 C42.53111439 66.75397324 42.90032206 56.61365036 40.4375 44.9375 C37.47473885 34.52630193 30.3876365 25.86792754 21.0625 20.4375 C3.28462215 10.71936901 -17.23226652 15.820752 -30.4375 30.25 Z " fill="#F5F4F4" transform="translate(258.4375,151.75)"/>
<path d="M0 0 C8.64938373 6.32521226 16.92604003 13.9620535 24 22 C24 22.66 24 23.32 24 24 C18.72 26.31 13.44 28.62 8 31 C6.96875 30.175 5.9375 29.35 4.875 28.5 C-17.89903045 11.61855085 -46.22502189 4.98418006 -74.29296875 8.46875 C-95.0810998 11.62682517 -114.49542115 20.84574217 -130 35 C-131.25876953 36.11955078 -131.25876953 36.11955078 -132.54296875 37.26171875 C-146.40626044 50.26527142 -154.49257848 67.01988856 -160 85 C-161.50390625 83.921875 -161.50390625 83.921875 -163 82 C-164.46434072 61.23298619 -154.76794823 37.71281548 -141.6484375 21.94921875 C-140.33746094 20.48935547 -140.33746094 20.48935547 -139 19 C-138.54786133 18.49033691 -138.09572266 17.98067383 -137.62988281 17.45556641 C-130.09314727 9.07180039 -121.65303221 2.76758578 -112 -3 C-110.59041016 -3.86238281 -110.59041016 -3.86238281 -109.15234375 -4.7421875 C-76.0798559 -23.11050449 -31.43551759 -19.97700758 0 0 Z " fill="#70C8F0" transform="translate(220,130)"/>
<path d="M0 0 C0.99 0.66 1.98 1.32 3 2 C2.72205207 16.52909617 -1.38276313 30.10233174 -8 43 C-8.45117188 43.91136719 -8.90234375 44.82273438 -9.3671875 45.76171875 C-20.42128152 67.1827604 -40.54727496 83.87425315 -63.29003906 91.79785156 C-67.83724042 93.23650343 -72.42550509 94.44957285 -77.06689453 95.54345703 C-78.65384911 95.91824928 -80.23264043 96.3274469 -81.80859375 96.74609375 C-107.6139951 102.73294686 -136.63950271 95.56739859 -158.875 82.00390625 C-167.89911638 76.21719162 -174.6370041 69.59194955 -181 61 C-179.12616097 60.20558928 -177.25087114 59.41460026 -175.375 58.625 C-174.33085937 58.18414062 -173.28671875 57.74328125 -172.2109375 57.2890625 C-171.15132813 56.86367188 -170.09171875 56.43828125 -169 56 C-167.47052734 55.33291016 -167.47052734 55.33291016 -165.91015625 54.65234375 C-163 54 -163 54 -160.53515625 55.08984375 C-159.71917969 55.69957031 -158.90320313 56.30929687 -158.0625 56.9375 C-135.92267926 72.15675431 -107.42254822 76.93587965 -81.03125 72.28125 C-77.26566087 71.4443536 -73.64171515 70.27210598 -70 69 C-68.80890625 68.62617188 -67.6178125 68.25234375 -66.390625 67.8671875 C-41.01339193 59.50045782 -20.41482448 42.22621492 -8.1796875 18.46484375 C-6.72192812 15.33322497 -5.34186419 12.18273413 -4 9 C-3.21128279 7.22785103 -2.41996721 5.4568541 -1.625 3.6875 C-1.08233162 2.45877525 -0.54022303 1.22980183 0 0 Z " fill="#70C8F0" transform="translate(454,202)"/>
<path d="M0 0 C15.75114019 -1.15628272 30.86831374 3.16838371 45 10 C46.07765625 10.51304688 47.1553125 11.02609375 48.265625 11.5546875 C55.91380088 15.41434835 61.93264764 19.97843897 68 26 C68.86625 26.825 69.7325 27.65 70.625 28.5 C71.800625 29.7375 71.800625 29.7375 73 31 C73.59167969 31.6084375 74.18335938 32.216875 74.79296875 32.84375 C80.54854448 38.98896819 84.88902999 45.66877015 89 53 C89.53625 53.9384375 90.0725 54.876875 90.625 55.84375 C102.79294369 79.4191409 105.12139756 109.67208051 97.39794922 134.97216797 C91.47884363 153.35021491 82.27800706 169.80257202 67 182 C64.76161374 179.08740101 62.70382723 176.11094822 60.75 173 C60.20859375 172.154375 59.6671875 171.30875 59.109375 170.4375 C58 168 58 168 58.09765625 166.07421875 C59.37028787 163.14881879 61.01551916 160.52907078 62.6875 157.8125 C77.38111083 132.78517499 80.21736882 103.20428723 73.1875 75.3125 C68.36630103 58.36792113 60.4412235 43.53899343 48 31 C46.7315625 29.6696875 46.7315625 29.6696875 45.4375 28.3125 C44.633125 27.549375 43.82875 26.78625 43 26 C42.46503906 25.48179688 41.93007813 24.96359375 41.37890625 24.4296875 C31.30896876 15.09248975 19.70469692 9.66614155 7 5 C5.35411714 4.37513043 3.70827225 3.75016084 2.0625 3.125 C1.051875 2.75375 0.04125 2.3825 -1 2 C-0.67 1.34 -0.34 0.68 0 0 Z " fill="#70C8F0" transform="translate(246,6)"/>
<path d="M0 0 C2.28363378 2.28363378 2.7152849 3.74795468 3.625 6.8125 C4.01558594 8.09060547 4.01558594 8.09060547 4.4140625 9.39453125 C5.02431101 12.10810297 5.31337257 14.23336789 5 17 C3.75 18.89453125 3.75 18.89453125 2 20.8125 C-12.55113723 38.49227932 -17.22177791 61.33686129 -17.375 83.625 C-17.38885742 84.82753418 -17.40271484 86.03006836 -17.41699219 87.26904297 C-17.35552449 99.13716191 -15.04212922 110.3402537 -10.875 121.4375 C-10.5749707 122.23679932 -10.27494141 123.03609863 -9.96582031 123.85961914 C-4.70740986 137.3232404 2.90757729 147.78336285 13 158 C13.56976563 158.64195312 14.13953125 159.28390625 14.7265625 159.9453125 C25.8052044 172.16022537 43.81767245 181.39926879 60 184 C60 184.66 60 185.32 60 186 C51.99313908 190.00343046 39.0104882 185.42561434 31 183 C18.24617018 178.63654017 6.94981934 173.16988189 -3 164 C-3.54591797 163.50483887 -4.09183594 163.00967773 -4.65429688 162.49951172 C-21.64938042 146.89148396 -31.80501664 128.36600162 -37 106 C-37.18763916 105.23187988 -37.37527832 104.46375977 -37.56860352 103.67236328 C-39.09960756 96.89015844 -39.34827619 90.31251529 -39.3125 83.375 C-39.30686035 82.22854004 -39.3012207 81.08208008 -39.29541016 79.90087891 C-38.94176488 55.06517652 -30.06567178 30.89403001 -13.390625 12.1953125 C-12 11 -12 11 -10 11 C-9.63261719 10.12601563 -9.63261719 10.12601563 -9.2578125 9.234375 C-7.79564126 6.63697764 -6.15259586 5.16024169 -3.875 3.25 C-3.15054688 2.63640625 -2.42609375 2.0228125 -1.6796875 1.390625 C-1.12539062 0.93171875 -0.57109375 0.4728125 0 0 Z " fill="#71C8F0" transform="translate(203,218)"/>
<path d="M0 0 C5.16544959 2.91780885 8.59906952 6.95548311 11.1875 12.25 C12.53274478 19.11074838 12.76848866 24.44243521 9.375 30.75 C6.03812624 35.68919542 2.54820514 38.68613965 -3.1875 40.4375 C-9.09606728 41.37166084 -14.35946295 41.37247248 -19.625 38.3125 C-24.93192928 34.39574346 -28.73664502 30.03229535 -30.1875 23.4375 C-31.00451325 16.43452925 -29.3509749 11.17065279 -25.1875 5.4375 C-17.88651616 -0.89172417 -9.25680133 -4.1655606 0 0 Z " fill="#606774" transform="translate(269.1875,188.5625)"/>
<path d="M0 0 C4.27069964 -0.08824695 8.54115989 -0.14080654 12.8125 -0.1875 C14.00810547 -0.21263672 15.20371094 -0.23777344 16.43554688 -0.26367188 C29.22160599 -0.36819007 40.25099708 2.11199741 50.00390625 10.78125 C58.82958262 20.08347477 61.19282879 30.64993079 61.3125 43 C61.34150391 43.99773437 61.37050781 44.99546875 61.40039062 46.0234375 C61.40876953 46.98507812 61.41714844 47.94671875 61.42578125 48.9375 C61.44036377 49.81277344 61.45494629 50.68804687 61.4699707 51.58984375 C60.82775727 54.88331439 59.68543273 56.02799545 57 58 C54.34277344 58.45410156 54.34277344 58.45410156 51.359375 58.390625 C49.75449219 58.37128906 49.75449219 58.37128906 48.1171875 58.3515625 C47.00601563 58.31804688 45.89484375 58.28453125 44.75 58.25 C43.06003906 58.22292969 43.06003906 58.22292969 41.3359375 58.1953125 C38.55643104 58.14820222 35.7786466 58.08243361 33 58 C33.495 57.01 33.495 57.01 34 56 C34.66 56 35.32 56 36 56 C39.42053713 45.18668909 37.3512231 31.09389961 32.62890625 21.09765625 C27.35659871 11.88060062 19.36396884 5.34318313 9.08203125 2.453125 C6.05746144 1.79486966 3.07878136 1.32752993 0 1 C0 0.67 0 0.34 0 0 Z " fill="#FF902A" transform="translate(312,454)"/>
<path d="M0 0 C0 14.85 0 29.7 0 45 C-7.59 45 -15.18 45 -23 45 C-23 31.14 -23 17.28 -23 3 C-19.39611165 1.79870388 -15.8147409 1.39099375 -12.0625 0.9375 C-11.34642578 0.84662109 -10.63035156 0.75574219 -9.89257812 0.66210938 C-6.55653108 0.25090061 -3.36747121 0 0 0 Z " fill="#FE902B" transform="translate(295,410)"/>
</svg>
