<?xml version="1.0" encoding="UTF-8"?>
<svg version="1.1" xmlns="http://www.w3.org/2000/svg" width="512" height="512">
<path d="M0 0 C0.78777832 0.19867676 1.57555664 0.39735352 2.38720703 0.60205078 C22.9724529 5.92066956 40.74291845 15.23807179 57 29 C57.8353125 29.69996094 58.670625 30.39992187 59.53125 31.12109375 C85.64593843 53.72964346 100.66077897 86.68929938 103.6875 120.75 C103.80999037 122.83233633 103.91493059 124.91579951 104 127 C104.061875 128.423125 104.061875 128.423125 104.125 129.875 C104.3888941 142.01412855 102.76120803 153.89026842 99.75 165.625 C99.56993408 166.33922119 99.38986816 167.05344238 99.2043457 167.78930664 C95.82653142 180.20696693 90.34805057 191.66196104 84.28106689 202.94772339 C75.39844258 219.55117965 67.91666778 236.39928604 62.34765625 254.41796875 C62.12446716 255.14010056 61.90127808 255.86223236 61.67132568 256.60624695 C60.58083844 260.15612622 59.51446053 263.71103162 58.48486328 267.27905273 C53.79943644 283.25760048 53.79943644 283.25760048 46.125 287.875 C45.50882813 288.26429688 44.89265625 288.65359375 44.2578125 289.0546875 C41.23675167 290.31956072 38.23480993 290.57536948 35 291 C35.00888245 292.12229004 35.01776489 293.24458008 35.0269165 294.40087891 C35.10811605 304.99395428 35.16802003 315.58696624 35.20724869 326.18028259 C35.22809479 331.62601729 35.2563583 337.0715001 35.30175781 342.51708984 C35.34532136 347.77555812 35.36915949 353.03378458 35.37950897 358.29241943 C35.38688146 360.29542851 35.40127822 362.29842484 35.42292023 364.30133057 C35.45209378 367.11393501 35.45595017 369.92554907 35.45410156 372.73828125 C35.46848267 373.56043625 35.48286377 374.38259125 35.49768066 375.22966003 C35.45768791 380.8786366 34.26047835 385.3196787 31 390 C26.67656765 393.44109922 23.17019534 395.11658034 17.66889954 395.14717102 C16.34220497 395.15790398 16.34220497 395.15790398 14.9887085 395.16885376 C13.53697235 395.17288712 13.53697235 395.17288712 12.0559082 395.17700195 C11.03444199 395.18357315 10.01297577 395.19014435 8.96055603 395.19691467 C5.57396371 395.21665416 2.18741577 395.22831239 -1.19921875 395.23828125 C-2.93429152 395.24439454 -2.93429152 395.24439454 -4.70441628 395.25063133 C-10.8279261 395.27149585 -16.95141349 395.28579537 -23.07495117 395.29516602 C-29.39557116 395.3062251 -35.7158386 395.34061857 -42.03633404 395.38033772 C-46.89973092 395.40650257 -51.76304383 395.41485782 -56.6265049 395.41844749 C-58.95605663 395.42331454 -61.28560458 395.43493181 -63.61508751 395.45348549 C-66.87998626 395.47787096 -70.14397332 395.47691244 -73.40893555 395.4699707 C-74.84548996 395.48918579 -74.84548996 395.48918579 -76.31106567 395.50878906 C-82.30514566 395.46246862 -87.05041015 394.54608824 -92 391 C-96.65273975 385.15425006 -97.14452824 380.55054402 -97.11352539 373.3059082 C-97.11367142 372.4178952 -97.11381744 371.5298822 -97.1139679 370.61495972 C-97.11327068 367.67687546 -97.10548718 364.73885444 -97.09765625 361.80078125 C-97.09579139 359.76482681 -97.09436781 357.72887192 -97.09336853 355.69291687 C-97.08954869 350.33188643 -97.07972292 344.97088303 -97.06866455 339.60986328 C-97.05843899 334.1403032 -97.05386845 328.67073876 -97.04882812 323.20117188 C-97.03810021 312.46743603 -97.02103015 301.73372026 -97 291 C-97.93184113 290.80355896 -97.93184113 290.80355896 -98.88250732 290.60314941 C-99.6956842 290.42795776 -100.50886108 290.25276611 -101.34667969 290.07226562 C-102.55695831 289.81394958 -102.55695831 289.81394958 -103.79168701 289.55041504 C-108.80546206 288.30074744 -112.60917614 285.20854062 -115.34790039 280.85961914 C-118.4187743 274.68566598 -120.43698447 268.593019 -122.1875 261.9375 C-128.52429437 239.18643851 -138.07340487 217.19803875 -149.54614258 196.56396484 C-166.99602702 165.00860161 -170.36759012 127.58246438 -160.61376953 93.01123047 C-158.82800009 87.15953253 -156.4998288 81.57793126 -154 76 C-153.21302734 74.24042969 -153.21302734 74.24042969 -152.41015625 72.4453125 C-146.25933913 59.44899775 -137.93108287 48.36980541 -128 38 C-126.7934375 36.7315625 -126.7934375 36.7315625 -125.5625 35.4375 C-124.716875 34.633125 -123.87125 33.82875 -123 33 C-122.34128906 32.35804688 -121.68257812 31.71609375 -121.00390625 31.0546875 C-101.90069275 13.04935984 -77.66556185 2.60983392 -52 -2 C-50.48019531 -2.2784375 -50.48019531 -2.2784375 -48.9296875 -2.5625 C-32.81241733 -4.35686805 -15.74500089 -4.08584425 0 0 Z " fill="#FDE46F" transform="translate(287,112)"/>
<path d="M0 0 C43.56 0 87.12 0 132 0 C132.0825 14.85 132.165 29.7 132.25 45 C132.28641602 49.67800781 132.32283203 54.35601562 132.36035156 59.17578125 C132.37841797 64.91601562 132.37841797 64.91601562 132.3817749 67.60864258 C132.38789192 69.4774965 132.40190771 71.34633524 132.42230225 73.21508789 C132.45174404 76.0564286 132.45561876 78.89681 132.45410156 81.73828125 C132.468494 82.56201736 132.48288643 83.38575348 132.497715 84.23445129 C132.45757239 89.88141702 131.259217 94.32148934 128 99 C123.67656765 102.44109922 120.17019534 104.11658034 114.66889954 104.14717102 C113.78443649 104.15432632 112.89997345 104.16148163 111.9887085 104.16885376 C111.0208844 104.17154266 110.0530603 104.17423157 109.0559082 104.17700195 C108.03444199 104.18357315 107.01297577 104.19014435 105.96055603 104.19691467 C102.57396371 104.21665416 99.18741577 104.22831239 95.80078125 104.23828125 C94.06570848 104.24439454 94.06570848 104.24439454 92.29558372 104.25063133 C86.1720739 104.27149585 80.04858651 104.28579537 73.92504883 104.29516602 C67.60442884 104.3062251 61.2841614 104.34061857 54.96366596 104.38033772 C50.10026908 104.40650257 45.23695617 104.41485782 40.3734951 104.41844749 C38.04394337 104.42331454 35.71439542 104.43493181 33.38491249 104.45348549 C30.12001374 104.47787096 26.85602668 104.47691244 23.59106445 104.4699707 C22.63336151 104.48278076 21.67565857 104.49559082 20.68893433 104.50878906 C14.69485434 104.46246862 9.94958985 103.54608824 5 100 C0.34731838 94.1543231 -0.14449245 89.55021441 -0.11352539 82.3059082 C-0.11364593 81.4035377 -0.11376646 80.5011672 -0.11389065 79.57145214 C-0.11314372 76.64787018 -0.10552546 73.72435182 -0.09765625 70.80078125 C-0.09618615 68.99686717 -0.09516586 67.19295267 -0.09460449 65.38903809 C-0.0893595 58.69685222 -0.07539832 52.00467549 -0.0625 45.3125 C-0.041875 30.359375 -0.02125 15.40625 0 0 Z " fill="#9CD6FC" transform="translate(190,403)"/>
<path d="M0 0 C14.60488733 -0.32844574 28.77670489 -0.63502353 43 3 C44.18601807 3.29801514 44.18601807 3.29801514 45.39599609 3.60205078 C65.97665592 8.92154369 83.74648231 18.24108866 100 32 C100.8353125 32.69996094 101.670625 33.39992187 102.53125 34.12109375 C128.64593843 56.72964346 143.66077897 89.68929938 146.6875 123.75 C146.80999037 125.83233633 146.91493059 127.91579951 147 130 C147.04125 130.94875 147.0825 131.8975 147.125 132.875 C147.3888941 145.01412855 145.76120803 156.89026842 142.75 168.625 C142.56993408 169.33922119 142.38986816 170.05344238 142.2043457 170.78930664 C138.82653142 183.20696693 133.34805057 194.66196104 127.28106689 205.94772339 C118.39844258 222.55117965 110.91666778 239.39928604 105.34765625 257.41796875 C105.12446716 258.14010056 104.90127808 258.86223236 104.67132568 259.60624695 C103.58083844 263.15612622 102.51446053 266.71103162 101.48486328 270.27905273 C96.79943644 286.25760048 96.79943644 286.25760048 89.125 290.875 C88.20074219 291.45894531 88.20074219 291.45894531 87.2578125 292.0546875 C79.95708651 295.11139284 71.77402948 293.91431073 64.0625 293.5625 C62.80630859 293.51029297 61.55011719 293.45808594 60.25585938 293.40429688 C57.17028299 293.27524235 54.08508195 293.1403033 51 293 C52.93307497 291.71128335 54.8904687 290.45797557 56.875 289.25 C62.6541205 285.08903324 65.41703844 280.93480763 67.5 274.1875 C67.70520264 273.53934326 67.91040527 272.89118652 68.12182617 272.22338867 C69.18932214 268.81399959 70.17966574 265.38497924 71.14453125 261.9453125 C77.28891768 240.10178462 86.59131132 219.22742577 97.62060547 199.41357422 C103.17988148 189.37899689 106.90883058 179.03576373 110 168 C110.2259082 167.19755859 110.45181641 166.39511719 110.68457031 165.56835938 C115.98109426 145.86301221 116.24020221 123.73031602 111 104 C110.83902832 103.3409668 110.67805664 102.68193359 110.51220703 102.00292969 C104.58990642 77.8472252 92.25656948 57.64273047 75 40 C74.00419922 38.91138672 74.00419922 38.91138672 72.98828125 37.80078125 C54.30679748 17.82253505 25.61533476 5.88711934 -1 2 C-0.67 1.34 -0.34 0.68 0 0 Z " fill="#FDBF02" transform="translate(244,109)"/>
<path d="M0 0 C33 0 66 0 100 0 C100 18.81 100 37.62 100 57 C67 57 34 57 0 57 C0 38.19 0 19.38 0 0 Z " fill="#9BD6FC" transform="translate(190,403)"/>
<path d="M0 0 C10.56 0 21.12 0 32 0 C32.09048417 11.72674838 32.16382176 23.45326367 32.20724869 35.18028259 C32.22809479 40.62601729 32.2563583 46.0715001 32.30175781 51.51708984 C32.34532136 56.77555812 32.36915949 62.03378458 32.37950897 67.29241943 C32.38688146 69.29542851 32.40127822 71.29842484 32.42292023 73.30133057 C32.45209378 76.11393501 32.45595017 78.92554907 32.45410156 81.73828125 C32.47567322 82.97151375 32.47567322 82.97151375 32.49768066 84.22966003 C32.45768791 89.8786366 31.26047835 94.3196787 28 99 C23.57309605 102.52345417 20.05898308 104.12892872 14.43676758 104.11352539 C13.51603958 104.11344986 12.59531158 104.11337433 11.64668274 104.11329651 C10.65597275 104.10813522 9.66526276 104.10297394 8.64453125 104.09765625 C7.62775803 104.0962413 6.6109848 104.09482635 5.56340027 104.09336853 C2.31307036 104.08776707 -0.93719088 104.07521432 -4.1875 104.0625 C-6.38997296 104.05748519 -8.59244701 104.05292225 -10.79492188 104.04882812 C-16.19663804 104.03779717 -21.59831412 104.02105762 -27 104 C-27 103.67 -27 103.34 -27 103 C-26.27554687 102.82984375 -25.55109375 102.6596875 -24.8046875 102.484375 C-15.78075115 100.22237496 -9.27917598 96.85221973 -4 89 C-1.38744218 83.79289847 -0.55631502 79.52351042 -0.56762695 73.67797852 C-0.5574353 72.87716354 -0.54724365 72.07634857 -0.53674316 71.25126648 C-0.50675733 68.6270739 -0.4973695 66.00324721 -0.48828125 63.37890625 C-0.47142385 61.55043844 -0.45327218 59.72198215 -0.43388367 57.89353943 C-0.38649277 53.09815062 -0.35661293 48.3028085 -0.33044434 43.50726318 C-0.30058365 38.60696188 -0.25407227 33.70682129 -0.20898438 28.80664062 C-0.12307529 19.20449291 -0.05721524 9.6023616 0 0 Z " fill="#6EBAE7" transform="translate(290,403)"/>
<path d="M0 0 C9.93206499 0.60295841 19.76547079 13.40952513 26.74609375 19.96484375 C29.94652299 22.96518827 33.2186183 25.87250919 36.546875 28.73046875 C37.74060625 29.77337911 38.87913955 30.87913955 40 32 C39.71215177 36.37832305 37.74918104 39.2724782 35.375 42.875 C31.41792209 49.02545026 28.33150177 55.41178608 25.34765625 62.078125 C24 65 24 65 23 66 C15.42177565 65.5916905 8.28801014 63.66591207 0.99804688 61.67138672 C-0.99422189 61.12658008 -2.98896874 60.59178121 -4.984375 60.05859375 C-24.07365473 54.92634527 -24.07365473 54.92634527 -27 52 C-25.58051269 34.48454053 -12.25787962 12.25787962 0 0 Z " fill="#FEF2C8" transform="translate(175,189)"/>
<path d="M0 0 C2.25982954 4.19348175 3.68195705 8.0826594 4.75390625 12.71875 C5.05103516 13.98074219 5.34816406 15.24273437 5.65429688 16.54296875 C5.9574665 17.86187919 6.26019734 19.18089057 6.5625 20.5 C7.16413941 23.0946696 7.77099688 25.68803314 8.37890625 28.28125 C8.77444702 29.99924805 8.77444702 29.99924805 9.17797852 31.75195312 C9.96362786 35.02574471 9.96362786 35.02574471 11.08911133 38.26025391 C11.99875186 40.99624587 12.21172493 43.01307723 12.125 45.875 C12.10695313 46.65617187 12.08890625 47.43734375 12.0703125 48.2421875 C12.04710937 48.82226562 12.02390625 49.40234375 12 50 C11.50113281 50.20753906 11.00226563 50.41507813 10.48828125 50.62890625 C1.99770617 54.2720794 -6.64941123 58.2881392 -14 63.9375 C-17.29283785 66.20132602 -18.149109 66.70937466 -22 66 C-24.15007999 64.11117275 -25.90326241 62.33932464 -27.75 60.1875 C-28.27513184 59.59727051 -28.80026367 59.00704102 -29.34130859 58.39892578 C-33.27649806 53.94144024 -37.04880493 49.35319711 -40.75390625 44.703125 C-42.3856404 42.73936843 -44.01904682 40.88907282 -45.77734375 39.046875 C-46.4731958 38.31331787 -46.4731958 38.31331787 -47.18310547 37.56494141 C-48.48810787 36.20265748 -49.80808706 34.85476662 -51.12890625 33.5078125 C-53 31 -53 31 -53.71484375 28.5546875 C-51.9399046 22.21146236 -43.83361948 18.35808599 -38.5 15.0625 C-37.81292969 14.63573975 -37.12585938 14.20897949 -36.41796875 13.76928711 C-29.53526218 9.58005289 -22.39792795 6.17054055 -15 3 C-14.1853125 2.6390625 -13.370625 2.278125 -12.53125 1.90625 C-8.13227854 0.07898493 -4.67279913 -0.29204995 0 0 Z " fill="#FEF2C9" transform="translate(244,147)"/>
<path d="M0 0 C1.34771484 -0.04930664 1.34771484 -0.04930664 2.72265625 -0.09960938 C7.28672684 -0.13668824 9.44886638 -0.06083869 13.21484375 2.71484375 C15.53129841 6.01662064 15.9383884 7.5911368 15.671875 11.5 C14.620267 15.22569693 12.34583055 16.56356223 9.125 18.4375 C6.815 18.4375 4.505 18.4375 2.125 18.4375 C2.125 51.4375 2.125 84.4375 2.125 118.4375 C-3.815 118.4375 -9.755 118.4375 -15.875 118.4375 C-15.94447276 104.051282 -15.99779756 89.66510383 -16.03043652 75.27875233 C-16.0461006 68.59877178 -16.06735269 61.91892818 -16.10131836 55.23901367 C-16.13388485 48.79402729 -16.15184743 42.34915128 -16.15963173 35.90408897 C-16.16518007 33.44367421 -16.17601443 30.98326557 -16.19219017 28.52289772 C-16.21392792 25.07999176 -16.21696839 21.63754349 -16.21557617 18.19458008 C-16.226362 17.17462448 -16.23714783 16.15466888 -16.2482605 15.10380554 C-16.20987132 6.3457284 -16.20987132 6.3457284 -12.875 2.4375 C-8.63335919 -0.39026054 -4.99000278 0.0319417 0 0 Z " fill="#FCBF02" transform="translate(244.875,284.5625)"/>
<path d="M0 0 C33 0 66 0 100 0 C100 5.94 100 11.88 100 18 C67 18 34 18 0 18 C0 12.06 0 6.12 0 0 Z " fill="#9CD6FC" transform="translate(190,442)"/>
<path d="M0 0 C4.14526155 2.5069551 7.54842594 5.2995385 10.96386719 8.72094727 C11.89793396 9.65193741 12.83200073 10.58292755 13.79437256 11.54212952 C14.79538816 12.55004158 15.79621794 13.55813823 16.796875 14.56640625 C17.83689433 15.60761933 18.87728541 16.64846121 19.91802979 17.68894958 C22.08958306 19.86206093 24.25775364 22.03847179 26.42333984 24.2175293 C29.19789045 27.00912172 31.9790313 29.79403316 34.76249313 32.5767374 C36.90747155 34.72198772 39.04983429 36.86983393 41.19132233 39.01856804 C42.21618155 40.0466057 43.24164426 41.07404212 44.26772308 42.1008625 C45.69890466 43.53421336 47.12639396 44.97124804 48.55371094 46.40844727 C49.36612244 47.22467056 50.17853394 48.04089386 51.01556396 48.8818512 C54.42015053 52.51584133 55.51257499 54.96316274 55.3828125 59.99609375 C54.71645562 63.48426801 52.77191929 64.96725919 50 67 C46.54478709 68.45482649 45.21937775 68.07920864 41.65901184 66.79370117 C38.07454422 65.19146429 35.61022649 63.09981454 32.83081055 60.30078125 C32.36482956 59.83699066 31.89884857 59.37320007 31.41874695 58.89535522 C29.89826664 57.37716536 28.39248701 55.84527081 26.88671875 54.3125 C25.82614865 53.24700002 24.76475892 52.18231531 23.70259094 51.1184082 C21.48693255 48.89513699 19.27787165 46.66559387 17.07397461 44.43066406 C14.25021242 41.56720819 11.41567796 38.71473522 8.57684612 35.8662262 C5.86409232 33.14350041 3.15631238 30.41585183 0.44921875 27.6875 C-0.06634394 27.16854156 -0.58190662 26.64958313 -1.11309242 26.11489868 C-2.57072503 24.64567931 -4.02482489 23.17305911 -5.4777832 21.69921875 C-6.30494339 20.86221436 -7.13210358 20.02520996 -7.98432922 19.1628418 C-11.72856869 15.1452226 -12.56705057 12.56085721 -12.4453125 7.23046875 C-11.93142168 4.65650682 -11.29717967 3.6936275 -9.375 1.9375 C-5.67605318 -0.18596947 -4.16287602 -0.78053925 0 0 Z " fill="#FDBF00" transform="translate(385,378)"/>
<path d="M0 0 C3.48318005 1.99960336 5.36855504 3.1877173 6.69140625 6.984375 C7.11564431 10.78231573 6.58046596 13.2211457 4.2772522 16.3115387 C3.53945526 17.09504196 2.80165833 17.87854523 2.04150391 18.68579102 C1.22441956 19.5592215 0.40733521 20.43265198 -0.43450928 21.33255005 C-1.28112122 22.21280853 -2.12773315 23.09306702 -3 24 C-4.16042816 25.21077713 -4.16042816 25.21077713 -5.34429932 26.4460144 C-7.74746505 28.92683056 -10.17013146 31.38673175 -12.6015625 33.83984375 C-13.4822641 34.7286171 -14.3629657 35.61739044 -15.27035522 36.53309631 C-17.11595202 38.39241034 -18.96302527 40.2502599 -20.81152344 42.10668945 C-22.69539007 44.0021627 -24.57541188 45.90057814 -26.44921875 47.8059082 C-29.17778394 50.57704777 -31.91927312 53.33478433 -34.6640625 56.08984375 C-35.9127562 57.36479958 -35.9127562 57.36479958 -37.18667603 58.66551208 C-41.52827525 62.99105914 -45.04996553 66.28543482 -51 68 C-54.72799231 67.44080115 -57.04321103 66.80246817 -59.9375 64.375 C-61.57298451 60.7192111 -62.13357583 57.82415621 -61 54 C-59.30696106 51.7401123 -59.30696106 51.7401123 -57.07348633 49.35742188 C-55.84524643 48.04124878 -55.84524643 48.04124878 -54.5921936 46.69848633 C-50.45800212 42.3947726 -46.29132579 38.12881581 -42.07421875 33.90625 C-41.16420609 32.99290894 -40.25419342 32.07956787 -39.31660461 31.1385498 C-37.41162998 29.22765636 -35.50467118 27.31876951 -33.59643555 25.41113281 C-31.15593966 22.97073959 -28.72246163 20.52347058 -26.29057598 18.07450104 C-23.95211113 15.72226081 -21.60648782 13.37720598 -19.26171875 11.03125 C-18.39189865 10.15424438 -17.52207855 9.27723877 -16.62590027 8.37365723 C-15.81438004 7.56521362 -15.0028598 6.75677002 -14.16674805 5.92382812 C-13.45665085 5.21230591 -12.74655365 4.50078369 -12.01493835 3.7677002 C-8.19840159 0.41946239 -5.09241861 -0.71293861 0 0 Z " fill="#FDBF00" transform="translate(133,378)"/>
<path d="M0 0 C3.57108844 2.63950015 4.83974641 4.02067248 5.5625 8.4375 C4.59586272 14.55953609 0.68327237 18.56651929 -3.58154297 22.85620117 C-4.48282928 23.7670195 -5.3841156 24.67783783 -6.31271362 25.61625671 C-7.28887542 26.59215709 -8.265375 27.56771969 -9.2421875 28.54296875 C-10.25364635 29.55832048 -11.26488329 30.5738933 -12.27590942 31.5896759 C-14.38905013 33.71025055 -16.50598769 35.82694489 -18.62548828 37.94116211 C-21.33284871 40.64272018 -24.02865161 43.3554942 -26.72149467 46.07151318 C-28.80440927 48.16919786 -30.89425069 50.25987396 -32.98611832 52.34862709 C-33.98275148 53.34577143 -34.97704295 54.34526228 -35.96886826 55.34718895 C-37.35857954 56.74931517 -38.75893708 58.14086475 -40.15966797 59.53198242 C-40.95146454 60.32440842 -41.74326111 61.11683441 -42.55905151 61.93327332 C-46.42501877 65.20654915 -49.51463678 67.02560971 -54.625 66.9375 C-58.45164734 65.87454241 -59.89265493 65.37175211 -62 62 C-62.94590396 58.73596521 -62.84706231 56.28533584 -62 53 C-60.29962158 50.69128418 -60.29962158 50.69128418 -58.06738281 48.32617188 C-57.24911011 47.45323486 -56.4308374 46.58029785 -55.58776855 45.6809082 C-54.73380493 44.7962085 -53.87984131 43.91150879 -53 43 C-51.81331726 41.76672974 -51.81331726 41.76672974 -50.60266113 40.50854492 C-48.12119742 37.95780465 -45.61947635 35.42880535 -43.109375 32.90625 C-42.20173401 31.99290894 -41.29409302 31.07956787 -40.35894775 30.1385498 C-38.45830385 28.22752509 -36.5554448 26.31873587 -34.65136719 24.41113281 C-32.21819573 21.97242116 -29.79448893 19.52451649 -27.37270737 17.07450104 C-25.04149182 14.7201939 -22.69973809 12.37646353 -20.359375 10.03125 C-19.49471619 9.15424438 -18.63005737 8.27723877 -17.73919678 7.37365723 C-16.92775208 6.56521362 -16.11630737 5.75677002 -15.28027344 4.92382812 C-14.57239685 4.21230591 -13.86452026 3.50078369 -13.13519287 2.7677002 C-8.86495269 -0.76757969 -5.31628535 -1.66133917 0 0 Z " fill="#FDBF00" transform="translate(435,78)"/>
<path d="M0 0 C6.60687697 4.91492772 12.31732179 11.17136242 18.1171875 16.984375 C19.06488752 17.93139963 20.01273579 18.87827593 20.96072388 19.82501221 C22.93051957 21.79334557 24.89852528 23.76344601 26.86523438 25.73486328 C29.38360972 28.25897454 31.90650219 30.77851589 34.43072319 33.29677963 C36.84947431 35.71105266 39.26441352 38.12912333 41.6796875 40.546875 C42.584841 41.45000427 43.48999451 42.35313354 44.4225769 43.28363037 C45.25749664 44.12170227 46.09241638 44.95977417 46.95263672 45.82324219 C48.055616 46.92741486 48.055616 46.92741486 49.18087769 48.05389404 C52.90376834 52.03666069 53.45358073 54.5947264 53.30859375 59.83984375 C53 62 53 62 51.4375 64.5 C48.11855975 66.54242477 45.90799394 67 42 67 C34.71946056 63.79658596 29.62714767 58.04537541 24.10546875 52.46875 C23.06702456 51.42978636 22.02805991 50.39134268 20.98860168 49.35339355 C18.82137989 47.18608244 16.65938201 45.013735 14.5012207 42.83740234 C11.73797031 40.05139529 8.96370618 37.27667385 6.18569469 34.50539398 C4.04317081 32.36621326 1.90566874 30.22207249 -0.23026085 28.0763092 C-1.2515836 27.05114552 -2.27424831 26.02731693 -3.29828835 25.00486755 C-4.72699554 23.57653193 -6.14845395 22.14095675 -7.56958008 20.70507812 C-8.37897537 19.89107544 -9.18837067 19.07707275 -10.02229309 18.23840332 C-12.88996828 14.99271832 -13.8901753 12.86290839 -14.4375 8.5625 C-13.88513619 4.06468043 -12.49934712 2.76692563 -9 0 C-5.26121635 -1.24626122 -3.78878042 -1.14378277 0 0 Z " fill="#FDBF00" transform="translate(86,78)"/>
<path d="M0 0 C1.08807701 -0.00503792 1.08807701 -0.00503792 2.19813538 -0.01017761 C4.60297342 -0.01969864 7.00774192 -0.02163137 9.41259766 -0.02270508 C11.08167551 -0.02591712 12.75075307 -0.02928115 14.41983032 -0.03279114 C17.92198336 -0.03878547 21.42411172 -0.04063075 24.92626953 -0.04003906 C29.41437893 -0.03993748 33.90232997 -0.05358399 38.39040184 -0.07081127 C41.83906786 -0.0819296 45.2876956 -0.08395831 48.73637772 -0.08342934 C50.39098277 -0.08460992 52.0455888 -0.08903611 53.70017624 -0.0967617 C56.01507398 -0.10655722 58.329628 -0.10368527 60.64453125 -0.09765625 C61.96198334 -0.09908127 63.27943542 -0.10050629 64.6368103 -0.10197449 C67.75234309 0.1303976 69.42580442 0.37034488 71.95166016 2.14526367 C74.62255183 6.15160118 74.65859888 9.43517795 73.95166016 14.14526367 C71.75334652 17.17742042 70.50202822 17.96180765 66.95166016 19.14526367 C64.63261889 19.25037667 62.31064675 19.29396568 59.98925781 19.30639648 C58.93263191 19.31384384 58.93263191 19.31384384 57.85466003 19.32144165 C55.52500429 19.33604308 53.19541663 19.3428617 50.86572266 19.34838867 C49.24531045 19.35414156 47.62489826 19.35989928 46.00448608 19.36566162 C42.60666588 19.3761657 39.20886931 19.38201232 35.81103516 19.38549805 C31.46086469 19.39098312 27.11100716 19.41501374 22.76093483 19.44347 C19.41345308 19.46210895 16.06604656 19.46730263 12.7185173 19.46883392 C11.11496646 19.47185789 9.51141687 19.47987782 7.90791702 19.4930191 C5.66265401 19.51010717 3.41815353 19.50819308 1.17285156 19.50170898 C-0.10383392 19.50535461 -1.38051941 19.50900024 -2.69589233 19.51275635 C-6.32710854 19.11470526 -8.1683598 18.35157576 -11.04833984 16.14526367 C-13.53993024 12.40787808 -13.50627269 10.57194785 -13.04833984 6.14526367 C-9.21940235 0.27422618 -6.78755922 0.01966226 0 0 Z " fill="#FDBF00" transform="translate(438.04833984375,251.854736328125)"/>
<path d="M0 0 C0.72377838 -0.0065712 1.44755676 -0.0131424 2.19326782 -0.01991272 C4.59328308 -0.03965535 6.99323573 -0.05131054 9.39331055 -0.0612793 C10.21267782 -0.06535482 11.0320451 -0.06943035 11.87624168 -0.07362938 C16.21322758 -0.09449448 20.55018179 -0.10879414 24.88720703 -0.11816406 C29.36640872 -0.12922808 33.84511355 -0.16362626 38.3241396 -0.20333576 C41.76855898 -0.22948465 45.2128597 -0.23785435 48.65736961 -0.24144554 C50.30838564 -0.24631619 51.95939621 -0.25794386 53.61031532 -0.27648354 C55.92290191 -0.30083878 58.23419936 -0.29991722 60.546875 -0.29296875 C62.51972221 -0.30176811 62.51972221 -0.30176811 64.53242493 -0.31074524 C68.51849233 0.25523267 70.14821924 1.36183249 72.9675293 4.17700195 C74.51777394 7.27749124 74.25744945 9.75594413 73.9675293 13.17700195 C71.83073645 16.56639751 70.7900526 17.90282752 66.9675293 19.17700195 C64.64848803 19.28211495 62.32651589 19.32570396 60.00512695 19.33813477 C58.94850105 19.34558212 58.94850105 19.34558212 57.87052917 19.35317993 C55.54087343 19.36778136 53.21128577 19.37459998 50.8815918 19.38012695 C49.26117959 19.38587984 47.6407674 19.39163756 46.02035522 19.3973999 C42.62253502 19.40790398 39.22473845 19.4137506 35.8269043 19.41723633 C31.47673383 19.4227214 27.1268763 19.44675202 22.77680397 19.47520828 C19.42932222 19.49384723 16.0819157 19.49904092 12.73438644 19.5005722 C11.1308356 19.50359617 9.52728601 19.5116161 7.92378616 19.52475739 C5.67852315 19.54184545 3.43402267 19.53993136 1.1887207 19.53344727 C-0.08796478 19.5370929 -1.36465027 19.54073853 -2.68002319 19.54449463 C-7.27274926 19.04104359 -9.81244494 17.39702771 -13.0324707 14.17700195 C-13.53669064 11.13995628 -13.48714298 8.21897601 -13.0324707 5.17700195 C-9.24512436 0.12720683 -6.0688671 0.04550667 0 0 Z " fill="#FDBF00" transform="translate(13.032470703125,251.822998046875)"/>
<path d="M0 0 C2.75986515 2.18885857 3.754965 5.16848564 4.8125 8.4375 C5.19345093 11.89637756 5.19345093 11.89637756 5.20068359 15.56274414 C5.20594055 16.23687851 5.21119751 16.91101288 5.21661377 17.60557556 C5.22970901 19.8115119 5.22111477 22.01671388 5.2109375 24.22265625 C5.21296103 25.7676965 5.21587479 27.31273582 5.21963501 28.85777283 C5.22404395 32.0863459 5.21767287 35.314669 5.20361328 38.54321289 C5.18650762 42.67127622 5.19638003 46.79875491 5.21433067 50.92679691 C5.22519513 54.11393096 5.22171027 57.30092742 5.2139473 60.48806572 C5.21195338 62.00983182 5.21437603 63.53161063 5.22138596 65.05336189 C5.22904632 67.18312594 5.21733442 69.31195555 5.20068359 71.44165039 C5.19829681 72.65075577 5.19591003 73.85986115 5.19345093 75.10560608 C4.76605761 78.84369695 3.77191581 81.24109613 1.8125 84.4375 C-1.82108362 87.08010627 -3.40476156 87.55690078 -7.875 86.875 C-11.42582657 85.33407526 -12.35378235 84.74312041 -14.1875 81.4375 C-14.48226157 78.86965072 -14.60807277 76.54494238 -14.59155273 73.97851562 C-14.59841599 73.23333176 -14.60527924 72.48814789 -14.61235046 71.72038269 C-14.63062683 69.2613104 -14.62678037 66.80287552 -14.62109375 64.34375 C-14.6256548 62.63268832 -14.63096015 60.92162847 -14.63697815 59.21057129 C-14.6459106 55.62614495 -14.64348424 52.04194139 -14.63354492 48.45751953 C-14.62204833 43.86386903 -14.64227617 39.27098644 -14.67146206 34.67743683 C-14.68980556 31.14466467 -14.68953545 27.61207723 -14.68382454 24.07926941 C-14.68367113 22.38558372 -14.68973149 20.69188566 -14.70211601 18.99824524 C-14.71699184 16.63050084 -14.70637608 14.26418404 -14.68920898 11.89648438 C-14.69887695 11.19714279 -14.70854492 10.49780121 -14.71850586 9.77726746 C-14.66720678 6.39906663 -14.40836096 4.71597909 -12.28114319 2.03381348 C-8.29716789 -1.00379746 -4.87083216 -1.2524997 0 0 Z " fill="#FDBF00" transform="translate(261.1875,5.5625)"/>
<path d="M0 0 C33 0 66 0 100 0 C100 4.62 100 9.24 100 14 C67 14 34 14 0 14 C0 9.38 0 4.76 0 0 Z " fill="#84C9FD" transform="translate(190,460)"/>
<path d="M0 0 C33 0 66 0 100 0 C100 4.29 100 8.58 100 13 C67 13 34 13 0 13 C0 8.71 0 4.42 0 0 Z " fill="#84C9FE" transform="translate(190,429)"/>
<path d="M0 0 C31.68 0 63.36 0 96 0 C91.49427085 7.50954858 86.47838435 11.68922466 78 14 C74.29794024 14.85927105 70.84944224 15.14072659 67.05151367 15.17700195 C65.87646774 15.18983719 64.70142181 15.20267242 63.49076843 15.21589661 C62.22924454 15.22328354 60.96772064 15.23067047 59.66796875 15.23828125 C58.36225418 15.246353 57.05653961 15.25442474 55.71125793 15.26274109 C52.95000339 15.27772605 50.18877417 15.28758432 47.42749023 15.29516602 C43.9070665 15.30622281 40.38727612 15.34063118 36.86707592 15.38033772 C33.48823344 15.41291306 30.10945603 15.41729078 26.73046875 15.42578125 C24.84729195 15.45204338 24.84729195 15.45204338 22.92607117 15.47883606 C15.80345562 15.46124412 11.0114303 14.93618815 5 11 C1.78489329 7.12538423 1.00637977 5.03189883 0 0 Z " fill="#83C8FD" transform="translate(190,492)"/>
<path d="M0 0 C33 0 66 0 100 0 C100 2.31 100 4.62 100 7 C67 7 34 7 0 7 C0 4.69 0 2.38 0 0 Z " fill="#84C9FE" transform="translate(190,403)"/>
<path d="M0 0 C1.65878875 0.03513834 3.31764866 0.06707296 4.9765625 0.09570312 C9.02780528 0.17258293 13.07562012 0.29321904 17.125 0.4375 C16.3984375 7.09375 16.3984375 7.09375 13.9375 10.1875 C7.48137298 15.35240161 2.475003 15.85746156 -5.5234375 15.73046875 C-6.53596588 15.72622391 -7.54849426 15.72197906 -8.59170532 15.71760559 C-11.81141248 15.70087302 -15.03048344 15.66323026 -18.25 15.625 C-20.43879302 15.60994618 -22.62759589 15.596259 -24.81640625 15.58398438 C-30.16948626 15.55098732 -35.52219766 15.50084196 -40.875 15.4375 C-40.875 15.1075 -40.875 14.7775 -40.875 14.4375 C-40.15054687 14.26734375 -39.42609375 14.0971875 -38.6796875 13.921875 C-33.05077305 12.51089378 -28.40438097 11.22953988 -23.875 7.4375 C-23.40646606 6.57838013 -23.40646606 6.57838013 -22.9284668 5.7019043 C-18.1617619 -2.4034964 -8.18265573 -0.30021413 0 0 Z " fill="#70B9E5" transform="translate(303.875,491.5625)"/>
<path d="M0 0 C9.9 0 19.8 0 30 0 C30 5.94 30 11.88 30 18 C18.78 18 7.56 18 -4 18 C-2.79459905 11.97299524 -1.38206815 5.98896197 0 0 Z " fill="#4ABAED" transform="translate(291,474)"/>
<path d="M0 0 C9.9 0 19.8 0 30 0 C30 5.94 30 11.88 30 18 C20.1 18 10.2 18 0 18 C0 12.06 0 6.12 0 0 Z " fill="#49BAED" transform="translate(291,442)"/>
<path d="M0 0 C9.9 0 19.8 0 30 0 C30 5.61 30 11.22 30 17 C20.1 17 10.2 17 0 17 C0 11.39 0 5.78 0 0 Z " fill="#49BAED" transform="translate(291,411)"/>
<path d="M0 0 C3.375 2 3.375 2 5 5 C6.00876113 9.31332343 5.47965851 12.11447659 3.375 16 C-2.02876278 19.2022298 -7.87248492 18.85104376 -14 18 C-16.84847414 16.57576293 -18.75355908 15.24644092 -21 13 C-21.68503937 5.92125984 -21.68503937 5.92125984 -19.1875 2.5625 C-13.67489245 -1.37507682 -6.47012466 -0.65003589 0 0 Z " fill="#FDBF02" transform="translate(301,285)"/>
<path d="M0 0 C10.56 0 21.12 0 32 0 C32 2.31 32 4.62 32 7 C21.44 7 10.88 7 0 7 C0 4.69 0 2.38 0 0 Z " fill="#70B9E5" transform="translate(290,403)"/>
</svg>
