<?xml version="1.0" encoding="UTF-8"?>
<svg version="1.1" xmlns="http://www.w3.org/2000/svg" width="512" height="512">
<path d="M0 0 C0.80879136 -0.00581376 1.61758272 -0.01162753 2.45088291 -0.01761746 C5.16641021 -0.03223841 7.88103661 -0.01832261 10.59655762 -0.00457001 C12.56086947 -0.00917809 14.52517789 -0.01553038 16.48947906 -0.02347898 C21.89158199 -0.04020807 27.29340299 -0.0319096 32.69550705 -0.01953411 C38.51972127 -0.01050062 44.3438863 -0.0244449 50.16809082 -0.0354538 C61.57940987 -0.05326177 72.99062382 -0.04938887 84.40194702 -0.03780323 C93.67426416 -0.02877815 102.9465518 -0.0275409 112.21887207 -0.0318985 C113.53739874 -0.03251143 114.85592542 -0.03312436 116.21440744 -0.03375587 C118.2213245 -0.03470761 120.22824155 -0.03567246 122.23515859 -0.03666343 C147.31861731 -0.04890162 172.40201865 -0.03780214 197.48546851 -0.01627585 C219.77448207 0.00270683 242.06340423 0.00100833 264.35241699 -0.01811981 C289.38976189 -0.03953468 314.42705609 -0.04803372 339.46440887 -0.03567076 C342.13305154 -0.03438787 344.80169422 -0.03313905 347.47033691 -0.0318985 C349.43999035 -0.03097285 349.43999035 -0.03097285 351.44943476 -0.03002849 C360.71308778 -0.02657146 369.97670843 -0.03241156 379.24035645 -0.04181671 C390.52611101 -0.05302273 401.81175426 -0.05002602 413.09749603 -0.02869374 C418.85820138 -0.01816458 424.61872098 -0.01409335 430.37942505 -0.02729034 C435.64963442 -0.03918129 440.91948528 -0.03270606 446.18966198 -0.01138014 C448.09939817 -0.00690008 450.00916446 -0.00921164 451.91888142 -0.01888329 C454.50942475 -0.0309998 457.09873084 -0.0186209 459.68920898 0 C460.43540025 -0.00936466 461.18159151 -0.01872933 461.95039463 -0.02837777 C468.30870642 0.06333606 471.83352823 2.45928055 476.18785858 6.88507843 C478.78858514 12.56499155 478.39535011 18.24323535 478.35253906 24.39594269 C478.35714938 25.83228182 478.36350319 27.26861624 478.37144804 28.7049408 C478.38814672 32.6476773 478.37989272 36.59002654 478.36750317 40.53276443 C478.35845715 44.78641891 478.37242017 49.04000655 478.38342285 53.29364777 C478.40121747 61.6248554 478.3973639 69.95591896 478.38577229 78.28713226 C478.37674195 85.0575453 478.37551224 91.82791794 478.37986755 98.59833527 C478.38048049 99.5616157 478.38109342 100.52489614 478.38172492 101.51736689 C478.38300381 103.47419931 478.38430067 105.43103172 478.38561529 107.38786411 C478.39702385 125.74085379 478.38390305 144.09376358 478.36241382 162.44674015 C478.34454259 178.1974258 478.34764662 193.94799354 478.36608887 209.69867706 C478.3874907 227.9856002 478.39592519 246.2724533 478.38363981 264.55938721 C478.3823656 266.50905608 478.38110812 268.45872496 478.37986755 270.40839386 C478.3789419 271.84733812 478.3789419 271.84733812 478.37799755 273.31535196 C478.37454259 280.07831661 478.38037614 286.84123687 478.38978577 293.60419464 C478.40099949 301.84502734 478.3979789 310.08570761 478.37666279 318.32652283 C478.36614391 322.53184652 478.36204471 326.736916 478.3752594 330.94223785 C478.38717196 334.79137023 478.38063995 338.64001258 478.35934919 342.48910046 C478.35487825 343.88201507 478.35716051 345.27497101 478.36685234 346.66785908 C478.44980135 359.57874238 478.44980135 359.57874238 473.84460449 364.50336456 C468.65635859 369.18934099 463.99029425 369.07591321 457.34460449 369.02094269 C455.77766846 369.0314566 455.77766846 369.0314566 454.17907715 369.04218292 C450.73398069 369.05975479 447.28970898 369.04814238 443.84460449 369.03461456 C441.44616539 369.03730969 439.04772736 369.04119229 436.64929199 369.04621124 C431.62574854 369.05210522 426.60248982 369.04354615 421.57897949 369.02484894 C415.14271377 369.00205993 408.70711527 369.01518348 402.27087402 369.03913879 C397.31916281 369.05359917 392.36760955 369.04898957 387.41589355 369.03862762 C385.04284587 369.03596103 382.66978381 369.03922771 380.29675293 369.04854584 C376.97898421 369.05871487 373.66229305 369.0432039 370.34460449 369.02094269 C369.36572266 369.02903961 368.38684082 369.03713654 367.3782959 369.04547882 C361.71524971 368.97515538 358.2200331 368.45521181 353.84460449 364.50336456 C350.15756081 360.09482185 349.34937252 357.0929928 349.39050293 351.39643097 C349.39002079 350.70185476 349.38953865 350.00727856 349.3890419 349.29165459 C349.39200738 347.06220846 349.42236994 344.83413112 349.45397949 342.60492706 C349.45986698 341.22106316 349.46394378 339.83719034 349.46618652 338.45331573 C349.48708461 333.34486208 349.54292994 328.23659961 349.59460449 323.12836456 C349.67710449 311.70211456 349.75960449 300.27586456 349.84460449 288.50336456 C318.16460449 288.50336456 286.48460449 288.50336456 253.84460449 288.50336456 C253.84460449 304.34336456 253.84460449 320.18336456 253.84460449 336.50336456 C263.92586361 336.34600876 263.92586361 336.34600876 274.00622559 336.143013 C284.56087319 336.06027332 293.33430677 337.34811008 301.31335449 344.80023956 C307.86789108 352.09048944 309.84460449 358.68188706 309.84460449 368.50336456 C257.04460449 368.50336456 204.24460449 368.50336456 149.84460449 368.50336456 C149.84460449 358.98120379 151.56604122 352.07498281 158.14147949 345.03461456 C165.02947482 338.84173803 172.16373868 336.23391764 181.43054199 336.30805206 C182.71493164 336.31304718 183.99932129 336.3180423 185.32263184 336.32318878 C186.93863281 336.34139679 188.55463379 336.3596048 190.21960449 336.37836456 C195.37585449 336.41961456 200.53210449 336.46086456 205.84460449 336.50336456 C205.84460449 320.66336456 205.84460449 304.82336456 205.84460449 288.50336456 C196.16769287 288.53478546 196.16769287 288.53478546 186.29528809 288.56684113 C165.01324265 288.63303184 143.73119324 288.67747191 122.44907188 288.71061325 C109.54196302 288.73124653 96.6349516 288.75938191 83.72790527 288.80512238 C72.47933215 288.84496651 61.2308296 288.8707918 49.98218787 288.87971854 C44.02500717 288.88493735 38.06802837 288.89721967 32.11091232 288.92628479 C26.50491943 288.9534154 20.8992118 288.96181422 15.29315948 288.95579529 C13.23481573 288.95689657 11.17646253 288.9648643 9.11817551 288.98018646 C6.3085656 289.0000773 3.50003383 288.99530688 0.69039917 288.98438263 C-0.12478672 288.996034 -0.9399726 289.00768536 -1.77986109 289.0196898 C-7.02374219 288.96454896 -10.06121052 288.06291691 -14.15539551 284.50336456 C-18.937911 279.25493784 -18.7222328 274.38918037 -18.66333008 267.64789581 C-18.67269002 266.00496803 -18.67269002 266.00496803 -18.68223906 264.32884979 C-18.69819757 260.65763594 -18.68555294 256.98708338 -18.67297363 253.31586456 C-18.67839344 250.6843502 -18.68551531 248.05283888 -18.69421387 245.42133331 C-18.71199365 239.01518918 -18.7081616 232.60923259 -18.6965633 226.20308113 C-18.68752709 220.99635658 -18.68630578 215.78968455 -18.69065857 210.58295441 C-18.6912715 209.84170287 -18.69188443 209.10045134 -18.69251594 208.33673763 C-18.69379485 206.83086521 -18.6950917 205.3249928 -18.6964063 203.81912041 C-18.70781051 189.70093128 -18.69470092 175.58284608 -18.67320484 161.464674 C-18.65533398 149.35251881 -18.65843813 137.24051698 -18.67687988 125.12836456 C-18.69828944 111.06045253 -18.70671189 96.99263156 -18.69443083 82.92470551 C-18.69315664 81.42439526 -18.69189916 79.924085 -18.69065857 78.42377472 C-18.69004147 77.68560737 -18.68942437 76.94744001 -18.68878856 76.18690395 C-18.68533591 70.98686727 -18.69116217 65.78688839 -18.70057678 60.58686066 C-18.71297135 53.58707846 -18.70413776 46.58759083 -18.68099976 39.58783722 C-18.67570433 37.01671582 -18.67724059 34.44557007 -18.68605042 31.87445831 C-18.69695585 28.36891892 -18.68330119 24.86431298 -18.66333008 21.35883331 C-18.67225296 20.33762894 -18.68117585 19.31642456 -18.69036913 18.2642746 C-18.62678611 12.52347313 -18.18650973 8.92718873 -14.15539551 4.50336456 C-9.48690274 0.73339367 -5.8477198 -0.0733886 0 0 Z " fill="#97DDE9" transform="translate(26.1553955078125,71.49663543701172)"/>
<path d="M0 0 C1.26666504 0.01466309 2.53333008 0.02932617 3.83837891 0.04443359 C5.29123291 0.0727124 5.29123291 0.0727124 6.7734375 0.1015625 C6.78802002 1.25342041 6.80260254 2.40527832 6.81762695 3.59204102 C7.01472007 34.49077712 7.01472007 34.49077712 10.7734375 65.1015625 C10.92184082 65.88740723 11.07024414 66.67325195 11.22314453 67.48291016 C12.2484688 72.73130912 13.46369719 77.9176619 14.7734375 83.1015625 C15.03979004 84.18848389 15.03979004 84.18848389 15.31152344 85.29736328 C18.37723967 97.68864947 22.71965702 109.38966463 27.7734375 121.1015625 C28.09183594 121.84293457 28.41023438 122.58430664 28.73828125 123.34814453 C38.33330878 145.39978716 51.9380692 165.09931122 67.7734375 183.1015625 C68.57007812 184.01035156 69.36671875 184.91914063 70.1875 185.85546875 C78.12590677 194.78958633 86.39648604 202.68175547 95.7734375 210.1015625 C96.73894531 210.88402344 97.70445313 211.66648437 98.69921875 212.47265625 C124.15491561 232.68842567 154.07777062 247.9185539 185.70556641 255.59570312 C187.76034886 256.09836065 189.80342706 256.63586855 191.84765625 257.1796875 C214.9709461 263.17841885 238.08118756 263.55888166 261.79931641 263.4241333 C265.04502307 263.4105794 268.29059291 263.41590144 271.53631496 263.42126179 C274.69260413 263.42461065 277.8488098 263.41795918 281.00508308 263.40813255 C282.49728013 263.40431792 283.98948648 263.40311659 285.48168755 263.4047184 C297.41681085 263.40686753 308.7723736 262.9536676 317.79296875 254.125 C325.10893897 245.4074439 326.22093447 236.07300338 326.17407227 224.98583984 C326.18105133 223.81704788 326.1880304 222.64825592 326.19522095 221.44404602 C326.21509904 217.60845596 326.21469716 213.77313682 326.21484375 209.9375 C326.2266242 207.25808613 326.23975308 204.57871582 326.25486755 201.89932251 C326.29566579 194.14440634 326.31440705 186.38951302 326.33103943 178.63451385 C326.3534604 168.75647019 326.38709713 158.87849204 326.43823856 149.00055468 C326.461243 144.40027374 326.4679221 139.8001297 326.47132874 135.19979858 C326.48110703 132.78602896 326.49137063 130.37226124 326.50219727 127.95849609 C326.49964432 126.87152939 326.49709137 125.78456268 326.49446106 124.66465759 C326.5632688 114.43965483 328.47814579 106.37973244 334.7734375 98.1015625 C344.37854753 88.9747946 354.13356864 87.94789915 366.83740234 87.98803711 C368.04772125 87.98789108 369.25804016 87.98774506 370.5050354 87.9875946 C373.81038453 87.98817042 377.11567061 87.99317341 380.42100859 88.00016856 C383.88033073 88.00643496 387.33965377 88.0070085 390.79898071 88.00819397 C397.3436597 88.01129761 403.88832192 88.01949794 410.43299353 88.02954346 C417.88643472 88.04073466 425.33987673 88.04622262 432.79332423 88.05123889 C448.12003836 88.06168138 463.44673576 88.07926206 478.7734375 88.1015625 C478.86497675 122.39581354 478.93546793 156.6900367 478.97769882 190.9843835 C478.98270169 195.03239519 478.98787898 199.08040664 478.99316406 203.12841797 C478.9942133 203.93431009 478.99526255 204.74020222 478.99634358 205.57051532 C479.01375268 218.62241624 479.04529313 231.67424675 479.08204868 244.72610588 C479.11944409 258.11677741 479.14167038 271.50741204 479.14979148 284.89813364 C479.15528217 293.16212009 479.172629 301.42590753 479.20510337 309.68983273 C479.22623399 315.3553766 479.23264086 321.02081745 479.22744301 326.68639787 C479.22487891 329.95607715 479.23101259 333.22533469 479.2502594 336.49496841 C479.27010868 340.04018874 479.2653942 343.58455183 479.25445557 347.12979126 C479.26610693 348.16287025 479.2777583 349.19594924 479.28976274 350.26033366 C479.24000892 356.21054924 478.71074213 359.55736039 474.7734375 364.1015625 C469.5851916 368.78753892 464.91912725 368.67411115 458.2734375 368.61914062 C456.70650146 368.62965454 456.70650146 368.62965454 455.10791016 368.64038086 C451.66281369 368.65795272 448.21854199 368.64634032 444.7734375 368.6328125 C442.3749984 368.63550763 439.97656036 368.63939022 437.578125 368.64440918 C432.55458155 368.65030316 427.53132283 368.64174409 422.5078125 368.62304688 C416.07154678 368.60025787 409.63594828 368.61338142 403.19970703 368.63733673 C398.24799582 368.65179711 393.29644255 368.6471875 388.34472656 368.63682556 C385.97167888 368.63415897 383.59861682 368.63742564 381.22558594 368.64674377 C377.90781722 368.65691281 374.59112605 368.64140184 371.2734375 368.61914062 C370.29455566 368.62723755 369.31567383 368.63533447 368.30712891 368.64367676 C362.64408271 368.57335332 359.1488661 368.05340975 354.7734375 364.1015625 C351.08639381 359.69301978 350.27820553 356.69119074 350.31933594 350.99462891 C350.3188538 350.3000527 350.31837166 349.60547649 350.31787491 348.88985252 C350.32084039 346.6604064 350.35120295 344.43232906 350.3828125 342.203125 C350.38869999 340.8192611 350.39277679 339.43538828 350.39501953 338.05151367 C350.41591762 332.94306001 350.47176295 327.83479754 350.5234375 322.7265625 C350.6059375 311.3003125 350.6884375 299.8740625 350.7734375 288.1015625 C319.0934375 288.1015625 287.4134375 288.1015625 254.7734375 288.1015625 C254.7734375 303.9415625 254.7734375 319.7815625 254.7734375 336.1015625 C264.85469662 335.9442067 264.85469662 335.9442067 274.93505859 335.74121094 C285.4897062 335.65847125 294.26313978 336.94630802 302.2421875 344.3984375 C308.79672408 351.68868737 310.7734375 358.280085 310.7734375 368.1015625 C257.9734375 368.1015625 205.1734375 368.1015625 150.7734375 368.1015625 C150.7734375 358.57940173 152.49487423 351.67318075 159.0703125 344.6328125 C165.95830783 338.43993597 173.09257169 335.83211557 182.359375 335.90625 C183.64376465 335.91124512 184.9281543 335.91624023 186.25146484 335.92138672 C187.86746582 335.93959473 189.4834668 335.95780273 191.1484375 335.9765625 C196.3046875 336.0178125 201.4609375 336.0590625 206.7734375 336.1015625 C206.7734375 320.2615625 206.7734375 304.4215625 206.7734375 288.1015625 C197.09652588 288.1329834 197.09652588 288.1329834 187.22412109 288.16503906 C165.94207566 288.23122978 144.66002625 288.27566985 123.37790489 288.30881119 C110.47079602 288.32944447 97.56378461 288.35757985 84.65673828 288.40332031 C73.40816516 288.44316445 62.1596626 288.46898974 50.91102087 288.47791648 C44.95384018 288.48313529 38.99686138 288.49541761 33.03974533 288.52448273 C27.43375244 288.55161334 21.8280448 288.56001215 16.22199249 288.55399323 C14.16364874 288.55509451 12.10529554 288.56306223 10.04700851 288.5783844 C7.23739861 288.59827524 4.42886684 288.59350481 1.61923218 288.58258057 C0.80404629 288.59423193 -0.0111396 288.6058833 -0.85102808 288.61788774 C-6.09490918 288.56274689 -9.13237751 287.66111484 -13.2265625 284.1015625 C-18.00907799 278.85313577 -17.79339979 273.98737831 -17.73449707 267.24609375 C-17.74385701 265.60316597 -17.74385701 265.60316597 -17.75340605 263.92704773 C-17.76936457 260.25583388 -17.75671993 256.58528132 -17.74414062 252.9140625 C-17.74956044 250.28254814 -17.7566823 247.65103681 -17.76538086 245.01953125 C-17.78316065 238.61338712 -17.77932859 232.20743053 -17.7677303 225.80127907 C-17.75869409 220.59455451 -17.75747278 215.38788249 -17.76182556 210.18115234 C-17.76243849 209.43990081 -17.76305143 208.69864927 -17.76368293 207.93493557 C-17.76496184 206.42906315 -17.7662587 204.92319074 -17.7675733 203.41731834 C-17.77897751 189.29912922 -17.76586792 175.18104401 -17.74437183 161.06287193 C-17.72650097 148.95071675 -17.72960512 136.83871492 -17.74804688 124.7265625 C-17.76945643 110.65865047 -17.77787888 96.59082949 -17.76559782 82.52290344 C-17.76432363 81.02259319 -17.76306615 79.52228293 -17.76182556 78.02197266 C-17.76120846 77.2838053 -17.76059136 76.54563795 -17.75995556 75.78510189 C-17.7565029 70.58506521 -17.76232916 65.38508632 -17.77174377 60.18505859 C-17.78413834 53.18527639 -17.77530475 46.18578877 -17.75216675 39.18603516 C-17.74687132 36.61491376 -17.74840758 34.04376801 -17.75721741 31.47265625 C-17.76812285 27.96711686 -17.75446818 24.46251092 -17.73449707 20.95703125 C-17.74341996 19.93582687 -17.75234284 18.9146225 -17.76153612 17.86247253 C-17.67868259 10.38176974 -16.17909069 7.05409069 -10.8515625 1.7265625 C-6.81689302 -0.08208244 -4.38224463 -0.0657084 0 0 Z " fill="#82D0D8" transform="translate(25.2265625,71.8984375)"/>
<path d="M0 0 C0.87756454 -0.00571014 1.75512909 -0.01142029 2.6592865 -0.01730347 C3.62449722 -0.01842133 4.58970795 -0.01953918 5.58416748 -0.02069092 C6.59894669 -0.02565582 7.61372589 -0.03062073 8.65925598 -0.03573608 C12.02843903 -0.05038367 15.39757497 -0.05716457 18.76678467 -0.06268311 C21.1036784 -0.06843309 23.44057212 -0.07419084 25.77746582 -0.07995605 C30.68357565 -0.09047389 35.58966905 -0.09631121 40.49578857 -0.09979248 C46.78181927 -0.10527422 53.06763304 -0.1292923 59.35359573 -0.15776443 C64.18345777 -0.17639194 69.01326761 -0.18159652 73.84316254 -0.18312836 C76.16039972 -0.18615591 78.47763596 -0.19418788 80.79483795 -0.20731354 C84.038584 -0.22437352 87.28180098 -0.22249349 90.52557373 -0.21600342 C91.96124443 -0.22982559 91.96124443 -0.22982559 93.42591858 -0.243927 C99.36996139 -0.20668392 103.91890757 0.43821488 108.45819092 4.67559814 C112.66700066 10.17942627 112.96221954 13.44860278 112.96083069 20.26208496 C112.96450738 21.21919522 112.96818406 22.17630548 112.97197217 23.16241908 C112.98304077 26.3897992 112.98685821 29.61714717 112.99066162 32.84454346 C112.99692385 35.1503459 113.00357043 37.45614732 113.01057434 39.76194763 C113.02800597 46.04095392 113.0385419 52.31995258 113.04677987 58.59897709 C113.05192521 62.51909837 113.05800113 66.43921726 113.064291 70.35933685 C113.08116361 81.21102764 113.09579866 92.06271549 113.10303974 102.91441727 C113.10494967 105.73113252 113.10687 108.54784777 113.10882568 111.36456299 C113.10930942 112.06465259 113.10979316 112.7647422 113.11029156 113.48604664 C113.11859213 124.82743727 113.14392893 136.16872244 113.17640636 147.51006702 C113.20947171 159.1515511 113.22715522 170.79297613 113.23068398 182.43450713 C113.2330383 188.97179183 113.24204846 195.50890989 113.26714516 202.04615021 C113.29037088 208.19552945 113.29468114 214.34463167 113.28438377 220.49404335 C113.28388697 222.7523395 113.29024968 225.01064903 113.30393982 227.26890373 C113.32157395 230.34989171 113.31459389 233.42987642 113.30140686 236.51086426 C113.31237611 237.40639582 113.32334535 238.30192738 113.334647 239.22459626 C113.27806351 244.69317674 112.45003356 247.79962368 108.81365967 252.14044189 C103.62541377 256.82641832 98.95934942 256.71299054 92.31365967 256.65802002 C90.74672363 256.66853394 90.74672363 256.66853394 89.14813232 256.67926025 C85.70303586 256.69683212 82.25876415 256.68521971 78.81365967 256.67169189 C76.41522057 256.67438702 74.01678253 256.67826962 71.61834717 256.68328857 C66.59480371 256.68918256 61.571545 256.68062348 56.54803467 256.66192627 C50.11176895 256.63913727 43.67617044 256.65226081 37.2399292 256.67621613 C32.28821799 256.69067651 27.33666472 256.6860669 22.38494873 256.67570496 C20.01190105 256.67303836 17.63883899 256.67630504 15.26580811 256.68562317 C11.94803939 256.6957922 8.63134822 256.68028123 5.31365967 256.65802002 C4.33477783 256.66611694 3.355896 256.67421387 2.34735107 256.68255615 C-3.31569512 256.61223271 -6.81091173 256.09228914 -11.18634033 252.14044189 C-15.52929427 246.94966388 -15.75892312 243.00632974 -15.6942749 236.53778076 C-15.70051486 235.5772528 -15.70675483 234.61672484 -15.71318388 233.62708998 C-15.72912531 230.41188911 -15.71650477 227.19744513 -15.70391846 223.98223877 C-15.70933904 221.67584287 -15.71646134 219.36945044 -15.72515869 217.06306458 C-15.74340231 210.80073377 -15.73632003 204.5386664 -15.72364235 198.27633095 C-15.71352017 191.72480175 -15.72290586 185.17329521 -15.72918701 178.62176514 C-15.73773176 166.91444469 -15.72449595 155.20723513 -15.70414966 143.4999339 C-15.68627902 132.88867013 -15.68938325 122.27758141 -15.70782471 111.6663208 C-15.72923899 99.33874713 -15.73719449 87.01128505 -15.72537565 74.68369532 C-15.71913729 68.15991163 -15.71831466 61.63624849 -15.73152161 55.11247253 C-15.74307014 48.97941514 -15.73507212 42.84668855 -15.71194458 36.71366692 C-15.70665223 34.46183255 -15.70818021 32.20997038 -15.71699524 29.95814705 C-15.72791308 26.88608895 -15.71423174 23.81509329 -15.6942749 20.74310303 C-15.70319779 19.85029994 -15.71212068 18.95749686 -15.72131395 18.03763914 C-15.65247769 12.58112377 -14.81519761 9.47053868 -11.18634033 5.14044189 C-7.3780454 1.7855154 -5.0584526 0.01967803 0 0 Z " fill="#E5E5E5" transform="translate(391.18634033203125,183.85955810546875)"/>
<path d="M0 0 C0.33 8.91 0.66 17.82 1 27 C2.32 26.01 3.64 25.02 5 24 C7.806552 23.70372292 10.3111353 24.16650903 13 25 C15.6192182 27.20996536 15.92701746 28.57122759 16.5 31.9375 C15.81810427 36.11411135 14.36996335 37.50915752 11 40 C7.9375 40.5 7.9375 40.5 5 40 C3.68 39.01 2.36 38.02 1 37 C1 44.26 1 51.52 1 59 C2.32 58.01 3.64 57.02 5 56 C7.806552 55.70372292 10.3111353 56.16650903 13 57 C15.6192182 59.20996536 15.92701746 60.57122759 16.5 63.9375 C15.81810427 68.11411135 14.36996335 69.50915752 11 72 C7.9375 72.5 7.9375 72.5 5 72 C3.68 71.01 2.36 70.02 1 69 C1 76.26 1 83.52 1 91 C2.32 90.01 3.64 89.02 5 88 C7.806552 87.70372292 10.3111353 88.16650903 13 89 C15.6192182 91.20996536 15.92701746 92.57122759 16.5 95.9375 C15.81810427 100.11411135 14.36996335 101.50915752 11 104 C7.42645212 104.58343639 5.79820298 104.55974162 2.81640625 102.46875 C2.21699219 101.9840625 1.61757813 101.499375 1 101 C0.89969102 107.22147132 0.82786483 113.44245246 0.78027344 119.66455078 C0.76039424 121.7727073 0.73328118 123.88081048 0.69824219 125.98876953 C0.23425027 154.66074059 6.53376743 180.3151712 26.67578125 201.6875 C35.52305817 210.49016881 43.93859439 217.4294031 55.4375 222.3125 C56.26443359 222.67150391 57.09136719 223.03050781 57.94335938 223.40039062 C59.95919533 224.27430795 61.97793081 225.1406286 64 226 C64.13277344 224.88625 64.26554687 223.7725 64.40234375 222.625 C65 219 65 219 66.5625 217 C70.19610976 215.5092883 73.2798343 215.84682762 77 217 C79 218.6875 79 218.6875 80 221 C80.1875 224.0625 80.1875 224.0625 80 227 C80 227.99 80 228.98 80 230 C82.95508447 230.83371359 85.70109613 231.17889534 88.765625 231.31640625 C89.65507812 231.35830078 90.54453125 231.40019531 91.4609375 231.44335938 C92.38132812 231.48267578 93.30171875 231.52199219 94.25 231.5625 C95.18585938 231.60568359 96.12171875 231.64886719 97.0859375 231.69335938 C99.39048641 231.7991805 101.69513839 231.90126557 104 232 C104.62198595 244.61249288 104.62198595 244.61249288 102.375 249.625 C97.28417895 254.71582105 93.55784558 256.45405189 86.46630859 256.54211426 C85.48742676 256.53401733 84.50854492 256.52592041 83.5 256.51757812 C81.93306396 256.52809204 81.93306396 256.52809204 80.33447266 256.53881836 C76.88937619 256.55639022 73.44510449 256.54477782 70 256.53125 C67.6015609 256.53394513 65.20312286 256.53782772 62.8046875 256.54284668 C57.78114405 256.54874066 52.75788533 256.54018159 47.734375 256.52148438 C41.29810928 256.49869537 34.86251078 256.51181892 28.42626953 256.53577423 C23.47455832 256.55023461 18.52300505 256.545625 13.57128906 256.53526306 C11.19824138 256.53259647 8.82517932 256.53586314 6.45214844 256.54518127 C3.13437972 256.55535031 -0.18231145 256.53983934 -3.5 256.51757812 C-4.47888184 256.52567505 -5.45776367 256.53377197 -6.46630859 256.54211426 C-12.12935479 256.47179082 -15.6245714 255.95184725 -20 252 C-24.34295394 246.80922199 -24.57258279 242.86588785 -24.50793457 236.39733887 C-24.51417453 235.43681091 -24.5204145 234.47628295 -24.52684355 233.48664808 C-24.54278497 230.27144721 -24.53016444 227.05700323 -24.51757812 223.84179688 C-24.52299871 221.53540098 -24.53012101 219.22900855 -24.53881836 216.92262268 C-24.55706198 210.66029187 -24.5499797 204.3982245 -24.53730202 198.13588905 C-24.52717984 191.58435986 -24.53656553 185.03285332 -24.54284668 178.48132324 C-24.55139142 166.7740028 -24.53815561 155.06679324 -24.51780933 143.359492 C-24.49993869 132.74822824 -24.50304292 122.13713951 -24.52148438 111.52587891 C-24.54289866 99.19830524 -24.55085416 86.87084316 -24.53903532 74.54325342 C-24.53279696 68.01946974 -24.53197432 61.49580659 -24.54518127 54.97203064 C-24.55672981 48.83897325 -24.54873179 42.70624665 -24.52560425 36.57322502 C-24.5203119 34.32139066 -24.52183987 32.06952849 -24.53065491 29.81770515 C-24.54157275 26.74564705 -24.52789141 23.67465139 -24.50793457 20.60266113 C-24.51685746 19.70985805 -24.52578034 18.81705497 -24.53497362 17.89719725 C-24.46613736 12.44068187 -23.62885728 9.33009678 -20 5 C-12.69891321 -1.43190979 -11.94557838 0 0 0 Z " fill="#CDCDCE" transform="translate(400,184)"/>
<path d="M0 0 C1.07721313 -0.00671722 2.15442627 -0.01343445 3.26428223 -0.02035522 C6.81978998 -0.03932771 10.37510885 -0.04325924 13.93066406 -0.04541016 C16.40920082 -0.05183915 18.88773681 -0.05856759 21.36627197 -0.06558228 C26.5612565 -0.07755358 31.75617453 -0.0812633 36.95117188 -0.08007812 C43.59325039 -0.07987508 50.23488956 -0.10716377 56.87688828 -0.14162254 C61.99686626 -0.163911 67.11674148 -0.16791504 72.236763 -0.16685867 C74.68466924 -0.1692122 77.13257842 -0.17802163 79.58043671 -0.19352341 C83.01225879 -0.21321956 86.44316166 -0.20732999 89.875 -0.1953125 C90.87690369 -0.20655151 91.87880737 -0.21779053 92.91107178 -0.22937012 C101.98672095 -0.14901281 109.93854196 2.30510788 116.66503906 8.58740234 C123.21957565 15.87765222 125.19628906 22.46904984 125.19628906 32.29052734 C72.39628906 32.29052734 19.59628906 32.29052734 -34.80371094 32.29052734 C-34.80371094 22.76836657 -33.0822742 15.86214559 -26.50683594 8.82177734 C-18.50934634 1.63137385 -10.48722859 -0.00941121 0 0 Z " fill="#79828A" transform="translate(210.8037109375,407.70947265625)"/>
<path d="M0 0 C6.31402599 4.4892277 11.8946353 11.71801442 13.3125 19.4375 C14.16139257 31.4729102 12.31819034 40.17107102 4.3125 49.4375 C-2.47245319 56.0018043 -9.78415768 58.53513367 -19.125 58.875 C-28.81813298 58.59289485 -35.67882566 55.36061668 -42.70703125 48.73046875 C-49.29267777 41.10566696 -51.06204268 32.89934459 -50.9609375 23.08203125 C-50.29061535 14.14759453 -46.24601373 7.4106697 -39.6875 1.4375 C-27.43899795 -7.87325688 -13.10146687 -7.82541084 0 0 Z " fill="#82D0D8" transform="translate(458.6875,317.5625)"/>
<path d="M0 0 C15.84 0 31.68 0 48 0 C48 15.84 48 31.68 48 48 C32.16 48 16.32 48 0 48 C0 32.16 0 16.32 0 0 Z " fill="#E6E6E6" transform="translate(232,360)"/>
<path d="M0 0 C7.15010377 4.27070496 11.43850804 10.35633979 15.05859375 17.75390625 C16.27578317 24.3808264 16.04405135 31.23522733 14.62109375 37.81640625 C14.29109375 37.15640625 13.96109375 36.49640625 13.62109375 35.81640625 C12.79867187 35.8628125 11.97625 35.90921875 11.12890625 35.95703125 C1.24654467 36.27655333 -5.93592128 34.88944157 -13.69140625 28.56640625 C-20.0353683 22.5684785 -24.16803713 15.59712861 -24.4921875 6.7109375 C-24.50262672 3.74271963 -24.46659462 0.78319597 -24.37890625 -2.18359375 C-25.03890625 -2.51359375 -25.69890625 -2.84359375 -26.37890625 -3.18359375 C-17.562532 -6.12238517 -8.11257306 -4.03630482 0 0 Z " fill="#98DDE9" transform="translate(456.37890625,316.18359375)"/>
<path d="M0 0 C15.84 0 31.68 0 48 0 C48 7.92 48 15.84 48 24 C32.16 24 16.32 24 0 24 C0 16.08 0 8.16 0 0 Z " fill="#CECECE" transform="translate(232,360)"/>
<path d="M0 0 C1.24394531 0.00644531 2.48789063 0.01289063 3.76953125 0.01953125 C5.69732422 0.04466797 5.69732422 0.04466797 7.6640625 0.0703125 C8.97246094 0.07933594 10.28085938 0.08835937 11.62890625 0.09765625 C14.8491462 0.12116165 18.06900957 0.15402163 21.2890625 0.1953125 C21.2890625 0.5253125 21.2890625 0.8553125 21.2890625 1.1953125 C19.5875 1.535625 19.5875 1.535625 17.8515625 1.8828125 C8.5014011 4.29469159 2.37159353 8.97315704 -2.7109375 17.1953125 C-5.1534248 22.13396813 -5.56670105 26.47413026 -6.7109375 32.1953125 C-14.6309375 32.1953125 -22.5509375 32.1953125 -30.7109375 32.1953125 C-30.7109375 22.67315173 -28.98950077 15.76693075 -22.4140625 8.7265625 C-15.86585992 2.8391877 -8.84666208 -0.08116204 0 0 Z " fill="#5D6972" transform="translate(206.7109375,407.8046875)"/>
<path d="M0 0 C1.47726562 -0.02900391 1.47726562 -0.02900391 2.984375 -0.05859375 C7.44173413 -0.02847646 10.26149283 0.19069181 14.1484375 2.4765625 C16.89702825 7.15032651 16.72959615 11.29756958 16.625 16.625 C16.64433594 17.60984375 16.66367187 18.5946875 16.68359375 19.609375 C16.65122384 24.40012201 16.57748466 26.85182286 13.6484375 30.7734375 C11 32.625 11 32.625 8 33.25 C3.87195257 32.38999012 2.52031536 30.98542048 0 27.625 C-0.29754118 26.25949854 -0.54593163 24.88256323 -0.75 23.5 C-1.06246546 21.40714776 -1.06246546 21.40714776 -2 19.625 C-4.20519202 18.48468944 -6.33222528 17.93247323 -8.734375 17.3203125 C-12.20067084 16.25651826 -13.90836716 14.52629717 -16 11.625 C-16.625 8.625 -16.625 8.625 -16 5.625 C-11.68474383 -0.54745503 -6.9193892 -0.13585188 0 0 Z " fill="#FDFEFE" transform="translate(480,191.375)"/>
<path d="M0 0 C0.93714844 -0.00257812 1.87429688 -0.00515625 2.83984375 -0.0078125 C7.80437377 0.06260637 11.52949427 0.18039685 15.5 3.5 C17.36630915 7.2326183 16.72798906 11.70470785 16.75 15.8125 C16.770625 16.76318359 16.79125 17.71386719 16.8125 18.69335938 C16.86350905 27.81760296 16.86350905 27.81760296 13.5 31.5 C10.87121839 32.62276504 8.33903809 32.70605922 5.5 32.5 C2.23288174 30.82455474 1.672189 30.01656699 0.5 26.5 C0.43197033 24.77204648 0.41504355 23.04164635 0.4375 21.3125 C0.44652344 20.41144531 0.45554687 19.51039062 0.46484375 18.58203125 C0.47644531 17.89496094 0.48804688 17.20789063 0.5 16.5 C-0.62148438 16.55220703 -0.62148438 16.55220703 -1.765625 16.60546875 C-2.75046875 16.63253906 -3.7353125 16.65960938 -4.75 16.6875 C-5.72453125 16.72230469 -6.6990625 16.75710937 -7.703125 16.79296875 C-10.94649146 16.45323064 -12.22406775 15.80718074 -14.5 13.5 C-15.28515625 11.6328125 -15.28515625 11.6328125 -15.5625 9.625 C-15.67722656 8.96757813 -15.79195313 8.31015625 -15.91015625 7.6328125 C-14.31531979 -0.66033708 -6.69368514 -0.20255994 0 0 Z " fill="#FDFEFE" transform="translate(479.5,79.5)"/>
<path d="M0 0 C2.66589042 0.54323805 3.75768995 0.96351964 5.875 2.75 C7.21538506 5.84964046 7.42167869 7.71409302 6.875 11.0625 C4.41905875 14.38524404 2.9493356 15.83868008 -1.125 16.6875 C-5.1993356 15.83868008 -6.66905875 14.38524404 -9.125 11.0625 C-9.75 8.0625 -9.75 8.0625 -9.125 5.0625 C-6.50620524 1.2161452 -4.62486834 -0.35838463 0 0 Z " fill="#7E878F" transform="translate(473.125,271.9375)"/>
<path d="M0 0 C2.66589042 0.54323805 3.75768995 0.96351964 5.875 2.75 C7.21538506 5.84964046 7.42167869 7.71409302 6.875 11.0625 C4.41905875 14.38524404 2.9493356 15.83868008 -1.125 16.6875 C-5.1993356 15.83868008 -6.66905875 14.38524404 -9.125 11.0625 C-9.75 8.0625 -9.75 8.0625 -9.125 5.0625 C-6.50620524 1.2161452 -4.62486834 -0.35838463 0 0 Z " fill="#7E878F" transform="translate(441.125,271.9375)"/>
<path d="M0 0 C2.66589042 0.54323805 3.75768995 0.96351964 5.875 2.75 C7.21538506 5.84964046 7.42167869 7.71409302 6.875 11.0625 C4.41905875 14.38524404 2.9493356 15.83868008 -1.125 16.6875 C-5.1993356 15.83868008 -6.66905875 14.38524404 -9.125 11.0625 C-9.75 8.0625 -9.75 8.0625 -9.125 5.0625 C-6.50620524 1.2161452 -4.62486834 -0.35838463 0 0 Z " fill="#7E878F" transform="translate(473.125,239.9375)"/>
<path d="M0 0 C2.66589042 0.54323805 3.75768995 0.96351964 5.875 2.75 C7.21538506 5.84964046 7.42167869 7.71409302 6.875 11.0625 C4.41905875 14.38524404 2.9493356 15.83868008 -1.125 16.6875 C-5.1993356 15.83868008 -6.66905875 14.38524404 -9.125 11.0625 C-9.75 8.0625 -9.75 8.0625 -9.125 5.0625 C-6.50620524 1.2161452 -4.62486834 -0.35838463 0 0 Z " fill="#7E878F" transform="translate(441.125,239.9375)"/>
<path d="M0 0 C2.66589042 0.54323805 3.75768995 0.96351964 5.875 2.75 C7.21538506 5.84964046 7.42167869 7.71409302 6.875 11.0625 C4.41905875 14.38524404 2.9493356 15.83868008 -1.125 16.6875 C-5.1993356 15.83868008 -6.66905875 14.38524404 -9.125 11.0625 C-9.75 8.0625 -9.75 8.0625 -9.125 5.0625 C-6.50620524 1.2161452 -4.62486834 -0.35838463 0 0 Z " fill="#7E878F" transform="translate(473.125,207.9375)"/>
<path d="M0 0 C2.66589042 0.54323805 3.75768995 0.96351964 5.875 2.75 C7.21538506 5.84964046 7.42167869 7.71409302 6.875 11.0625 C4.41905875 14.38524404 2.9493356 15.83868008 -1.125 16.6875 C-5.1993356 15.83868008 -6.66905875 14.38524404 -9.125 11.0625 C-9.75 8.0625 -9.75 8.0625 -9.125 5.0625 C-6.50620524 1.2161452 -4.62486834 -0.35838463 0 0 Z " fill="#7E878F" transform="translate(441.125,207.9375)"/>
<path d="M0 0 C1.8046875 0.640625 1.8046875 0.640625 3.8046875 2.328125 C5.14507256 5.42776546 5.35136619 7.29221802 4.8046875 10.640625 C2.31384502 14.01058835 0.91879885 15.45872927 -3.2578125 16.140625 C-6.62408491 15.56764246 -7.98534714 15.2598432 -10.1953125 12.640625 C-11.16586381 9.90651093 -11.50945273 7.52959322 -11.1953125 4.640625 C-8.1181485 -0.22327939 -5.38557002 -1.09743691 0 0 Z " fill="#7E878E" transform="translate(411.1953125,272.359375)"/>
<path d="M0 0 C1.8046875 0.640625 1.8046875 0.640625 3.8046875 2.328125 C5.14507256 5.42776546 5.35136619 7.29221802 4.8046875 10.640625 C2.31384502 14.01058835 0.91879885 15.45872927 -3.2578125 16.140625 C-6.62408491 15.56764246 -7.98534714 15.2598432 -10.1953125 12.640625 C-11.16586381 9.90651093 -11.50945273 7.52959322 -11.1953125 4.640625 C-8.1181485 -0.22327939 -5.38557002 -1.09743691 0 0 Z " fill="#7E878E" transform="translate(411.1953125,240.359375)"/>
<path d="M0 0 C1.8046875 0.640625 1.8046875 0.640625 3.8046875 2.328125 C5.14507256 5.42776546 5.35136619 7.29221802 4.8046875 10.640625 C2.31384502 14.01058835 0.91879885 15.45872927 -3.2578125 16.140625 C-6.62408491 15.56764246 -7.98534714 15.2598432 -10.1953125 12.640625 C-11.16586381 9.90651093 -11.50945273 7.52959322 -11.1953125 4.640625 C-8.1181485 -0.22327939 -5.38557002 -1.09743691 0 0 Z " fill="#7E878E" transform="translate(411.1953125,208.359375)"/>
<path d="M0 0 C1.8046875 0.640625 1.8046875 0.640625 3.8046875 2.328125 C5.10888306 5.34407723 5.21189969 7.38292747 4.8046875 10.640625 C3.8046875 12.953125 3.8046875 12.953125 1.8046875 14.640625 C-1.89512811 15.78748929 -4.99215762 16.10337688 -8.6328125 14.703125 C-11.01371087 11.56033915 -11.62081384 8.5537177 -11.1953125 4.640625 C-8.1181485 -0.22327939 -5.38557002 -1.09743691 0 0 Z " fill="#7E868E" transform="translate(475.1953125,400.359375)"/>
<path d="M0 0 C2.9375 2 2.9375 2 5 5 C5.38022707 7.91696592 5.0649833 10.26062629 4 13 C1.06162832 15.85194898 -0.53597436 16 -4.625 16 C-8 15 -8 15 -10 12.875 C-11.30782688 9.11499772 -11.06090617 6.81926223 -10 3 C-7.0879799 -0.34343049 -4.29142741 -0.70064121 0 0 Z " fill="#616D75" transform="translate(443,400)"/>
<path d="M0 0 C2.0625 1.5625 2.0625 1.5625 3 4 C3.17821261 6.85140177 2.92914963 9.292848 2 12 C-0.93837168 14.85194898 -2.53597436 15 -6.625 15 C-10 14 -10 14 -12 11.875 C-13.30782688 8.11499772 -13.06090617 5.81926223 -12 2 C-8.81688665 -2.07438508 -4.54417813 -1.38635943 0 0 Z " fill="#616C75" transform="translate(413,401)"/>
<path d="M0 0 C0.66 0.33 1.32 0.66 2 1 C-1.63 4.63 -5.26 8.26 -9 12 C-9 7.8407692 -6.75316432 5.85455565 -4 3 C-1.6875 1.125 -1.6875 1.125 0 0 Z " fill="#597079" transform="translate(190,412)"/>
</svg>
